<svg width="352" height="301" viewBox="0 0 352 301" fill="none" xmlns="http://www.w3.org/2000/svg">
<path opacity="0.15" d="M277.034 289.722H169.22C168.608 289.723 168.003 289.603 167.437 289.37C166.872 289.137 166.358 288.794 165.926 288.362C165.493 287.93 165.15 287.417 164.915 286.852C164.681 286.287 164.561 285.682 164.561 285.07C164.563 283.836 165.054 282.653 165.928 281.781C166.802 280.908 167.986 280.419 169.22 280.419H277.034C278.267 280.419 279.45 280.909 280.323 281.781C281.195 282.653 281.685 283.836 281.685 285.07C281.685 286.304 281.195 287.487 280.323 288.359C279.45 289.232 278.267 289.722 277.034 289.722Z" fill="#292929"/>
<path opacity="0.15" d="M150.598 290.503H126.559C124.845 290.503 123.455 291.893 123.455 293.607C123.455 295.321 124.845 296.711 126.559 296.711H150.598C152.312 296.711 153.702 295.321 153.702 293.607C153.702 291.893 152.312 290.503 150.598 290.503Z" fill="#292929"/>
<path d="M296.5 242.291C292.804 234.759 290.996 226.44 291.232 218.054C291.351 213.979 291.951 209.888 291.438 205.837C290.356 197.268 284.149 189.837 276.386 186.046C268.623 182.255 259.541 181.79 251.059 183.44C237.318 186.109 226.293 194.702 224.998 209.217C224.256 217.54 225.859 225.935 225.124 234.259C224.945 236.302 224.577 238.325 224.027 240.3L219.873 240.601L188.363 242.867C181.437 243.372 174.448 243.538 169.543 248.829C164.316 254.486 160.945 261.607 159.885 269.236C159.095 274.97 159.972 281.469 164.315 285.283C164.67 285.593 165.042 285.883 165.429 286.152H270.865C278.141 286.217 285.206 283.718 290.822 279.092C291.161 278.808 291.493 278.523 291.817 278.223C302.297 268.683 302.368 254.208 296.5 242.291Z" fill="white" stroke="#18216D" stroke-miterlimit="10"/>
<path d="M237.816 233.58C235.225 231.092 232.446 228.77 230.005 226.133C226.925 222.8 225.18 218.82 223.308 214.729C221.31 210.354 219.715 205.663 219.841 200.79C220.136 194.61 222.848 188.793 227.391 184.593C229.95 182.161 233.875 180.092 234.436 176.419C234.981 172.873 234.128 168.854 236.26 165.703C239.277 161.225 247.664 165.387 250.246 168.404C253.634 172.352 253.263 178.923 257.922 181.892C259.683 183.014 261.871 183.274 263.79 184.017C265.621 184.731 267.257 185.869 268.564 187.338C269.871 188.807 270.811 190.564 271.308 192.467C272.208 196.028 272.177 199.835 274.909 202.599C277.784 205.505 280.437 207.993 281.977 211.957C283.048 215.033 283.699 218.239 283.912 221.489C284.599 229.268 278.992 236.067 272.374 239.748C267.287 242.53 261.484 243.726 255.711 243.183C250.909 242.749 244.655 241.422 241.575 237.6C240.409 236.181 239.153 234.838 237.816 233.58Z" fill="#18216D"/>
<path d="M229.207 207.937C227.544 212.652 224.653 216.837 220.832 220.062C217.012 223.287 212.401 225.434 207.474 226.283C208.544 228.273 209.341 230.398 209.843 232.601C216.603 232.687 223.671 230.8 228.481 226.054C233.29 221.307 235.201 213.339 231.774 207.511C231.355 206.777 229.476 207.156 229.207 207.937Z" fill="white" stroke="#18216D" stroke-miterlimit="10"/>
<path d="M225.567 204.012C226.704 200.932 228.726 197.932 230.195 195.12L232.722 190.232C233.283 189.15 233.954 186.82 235.21 186.346C236.228 185.967 237.437 186.844 238.368 187.183C239.727 187.673 241.132 188.044 242.499 188.526C245.207 189.497 247.908 190.753 249.891 192.901C250.967 193.995 251.808 195.298 252.362 196.73C252.916 198.161 253.172 199.691 253.113 201.225C252.978 202.994 252.212 204.652 251.802 206.382C251.393 208.418 251.253 210.5 251.383 212.573C251.539 218.962 252.032 225.339 252.86 231.677C253.103 232.776 253.054 233.919 252.718 234.993C251.628 237.584 244.757 236.92 242.309 237.142C238.4 237.489 233.899 238.421 230.211 236.644C229.72 232.606 229.485 228.542 229.508 224.474C229.508 221.086 230.463 217.667 228.323 214.753C226.451 212.218 224.272 209.959 224.856 206.571C225.014 205.698 225.252 204.842 225.567 204.012Z" fill="#005FEC"/>
<path d="M234.112 185.059C234.202 184.008 234.202 182.951 234.112 181.9C234.017 181.039 233.393 180.684 232.745 180.147C229.973 177.872 229.421 174.287 230.297 170.97C230.408 170.618 230.479 170.256 230.51 169.888C230.515 169.545 230.491 169.201 230.439 168.862C230.302 167.557 230.642 166.247 231.395 165.174C233.085 162.891 237.128 162.749 239.379 164.218C242.443 166.2 242.862 170.433 242.972 174.082C243.059 176.925 243.138 179.76 243.225 182.603C243.312 185.651 243.557 189.489 240.374 191.1C239.26 191.653 237.982 191.779 236.781 191.456C236.065 191.281 235.415 190.902 234.909 190.366C233.709 188.984 234.025 186.749 234.112 185.059Z" fill="white" stroke="#18216D" stroke-miterlimit="10"/>
<path d="M241.693 178.607C240.009 180.222 237.819 181.207 235.494 181.395C237.584 181.998 239.789 182.09 241.922 181.663C241.775 180.651 241.698 179.63 241.693 178.607Z" fill="#18216D"/>
<path d="M157.935 281.248L162.413 276.636C164.08 275.021 165.597 273.258 166.946 271.368C168.043 269.716 168.88 267.905 169.425 265.998C169.907 264.308 170.128 262.405 169.283 260.873C168.753 260.037 167.995 259.369 167.098 258.95C166.201 258.53 165.203 258.375 164.221 258.504C162.259 258.802 160.433 259.682 158.977 261.031C155.645 263.842 153.575 267.428 151.617 271.234C149.39 275.562 147.076 279.845 144.675 284.083C144.209 284.873 143.096 286.452 143.254 287.416C143.412 288.379 144.833 288.734 145.907 288.829C148.379 289.058 150.748 288.632 152.517 286.815C154.286 284.999 156.126 283.143 157.935 281.248Z" fill="#005FEC"/>
<path d="M145.37 282.456C145.169 282.325 144.944 282.236 144.708 282.194C144.472 282.152 144.23 282.158 143.996 282.211C143.559 282.339 143.151 282.551 142.796 282.835C139.361 285.203 135.539 286.954 131.503 288.008C129.497 288.529 127.293 288.971 125.974 290.551C124.932 291.783 125.903 292.92 127.12 293.481C129.029 294.204 131.1 294.384 133.106 294.002C137.931 293.252 142.756 294.539 147.589 294.002C151.222 293.599 152.241 290.906 153.22 287.747C153.37 287.266 153.552 286.784 153.686 286.302C152.525 285.844 151.001 286.034 149.737 285.568C148.645 285.194 147.647 284.584 146.815 283.783C146.384 283.289 145.899 282.844 145.37 282.456Z" fill="#18216D"/>
<path d="M253.587 235.886C253.129 233.991 252.449 232.04 251.036 230.816C249.622 229.592 247.3 229.402 246.132 230.895C245.729 231.4 245.5 232.04 245.097 232.545C243.889 234.046 240.856 233.035 239.285 232.995C236.836 232.932 234.388 233.074 231.948 233.24C225.993 233.635 220.047 234.156 214.1 234.678L197.445 236.139C194.618 236.383 191.782 236.747 188.947 236.928C186.499 237.063 184.485 236.494 182.077 237.623C180.102 238.672 178.277 239.981 176.651 241.517C174.116 243.688 171.55 245.821 169.038 248.024C167.601 249.28 166.187 250.559 164.805 251.878C160.944 255.574 157.39 259.578 153.836 263.566C150.851 266.935 147.86 270.302 144.865 273.666C150.492 278.161 155.816 283.024 160.801 288.221C161.71 287.431 162.586 286.421 163.171 285.852C164.497 284.667 165.777 283.443 167.025 282.188C167.699 281.59 168.222 280.84 168.549 280C168.746 279.321 168.683 278.586 168.841 277.891C169.331 275.625 171.771 274.488 173.532 272.987C176.067 270.823 176.454 267.791 178.081 265.09C179.526 262.673 182.472 261.615 184.454 259.617C186.302 257.746 187.218 255.147 188.797 253.039C190.085 251.317 193.251 248.924 195.423 250.52C197.153 251.783 196.9 254.673 198.985 255.716C200.414 256.427 202.144 256.387 203.668 256.656C208.912 257.588 214.219 258.109 219.51 258.63L228.552 259.514C233.575 260.004 238.732 260.486 243.597 259.041C245.618 258.478 247.505 257.513 249.144 256.204C250.783 254.894 252.141 253.267 253.136 251.42C253.599 250.487 253.944 249.5 254.163 248.482C255.119 244.446 254.487 239.661 253.587 235.886Z" fill="white" stroke="#18216D" stroke-miterlimit="10"/>
<path d="M258.277 200.222C264.177 203.507 265.101 210.749 265.29 217.177C265.385 220.486 265.195 223.874 263.955 226.938C260.623 235.151 250.53 237.205 242.633 236.944C232.46 236.594 222.421 234.513 212.947 230.792C212.889 229.064 213.086 227.337 213.531 225.667C219.546 227.253 225.736 228.076 231.956 228.115C236.458 228.271 240.954 227.651 245.247 226.283C247.956 225.335 250.625 223.787 251.809 221.379C253.934 217.059 250.388 212.423 249.882 208.119C249.591 206.621 249.658 205.076 250.08 203.61C250.33 202.999 250.648 202.419 251.028 201.88C251.511 201.029 252.177 200.295 252.978 199.732C253.614 199.401 254.318 199.223 255.035 199.21C255.752 199.198 256.462 199.352 257.108 199.661C257.509 199.824 257.899 200.011 258.277 200.222Z" fill="white" stroke="#18216D" stroke-miterlimit="10"/>
<path d="M181.997 236.21H223.561C223.838 236.205 224.109 236.132 224.351 235.996C225.496 235.341 224.927 233.88 223.561 233.88H181.997C181.72 233.883 181.449 233.956 181.208 234.093C180.039 234.741 180.6 236.21 181.997 236.21Z" fill="#18216D"/>
<path d="M181.714 236.312H221.153C221.262 236.311 221.37 236.28 221.463 236.223C221.557 236.166 221.633 236.084 221.684 235.987C221.735 235.89 221.759 235.781 221.753 235.671C221.747 235.562 221.711 235.456 221.65 235.365L208.225 215.621C208.169 215.541 208.095 215.475 208.008 215.429C207.922 215.384 207.825 215.36 207.727 215.361H168.264C168.155 215.36 168.047 215.39 167.953 215.446C167.859 215.502 167.783 215.583 167.731 215.68C167.68 215.777 167.656 215.886 167.663 215.995C167.669 216.105 167.705 216.21 167.767 216.301L181.192 236.044C181.25 236.129 181.327 236.198 181.418 236.245C181.51 236.292 181.611 236.315 181.714 236.312Z" fill="#18216D"/>
<path d="M234.452 167.646C235.601 167.323 236.82 167.357 237.95 167.74C239.226 168.215 240.327 169.066 241.109 170.181C242.065 171.539 242.175 172.7 242.325 174.335C242.657 178.067 242.994 181.8 243.336 185.533C243.349 186.143 243.492 186.743 243.755 187.294C244.223 187.962 244.915 188.441 245.705 188.644C246.378 188.894 247.095 189.001 247.812 188.958C248.528 188.916 249.228 188.726 249.867 188.4C250.466 188 250.972 187.476 251.352 186.865C251.732 186.253 251.977 185.568 252.07 184.854C252.248 183.425 252.216 181.977 251.976 180.558C251.447 176.048 251.186 171.918 249.322 167.701C247.83 164.313 244.11 162.394 240.461 161.786C237.21 161.254 233.877 161.552 230.771 162.654C229.74 162.955 228.806 163.522 228.063 164.297C226.949 165.608 227.068 167.116 228.718 167.582C229.834 167.979 231.018 168.151 232.201 168.088C232.959 167.982 233.71 167.835 234.452 167.646Z" fill="#18216D"/>
<path d="M240.342 172.581C240.475 172.3 240.664 172.048 240.896 171.841C241.128 171.634 241.4 171.475 241.694 171.375C241.989 171.275 242.301 171.235 242.611 171.258C242.922 171.28 243.224 171.365 243.501 171.507C244.757 172.297 244.536 174.082 243.501 174.958C243.273 175.17 242.996 175.324 242.695 175.406C242.394 175.487 242.078 175.495 241.773 175.427C241.469 175.359 241.185 175.219 240.947 175.018C240.709 174.816 240.523 174.56 240.406 174.271C240.331 174.031 240.309 173.778 240.342 173.529C240.249 173.389 240.199 173.224 240.199 173.055C240.199 172.886 240.249 172.722 240.342 172.581Z" fill="white"/>
<path d="M252.505 212.178L253.95 211.649C253.963 211.596 253.99 211.547 254.027 211.507C254.064 211.467 254.111 211.437 254.163 211.42C257.788 210.078 261.334 208.538 264.935 207.14C264.004 204.607 262.86 202.158 261.515 199.819C260.503 197.733 259.123 195.847 257.44 194.251C255.426 192.356 253.169 190.736 250.728 189.434C250.112 189.118 243.123 186.212 243.075 186.338C242.527 188.181 242.141 190.067 241.922 191.977C241.869 193.217 241.75 194.453 241.567 195.681C241.011 197.674 241.22 199.803 242.151 201.651C243.573 204.202 244.939 206.824 246.487 209.288L249.03 213.331C249.983 212.917 250.968 212.579 251.976 212.32L252.505 212.178Z" fill="#005FEC"/>
<path d="M232.256 177.075C232.655 177.424 233.167 177.617 233.697 177.617C234.228 177.617 234.74 177.424 235.139 177.075C235.312 176.909 235.273 176.633 235.297 176.396C235.32 176.159 235.146 175.898 234.91 175.914C234.837 175.919 234.767 175.941 234.704 175.977C233.978 176.285 232.975 176.751 232.256 177.075Z" fill="#18216D"/>
<path d="M194.767 223.661C194.53 223.512 194.266 223.412 193.989 223.365C193.713 223.318 193.43 223.327 193.157 223.389C192.884 223.452 192.625 223.568 192.397 223.73C192.169 223.893 191.975 224.099 191.826 224.336C191.677 224.574 191.576 224.838 191.53 225.114C191.483 225.391 191.491 225.674 191.554 225.947C191.617 226.22 191.733 226.478 191.895 226.707C192.058 226.935 192.263 227.129 192.501 227.278" stroke="#C9CDD1" stroke-miterlimit="10"/>
<path d="M209.535 267.562C208.477 264.553 207.814 261.355 206.882 258.29C206.507 256.891 205.916 255.558 205.129 254.342C204.33 253.107 203.085 252.227 201.654 251.886C199.206 251.42 196.766 253.165 195.644 255.392C192.722 261.165 195.218 267.57 199 272.205C200.288 273.785 201.678 275.262 203.004 276.802C204.331 278.342 205.295 280.403 206.653 281.864C208.754 284.115 212.394 282.654 214.116 280.616C216.169 278.184 213.524 274.891 212.118 272.845C211.029 271.205 210.161 269.429 209.535 267.562Z" fill="#005FEC"/>
<path d="M213.413 276.146L213.026 276.415C210.985 277.797 208.853 279.04 206.645 280.134C206.112 280.381 205.646 280.752 205.287 281.216C204.718 282.069 205.334 282.685 205.452 283.53C205.79 286.131 205.561 288.774 204.781 291.277C203.991 293.647 201.054 296.971 201.796 299.617C202.278 301.362 204.734 301.102 206.1 300.723C208.09 300.082 209.767 298.718 210.799 296.9C211.857 295.155 212.623 293.236 213.555 291.42C214.419 289.737 215.431 288.136 216.58 286.634C217.161 285.953 217.66 285.205 218.064 284.407C218.405 283.548 218.499 282.612 218.337 281.702C218.176 280.793 217.764 279.946 217.148 279.258C216.501 278.515 216.027 277.631 215.403 276.889C214.558 275.83 214.281 275.585 213.413 276.146Z" fill="#18216D"/>
<path d="M185.015 255.116C185.346 255.984 185.512 256.893 185.804 257.777C186.354 259.318 187.077 260.791 187.96 262.168C189.982 265.627 192.009 269.083 194.041 272.537L197.082 277.718C197.216 277.947 197.445 278.428 197.721 278.997C203.218 275.78 208.591 272.358 213.84 268.731C212.655 266.796 211.312 264.932 211.036 262.705C210.894 261.584 211.036 260.431 210.91 259.301C210.578 256.577 208.627 254.389 207.001 252.194C204.094 248.245 202.025 243.736 199.553 239.479C199.261 238.974 198.961 238.476 198.653 237.979C196.982 235.141 194.886 232.576 192.438 230.374C191.19 229.345 189.847 228.438 188.426 227.665C187.234 226.978 186.357 225.991 185.07 225.461C179.479 223.163 175.072 227.681 174.898 233.359C174.78 237.378 176.58 241.201 178.57 244.691C179.934 247.103 181.408 249.44 182.993 251.704C183.802 252.755 184.481 253.901 185.015 255.116Z" fill="white" stroke="#18216D" stroke-miterlimit="10"/>
<path d="M246.392 205.371C246.734 210.047 246.248 214.747 244.955 219.254C245.199 218.409 247.561 216.932 248.24 216.261C248.919 215.59 250.862 214.097 250.98 212.96C251.099 211.823 249.709 210.267 249.18 209.406C248.324 208.012 247.393 206.665 246.392 205.371Z" fill="#18216D"/>
<path d="M243.249 182.595C243.336 185.643 243.581 189.481 240.398 191.092C239.284 191.645 238.006 191.771 236.805 191.448" fill="white"/>
<path d="M243.249 182.595C243.336 185.643 243.581 189.481 240.398 191.092C239.284 191.645 238.006 191.771 236.805 191.448" stroke="#18216D" stroke-miterlimit="10"/>
<path d="M239.474 260.059C246.439 258.93 253.144 263.155 260.181 263.7L239.474 260.059Z" fill="white"/>
<path d="M239.474 260.059C246.439 258.93 253.144 263.155 260.181 263.7" stroke="#18216D" stroke-miterlimit="10"/>
<path d="M256.051 257.872C259.694 258.866 263.511 259.049 267.233 258.409L256.051 257.872Z" fill="white"/>
<path d="M256.051 257.872C259.694 258.866 263.511 259.049 267.233 258.409" stroke="#18216D" stroke-miterlimit="10"/>
<path d="M270.052 233.73C270.791 239.888 269.091 246.09 265.314 251.009" stroke="#18216D" stroke-miterlimit="10"/>
<path d="M167.001 281.722C166.748 279.961 166.543 275.404 164.395 274.74C159.404 273.2 162.547 285.299 162.989 286.863C163.025 287.006 163.09 287.141 163.18 287.259C163.269 287.377 163.382 287.476 163.51 287.55C163.688 287.996 163.957 288.401 164.3 288.738C164.642 289.075 165.051 289.337 165.5 289.508C165.702 289.564 165.916 289.565 166.119 289.511C166.321 289.457 166.506 289.35 166.653 289.2C166.786 289.07 166.902 288.924 167.001 288.766C167.134 288.664 167.239 288.53 167.308 288.377C167.377 288.224 167.407 288.057 167.396 287.889C167.399 287.869 167.399 287.847 167.396 287.826C167.869 285.955 167.222 283.254 167.001 281.722Z" fill="#18216D"/>
<path d="M155.707 270.602C154.025 270.697 152.272 272.687 151.166 273.761C149.507 275.401 148.039 277.224 146.791 279.194C146.703 279.322 146.643 279.468 146.617 279.621C146.59 279.774 146.597 279.931 146.636 280.081C146.676 280.231 146.748 280.371 146.847 280.49C146.946 280.61 147.07 280.707 147.21 280.774C147.621 282.03 149.121 282.227 150.369 281.927C152.286 281.383 153.971 280.223 155.163 278.626C156.26 277.244 157.626 275.412 157.895 273.627C158.108 272.205 157.35 270.507 155.707 270.602Z" fill="#18216D"/>
<path d="M170.057 261.426C167.151 261.615 161.733 261.647 160.067 264.585C159.91 264.843 159.805 265.131 159.76 265.43C159.715 265.73 159.729 266.035 159.803 266.329C159.876 266.623 160.007 266.899 160.188 267.142C160.369 267.384 160.596 267.589 160.857 267.743C162.436 268.849 164.481 268.383 166.187 267.909C166.438 267.847 166.659 267.699 166.811 267.491C168.137 267.196 169.412 266.706 170.594 266.038C171.723 265.406 173.2 264.458 173.034 263.013C172.868 261.568 171.273 261.347 170.057 261.426Z" fill="#18216D"/>
<path d="M171.826 251.357C170.894 248.822 168.809 246.737 166.661 245.205C166.536 245.106 166.39 245.038 166.234 245.006C166.079 244.974 165.918 244.979 165.764 245.021C165.611 245.062 165.469 245.139 165.35 245.245C165.232 245.351 165.14 245.483 165.082 245.631C164.651 245.516 164.196 245.524 163.77 245.655C163.344 245.787 162.964 246.036 162.673 246.373C161.141 248.048 161.946 251.112 163.005 252.825C164.165 254.689 167.198 256.774 169.48 256.458C171.96 256.111 172.568 253.37 171.826 251.357Z" fill="#18216D"/>
<path d="M151.798 261.299C151.565 261.219 151.312 261.219 151.079 261.299C150.828 261.245 150.567 261.249 150.317 261.311C150.067 261.372 149.835 261.491 149.638 261.656C149.44 261.821 149.283 262.029 149.179 262.265C149.074 262.5 149.025 262.756 149.034 263.013C149.034 264.474 150.108 266.006 151.158 266.962C152.375 268.048 153.909 268.712 155.534 268.857C155.847 268.855 156.147 268.729 156.369 268.508C156.591 268.286 156.716 267.986 156.718 267.672C156.686 266.224 156.191 264.824 155.306 263.677C154.42 262.53 153.191 261.697 151.798 261.299Z" fill="#18216D"/>
<path d="M184.848 258.891C184.359 258.101 184.122 257.224 183.324 256.735C182.881 256.477 182.368 256.366 181.858 256.415C181.348 256.465 180.866 256.673 180.481 257.011C178.752 258.29 177.78 260.786 177.488 262.847C177.251 264.537 177.172 267.349 179.281 267.862C180.821 268.233 181.784 267.112 182.44 265.832C182.979 265.153 183.408 264.394 183.711 263.582C184.117 262.572 184.367 261.507 184.453 260.423C184.587 260.355 184.705 260.26 184.799 260.144C184.893 260.027 184.961 259.891 184.999 259.746C185.036 259.601 185.042 259.45 185.016 259.302C184.99 259.155 184.933 259.014 184.848 258.891Z" fill="#18216D"/>
<path d="M227.391 253.268C225.812 251.372 223.245 253.655 221.942 254.729C220.874 255.621 219.89 256.609 219.004 257.682C218.428 258.385 217.361 259.372 217.488 260.367C217.488 260.462 217.527 260.557 217.551 260.652C217.486 260.884 217.441 261.122 217.417 261.362C217.421 261.675 217.547 261.974 217.768 262.196C217.99 262.417 218.288 262.543 218.601 262.547C221.026 262.547 223.34 260.431 224.982 258.835C226.199 257.651 228.923 255.131 227.391 253.268Z" fill="#18216D"/>
<path d="M217.867 243.444C216.335 242.188 214.131 241.13 212.102 241.43C209.733 241.777 209.093 243.759 210.017 245.797C210.204 246.2 210.426 246.586 210.68 246.95C210.702 246.999 210.721 247.049 210.736 247.1C211.148 248.111 211.791 249.012 212.614 249.731C213.437 250.449 214.416 250.966 215.474 251.238C217.053 251.641 220.852 251.641 221.207 249.438C221.563 247.234 219.446 244.668 217.867 243.444Z" fill="#18216D"/>
<path d="M239.466 240.743C238.542 238.452 235.415 238.105 233.353 238.326C231.561 238.524 228.165 238.792 226.87 240.427C225.906 241.216 225.18 242.385 225.977 243.546C226.98 244.999 229.989 245.062 231.545 245.126C233.149 245.205 234.746 244.868 236.181 244.146C237.894 243.728 240.256 242.693 239.466 240.743Z" fill="#18216D"/>
<path d="M240.39 250.946C238.747 249.114 235.541 248.798 234.357 251.309C233.654 252.81 234.033 254.468 234.767 256.048C235.07 257.338 235.762 258.504 236.749 259.388L237.089 259.894C237.199 260.056 237.346 260.189 237.517 260.284C237.689 260.378 237.88 260.43 238.076 260.436C238.271 260.443 238.466 260.402 238.643 260.319C238.82 260.236 238.975 260.111 239.095 259.957C239.773 259.906 240.427 259.689 241.002 259.325C241.576 258.962 242.052 258.463 242.388 257.872C243.344 255.905 241.74 252.446 240.39 250.946Z" fill="#18216D"/>
<path d="M256.895 245.284C256.923 245.154 256.922 245.02 256.893 244.89C256.864 244.761 256.808 244.639 256.727 244.534C256.647 244.428 256.545 244.341 256.428 244.278C256.312 244.215 256.183 244.179 256.05 244.17C253.176 243.775 250.04 243.309 247.3 244.541C245.894 245.173 244.141 246.863 244.994 248.593C246.076 250.67 250.127 250.875 252.102 250.962C254.21 251.025 257.077 250.496 258.182 248.443C258.996 246.95 258.269 245.931 256.895 245.284Z" fill="#18216D"/>
<path d="M209.836 253.133C209.567 251.838 208.462 251.42 207.269 251.428C207.162 251.18 206.968 250.979 206.724 250.864C206.48 250.749 206.202 250.728 205.942 250.804C203.434 251.4 201.205 252.835 199.625 254.871C198.535 256.285 197.042 258.677 198.961 260.083C200.88 261.489 203.976 259.507 205.603 258.338C207.001 257.343 210.254 255.116 209.836 253.133Z" fill="#18216D"/>
<path d="M201.409 267.167C197.279 267.664 193.994 272.506 191.727 275.522C191.587 275.688 191.51 275.898 191.51 276.115C191.51 276.331 191.587 276.541 191.727 276.707C191.623 276.972 191.574 277.256 191.582 277.541C191.59 277.826 191.656 278.106 191.775 278.365C193.441 281.895 199.451 275.854 200.762 274.417C201.907 273.185 203.771 271.258 204.031 269.544C204.292 267.83 202.91 266.985 201.409 267.167Z" fill="#18216D"/>
<path d="M193.275 252.344C193.222 252.171 193.131 252.013 193.01 251.88C192.888 251.747 192.738 251.642 192.571 251.574C192.404 251.506 192.224 251.476 192.044 251.486C191.864 251.496 191.688 251.547 191.53 251.633C187.652 254.057 187.265 260.233 187.502 264.324C187.509 264.568 187.593 264.803 187.742 264.996C187.891 265.189 188.097 265.33 188.331 265.398C188.451 265.843 188.723 266.233 189.099 266.499C189.475 266.766 189.933 266.893 190.392 266.859C192.762 266.796 193.678 263.108 194.049 261.331C194.682 258.324 194.412 255.198 193.275 252.344Z" fill="#18216D"/>
<path d="M203.123 237.679C203.07 237.436 202.93 237.222 202.729 237.076C202.528 236.93 202.28 236.864 202.033 236.889H201.891C199.727 235.947 197.328 235.685 195.012 236.139C192.304 236.139 188.987 237.205 189.089 240.214C189.216 243.957 196.71 242.583 198.906 242.156C200.738 241.856 205.761 239.811 203.123 237.679Z" fill="#18216D"/>
<path d="M185.299 242.804C185.03 242.899 184.762 243.017 184.509 243.12C183.913 243.281 183.352 243.549 182.851 243.909C181.939 244.38 181.072 244.932 180.26 245.56C178.942 246.595 177.023 248.135 176.478 249.793C175.996 251.222 177.157 252.344 178.547 252.344C180.126 252.344 181.792 251.293 182.977 250.369C183.948 249.58 187.107 246.247 186.72 244.328C186.878 243.483 186.278 242.448 185.299 242.804Z" fill="#18216D"/>
<path d="M185.038 229.797C184.564 227.538 182.882 228.091 181.326 228.376C181.134 228.387 180.942 228.387 180.75 228.376C179.171 228.486 177.773 230.745 177.078 232.04C176.193 233.619 175.498 235.728 176.454 237.45C178.428 241.043 182.59 236.454 183.711 234.535C184.493 233.232 185.37 231.376 185.038 229.797Z" fill="#18216D"/>
<path d="M317.989 46.6276H172.679V134.287H317.989V46.6276Z" fill="white" stroke="#18216D" stroke-miterlimit="10"/>
<path d="M183.609 130.323C182.882 125.664 183.767 120.594 186.768 116.953C188.181 115.247 190.037 113.849 190.929 111.828C191.337 110.792 191.582 109.7 191.656 108.59C192.256 102.485 191.222 95.8197 194.499 90.6312C195.818 88.5384 197.745 86.8958 199.237 84.9057C201.93 81.2335 202.925 76.582 205.334 72.7281C207.743 68.8742 212.726 65.7864 216.746 67.9187C220.765 70.0509 221.05 75.5395 219.826 79.812C218.602 84.0844 216.288 88.2384 216.69 92.6608C217.054 96.5226 219.478 99.9579 219.912 103.82C220.394 108.076 218.412 112.246 218.333 116.526C218.191 121.96 221.042 127.219 220.402 132.613C219.762 138.007 215.774 142.358 210.973 144.657C205.934 147.073 194.807 149.505 189.887 145.557C186.388 142.777 184.233 134.358 183.609 130.323Z" fill="#005FEC"/>
<path d="M254.684 135.061C253.958 130.402 254.842 125.332 257.843 121.691C260.323 118.69 262.463 117.632 262.344 113.652C262.202 108.613 260.512 104.112 261.302 98.9313C262.352 92.0448 266.325 85.9166 267.754 79.1012C268.899 73.5731 268.544 67.3895 272.058 63.0223C273.083 61.6258 274.603 60.6738 276.307 60.361C280.548 59.7845 283.541 64.7124 283.746 68.9927C283.951 73.273 282.656 77.6797 283.872 81.7705C285.175 86.1772 289.179 89.4703 290.143 93.9639C290.704 96.6095 290.143 99.3814 290.506 102.059C290.814 104.349 291.793 106.481 292.575 108.653C297.061 121.107 295.616 142.895 282.04 149.395C277.002 151.811 265.875 154.244 260.955 150.295C257.464 147.515 255.308 139.097 254.684 135.061Z" fill="#005FEC"/>
<path d="M274.04 142.2V142.153C274.125 137.085 275.322 132.098 277.547 127.543C281.235 120.017 287.703 113.683 289.243 105.431C289.985 101.482 289.487 97.3597 289.645 93.3163C289.803 89.2729 290.775 84.961 293.76 82.2601C295.15 80.9966 297.282 80.1515 298.901 81.115C299.783 81.7385 300.435 82.6349 300.757 83.6658C302.336 87.7645 302.265 92.3055 302.85 96.6727C303.774 103.567 308.938 107.058 309.728 113.731C310.621 121.336 309.515 129.02 307.296 136.309C304.879 144.254 302.936 152.546 294.66 156.518C287.616 159.898 280.698 160.941 276.417 153.17C274.692 149.78 273.873 146.001 274.04 142.2Z" fill="#005FEC"/>
<path d="M206.764 132.589C206.653 130.742 207.68 129.036 208.746 127.535C212.781 121.857 217.883 117 221.579 111.085C223.624 107.816 225.946 104.712 226.752 100.819C227.064 98.932 227.206 97.0211 227.178 95.109C227.159 91.2675 227.691 87.4432 228.757 83.7527C230.526 78.2246 234.388 73.2809 239.616 70.7696C248.303 66.6077 261.729 66.971 266.467 76.9373C268.323 80.8307 268.686 85.34 268.71 89.573C268.71 94.7062 268.149 99.8789 268.828 104.973C269.618 110.698 272.856 114.22 277.041 117.901C279.924 120.436 282.127 122.844 282.625 126.714C283.099 130.402 281.385 134.066 278.937 136.736C275.47 140.518 270.629 142.824 265.654 144.08C260.678 145.336 255.513 145.62 250.396 145.928C244.544 146.283 238.661 146.67 232.84 146.015C227.02 145.359 221.192 143.575 216.556 139.997C214.842 138.678 213.239 137.075 211.249 136.175C209.259 135.275 206.929 135.464 206.764 132.589Z" fill="#18216D"/>
<path d="M248.927 139.176C246.547 139.488 244.149 139.63 241.749 139.602C240.343 139.602 238.226 139.689 237.081 138.741C235.936 137.794 235.881 136.191 235.849 134.943C235.731 130.473 236.639 126.058 237.097 121.612C237.445 118.035 237.476 114.307 236.378 110.848C235.375 107.689 233.859 104.917 233.362 101.537C233.243 100.748 233.362 98.8681 232.833 98.2126C232.303 97.5571 231.403 97.6993 230.89 97.0359C230.39 96.3282 230.155 95.4671 230.226 94.6036C230.296 93.6375 230.626 92.7084 231.183 91.9156C231.739 91.1227 232.5 90.4959 233.385 90.1021C233.419 90.0929 233.448 90.0717 233.467 90.0426C233.486 90.0135 233.493 89.9785 233.488 89.9442C232.959 84.4161 235.297 78.58 240.201 75.887C245.239 73.1309 251.036 71.0776 256.351 74.6235C258.929 76.4134 260.783 79.0657 261.579 82.1022C261.847 83.0261 262.716 91.6421 262.771 92.0606C263.196 91.9997 263.63 92.0635 264.02 92.2444C264.41 92.4252 264.739 92.7153 264.967 93.0794C265.413 93.8148 265.648 94.6592 265.646 95.5196C265.704 96.3942 265.491 97.2655 265.034 98.0136C264.577 98.7618 263.9 99.35 263.095 99.6973C261.121 100.487 261.658 102.548 261.168 104.436C260.565 106.791 259.49 108.999 258.009 110.927C257.662 111.327 257.377 111.777 257.164 112.262C256.998 112.844 256.95 113.453 257.022 114.055C257.364 120.415 257.512 126.78 257.464 133.15C257.464 135.069 257.172 136.649 255.435 137.573C253.405 138.623 251.154 138.868 248.927 139.176Z" fill="white" stroke="#18216D" stroke-miterlimit="10"/>
<path d="M239.703 75.1131C237.11 76.1417 234.902 77.9524 233.385 80.2937C231.962 82.8238 231.343 85.7268 231.608 88.6174C231.695 89.5651 232.343 90.6549 233.282 90.5365C234.025 90.4417 234.443 89.6599 234.862 89.0281C237.539 84.961 243.944 84.0923 248.429 83.7922C249.567 83.7211 250.704 83.6974 251.849 83.7211C254.921 83.7843 257.922 84.6135 260.954 84.7399C263.324 84.8425 265.953 83.1604 267.462 81.4467C269.11 79.5702 270.01 77.1525 269.989 74.655C270.023 73.5549 269.717 72.4711 269.112 71.5514C268.086 70.1457 266.103 69.6008 264.445 69.6956C262.868 69.7801 261.308 70.0613 259.801 70.5327C258.312 71.1469 256.764 71.6099 255.182 71.9147C253.547 72.1121 251.904 72.507 250.254 72.7597C246.692 73.273 243.036 73.6521 239.703 75.1131Z" fill="#18216D"/>
<path d="M248.982 108.771C247.6 109.19 246.51 109.561 245.081 109.008C244.694 108.85 244.418 109.506 244.797 109.679C246.179 110.327 248.137 110.469 249.338 109.379C249.395 109.323 249.432 109.248 249.443 109.168C249.454 109.088 249.437 109.007 249.397 108.937C249.356 108.867 249.293 108.813 249.218 108.783C249.143 108.753 249.06 108.749 248.982 108.771Z" fill="#18216D"/>
<path d="M248.73 99.7684H248.39L245.855 100.163C242.87 100.629 244.947 104.451 247.316 103.875C247.761 103.783 248.18 103.592 248.54 103.314C248.971 102.894 249.301 102.381 249.504 101.814C249.668 101.49 249.772 101.14 249.812 100.779C249.831 100.598 249.802 100.415 249.725 100.249C249.648 100.083 249.528 99.9418 249.377 99.8395C249.174 99.7498 248.948 99.725 248.73 99.7684Z" fill="#18216D"/>
<path d="M247.04 97.1307C246.447 97.1307 247.04 93.6401 247.087 93.1821C247.196 92.1298 247.167 91.0678 247 90.0231C247 89.8573 246.74 89.9047 246.732 90.0231C246.629 92.2028 246.139 94.3272 246.013 96.4831C245.966 97.2728 246.234 98.0626 247.134 97.7862C247.197 97.7509 247.247 97.6977 247.278 97.6334C247.31 97.5692 247.321 97.4969 247.311 97.426C247.301 97.3552 247.269 97.2891 247.221 97.2364C247.173 97.1837 247.109 97.1469 247.04 97.1307Z" fill="#18216D"/>
<path d="M240.303 92.8899C240.27 92.7772 240.201 92.6781 240.107 92.6071C240.013 92.5361 239.9 92.4968 239.782 92.495H239.727C239.618 92.4952 239.511 92.5237 239.417 92.5777C239.323 92.6317 239.245 92.7094 239.19 92.803C239.19 92.803 239.19 92.803 239.19 92.8425C239.108 92.9403 239.058 93.0608 239.046 93.1879C239.035 93.315 239.063 93.4425 239.126 93.5532L239.174 93.6164C239.506 94.0744 240.39 93.9876 240.351 93.3005C240.351 93.1622 240.335 93.0244 240.303 92.8899Z" fill="#18216D"/>
<path d="M254.487 92.1633C253.957 91.6737 253.16 92.4713 253.697 92.953C253.713 93.0362 253.742 93.1161 253.784 93.19C253.83 93.2686 253.895 93.3339 253.974 93.3792C254.053 93.4246 254.143 93.4484 254.234 93.4484C254.325 93.4484 254.414 93.4246 254.493 93.3792C254.572 93.3339 254.638 93.2686 254.684 93.19C254.768 93.0209 254.795 92.8288 254.759 92.6432C254.723 92.4577 254.628 92.289 254.487 92.1633Z" fill="#18216D"/>
<path d="M250.538 115.934C252.537 117.12 254.62 118.16 256.769 119.046C256.952 119.124 257.151 119.156 257.349 119.141C257.547 119.125 257.738 119.062 257.907 118.956C258.075 118.851 258.215 118.706 258.316 118.535C258.416 118.363 258.473 118.17 258.483 117.972C258.548 115.984 258.826 114.009 259.312 112.08C259.581 111.085 260.465 110.272 260.465 109.245C260.471 109.102 260.438 108.96 260.37 108.834C260.267 108.692 260.116 108.592 259.945 108.551C259.774 108.511 259.595 108.533 259.438 108.613C259.125 108.778 258.855 109.013 258.649 109.3C256.461 111.906 254.116 112.902 250.894 113.66C250.652 113.715 250.433 113.842 250.264 114.023C250.095 114.204 249.984 114.432 249.946 114.677C249.908 114.921 249.944 115.172 250.049 115.396C250.155 115.62 250.325 115.808 250.538 115.934Z" fill="#18216D"/>
<path d="M317.989 46.6276H172.679V134.287H317.989V46.6276Z" stroke="#18216D" stroke-miterlimit="10"/>
<path d="M177.062 41.3127H313.622C314.878 41.3127 316.083 41.8119 316.972 42.7006C317.861 43.5892 318.36 44.7944 318.36 46.0511V51.9898H172.26V46.0511C172.26 45.4235 172.385 44.8021 172.627 44.2231C172.869 43.644 173.224 43.1189 173.67 42.678C174.117 42.2372 174.647 41.8895 175.229 41.6551C175.811 41.4207 176.434 41.3044 177.062 41.3127Z" fill="#18216D"/>
<path d="M178.997 50.1261C180.61 50.1261 181.919 48.8178 181.919 47.2041C181.919 45.5903 180.61 44.2821 178.997 44.2821C177.383 44.2821 176.075 45.5903 176.075 47.2041C176.075 48.8178 177.383 50.1261 178.997 50.1261Z" fill="white"/>
<path d="M192.683 47.0698C192.707 47.6454 192.56 48.2154 192.261 48.7076C191.962 49.1998 191.523 49.5923 191.001 49.8353C190.478 50.0784 189.896 50.1612 189.326 50.0733C188.757 49.9853 188.227 49.7306 187.802 49.3412C187.377 48.9519 187.078 48.4454 186.941 47.8858C186.804 47.3262 186.836 46.7385 187.033 46.1971C187.23 45.6557 187.583 45.1848 188.047 44.844C188.512 44.5031 189.067 44.3076 189.642 44.2821C190.415 44.25 191.169 44.5253 191.738 45.0478C192.308 45.5704 192.648 46.2974 192.683 47.0698Z" fill="white"/>
<path d="M192.682 47.0698C192.707 47.6454 192.56 48.2154 192.261 48.7076C191.961 49.1998 191.523 49.5923 191.001 49.8353C190.478 50.0784 189.896 50.1612 189.326 50.0733C188.757 49.9853 188.226 49.7306 187.802 49.3412C187.377 48.9519 187.077 48.4454 186.94 47.8858C186.804 47.3262 186.836 46.7385 187.032 46.1971C187.229 45.6557 187.582 45.1848 188.047 44.844C188.511 44.5031 189.067 44.3076 189.642 44.2821C190.415 44.25 191.168 44.5253 191.738 45.0478C192.308 45.5703 192.648 46.2974 192.682 47.0698Z" fill="white"/>
<path d="M186.373 43.6503L193.164 50.7578" stroke="#18216D" stroke-miterlimit="10"/>
<path d="M186.215 50.5999L193.322 43.8003" stroke="#18216D" stroke-miterlimit="10"/>
<path d="M149.777 16.2231H43.1633V103.883H149.777V16.2231Z" fill="white" stroke="#18216D" stroke-miterlimit="10"/>
<path d="M54.6066 48.1518C54.3549 46.5948 54.457 45.0012 54.9055 43.4891C55.3539 41.977 56.1371 40.5854 57.1969 39.4174C57.9866 38.6276 58.7764 38.0985 59.2739 37.0482C59.4576 36.5594 59.5823 36.0503 59.6451 35.5319C59.9748 33.9902 60.6246 32.5349 61.5524 31.2602C62.4802 29.9855 63.6653 28.9198 65.031 28.1322C68.0004 26.2526 70.9619 26.2131 74.3577 25.6445C75.3606 25.4787 76.3241 25.1628 77.3192 24.9969C78.2678 24.8483 79.2323 24.8297 80.1859 24.9417C82.9718 25.327 85.5861 26.5121 87.712 28.3533C89.1011 29.557 90.2436 31.0186 91.0762 32.6573C91.866 33.9367 92.174 35.3977 92.9005 36.6849C93.7376 38.1538 94.7327 38.1064 96.1463 38.7856C97.4209 39.4032 98.5324 40.3117 99.3911 41.438C100.25 42.5643 100.832 43.8767 101.09 45.2693C102.219 52.1399 95.1749 57.1152 88.9124 55.6937C84.174 54.6354 77.0665 54.667 73.4495 58.355C71.9411 59.8713 70.6697 61.6561 68.9086 62.8723C68.7269 62.9907 68.5453 63.1092 68.3558 63.2198C66.7299 64.1587 64.8955 64.6772 63.0187 64.7282C61.1419 64.7792 59.282 64.3612 57.6076 63.512C53.1772 61.0638 53.5247 55.9464 54.9462 51.7292C55.1089 51.3491 55.1999 50.9421 55.2147 50.5288C55.175 50.1738 55.0873 49.8258 54.9541 49.4943C54.8036 49.0565 54.6874 48.6076 54.6066 48.1518Z" fill="#005FEC"/>
<path d="M75.9924 74.9314C77.7535 78.3904 81.5205 80.1041 85.6666 79.5434H85.7613C86.8109 79.3741 87.8154 78.9947 88.7148 78.4278C89.6141 77.8609 90.3898 77.1183 90.9952 76.2444C91.6006 75.3706 92.0234 74.3834 92.2382 73.3423C92.4529 72.3011 92.4552 71.2273 92.245 70.1852L90.8472 63.0144C90.5968 62.0768 90.5537 61.0958 90.7208 60.1398C91.018 59.3035 91.4186 58.5076 91.9133 57.7706C95.0722 52.0451 91.4869 45.5377 88.5649 40.5704C87.3993 38.5585 85.7489 36.8701 83.7641 35.6591C81.7792 34.448 79.5229 33.7527 77.2007 33.6365C66.9895 33.218 61.9589 42.4894 63.9412 51.5713C65.0784 56.7361 68.182 60.4399 72.1385 63.7252C76.0951 67.0104 76.3162 70.0114 75.9924 74.9314Z" fill="white" stroke="#18216D" stroke-miterlimit="10"/>
<path d="M66.4132 42.6158C66.2373 43.3931 66.2052 44.196 66.3185 44.9849C66.5437 46.8934 66.2234 48.8266 65.3945 50.5604C64.9244 51.3695 64.3301 52.0997 63.6334 52.7243C63.0734 53.3068 62.3947 53.762 61.6433 54.0589C61.2671 54.2007 60.862 54.2489 60.4631 54.1994C60.0641 54.1499 59.6832 54.0041 59.3531 53.7746C59.0396 53.4912 58.7985 53.1368 58.6501 52.7411C58.5017 52.3454 58.4503 51.9199 58.5001 51.5002C58.5987 50.6645 58.7839 49.8414 59.053 49.0441C59.4478 47.5516 59.6058 46.0037 60.0243 44.519C60.3668 42.9983 61.2162 41.6393 62.433 40.6651C62.8973 40.3279 63.4323 40.1008 63.9973 40.0009C64.5624 39.9011 65.1428 39.931 65.6946 40.0886C66.0894 40.2229 66.9265 40.5783 67.0687 41.0205C67.2661 41.6523 66.6107 41.984 66.4132 42.6158Z" fill="#005FEC"/>
<path d="M69.1693 41.8892C70.1853 41.6207 71.1681 41.2393 72.0992 40.752C72.3184 40.6137 72.5675 40.5297 72.8257 40.5072C73.049 40.5221 73.2655 40.5897 73.4575 40.7046C74.8872 41.5109 76.4534 42.0463 78.0774 42.2841C79.7122 42.3867 81.5364 41.6207 82.0892 40.0807C82.1682 39.8675 82.263 39.599 82.492 39.5674C82.573 39.568 82.653 39.586 82.7266 39.62C82.8001 39.6541 82.8655 39.7034 82.9184 39.7648C84.7743 41.3443 86.6697 44.0531 89.489 42.7895C90.9895 42.1182 91.7634 40.4203 91.8582 38.7461C92.0319 35.1133 89.3468 31.7886 86.0379 30.2723C82.7289 28.756 78.9303 28.7718 75.3213 29.2378C72.7663 29.5005 70.2719 30.1808 67.9373 31.2516C65.4339 32.4836 64.5178 34.4105 63.1516 36.7797C62.7865 37.3036 62.5474 37.9047 62.4529 38.5362C62.3584 39.1677 62.411 39.8125 62.6067 40.4203C63.3964 42.1419 65.6629 42.5052 67.5267 42.2367C68.0811 42.1561 68.6297 42.04 69.1693 41.8892Z" fill="#005FEC"/>
<path d="M84.7504 63.0224C84.456 63.1656 84.1527 63.2896 83.8422 63.3935C83.4552 63.5278 81.7652 63.5594 81.6073 63.7884C81.1177 64.507 82.8946 64.6729 83.1868 64.7203C83.9422 64.8294 84.6836 65.0201 85.398 65.2889C85.9455 65.5324 86.4735 65.8176 86.9774 66.1418L88.9281 67.2869C88.488 65.103 88.2239 62.8872 88.1383 60.6611C88.1383 60.977 86.5115 61.9562 86.243 62.1379C85.7666 62.467 85.2679 62.7626 84.7504 63.0224Z" fill="#18216D"/>
<path d="M71.5858 48.8467C71.4465 48.8077 71.2992 48.8077 71.16 48.8467C71.0207 48.8857 70.8948 48.9622 70.7961 49.0678C70.7485 49.1187 70.713 49.1796 70.6921 49.2461C70.6712 49.3125 70.6655 49.3828 70.6753 49.4517C70.6852 49.5207 70.7104 49.5865 70.749 49.6445C70.7877 49.7024 70.8388 49.7509 70.8987 49.7865C70.945 49.8436 71.0026 49.8906 71.0678 49.9245C71.133 49.9585 71.2045 49.9787 71.2778 49.9839C71.3738 49.9891 71.4699 49.9733 71.5592 49.9376C71.6485 49.9019 71.729 49.8473 71.7951 49.7774C71.8613 49.7076 71.9114 49.6241 71.9421 49.533C71.9727 49.4418 71.9832 49.3451 71.9727 49.2495C71.9604 49.1495 71.9161 49.0563 71.8463 48.9837C71.7765 48.9111 71.6851 48.863 71.5858 48.8467Z" fill="#18216D"/>
<path d="M84.4899 46.9277C84.4004 46.7934 84.266 46.6954 84.1108 46.6512C84.0924 46.6157 84.0656 46.5852 84.0327 46.5624C83.9998 46.5397 83.9618 46.5253 83.922 46.5207C83.8823 46.516 83.842 46.5211 83.8047 46.5356C83.7674 46.5501 83.7342 46.5736 83.7081 46.6039C83.4159 46.8961 83.3527 46.975 83.4396 47.3936C83.4559 47.4636 83.491 47.5277 83.5411 47.5792C83.5912 47.6307 83.6544 47.6676 83.7239 47.6858C83.8717 47.7324 84.0312 47.7265 84.1751 47.6689C84.3191 47.6113 84.4387 47.5057 84.5136 47.3699C84.5523 47.3016 84.5707 47.2237 84.5665 47.1453C84.5623 47.0669 84.5357 46.9914 84.4899 46.9277Z" fill="#18216D"/>
<path d="M79.9567 50.6078C79.7276 49.7391 79.1196 48.8467 79.009 47.9701C79.009 47.9073 78.984 47.847 78.9396 47.8026C78.8952 47.7582 78.8349 47.7332 78.7721 47.7332C78.7092 47.7332 78.649 47.7582 78.6045 47.8026C78.5601 47.847 78.5352 47.9073 78.5352 47.9701C78.5593 48.7163 78.7088 49.4532 78.9774 50.1498C79.1985 50.9948 79.2064 51.8872 79.467 52.7085C79.5697 53.0323 80.1304 53.1034 80.1936 52.7085C80.261 51.9994 80.1803 51.2841 79.9567 50.6078Z" fill="#18216D"/>
<path d="M85.5087 45.9247C84.949 45.5282 84.2691 45.3382 83.585 45.3871C82.9008 45.4361 82.2549 45.721 81.7574 46.1932C81.724 46.2349 81.7057 46.2867 81.7053 46.3401C81.705 46.3935 81.7227 46.4455 81.7557 46.4875C81.7886 46.5296 81.8348 46.5593 81.8867 46.5718C81.9386 46.5844 81.9933 46.579 82.0417 46.5565C82.5274 46.2571 83.0621 46.0459 83.6212 45.9326C84.1979 45.9229 84.7713 46.0221 85.3112 46.2248C85.3507 46.2431 85.3954 46.2465 85.4372 46.2346C85.479 46.2226 85.5152 46.1961 85.5391 46.1597C85.563 46.1234 85.573 46.0797 85.5675 46.0366C85.5619 45.9935 85.541 45.9538 85.5087 45.9247Z" fill="#18216D"/>
<path d="M71.4122 47.4568C70.5492 47.397 69.6976 47.6809 69.043 48.2465C69.0016 48.2942 68.9763 48.3538 68.9707 48.4167C68.9651 48.4797 68.9795 48.5428 69.0119 48.5971C69.0443 48.6514 69.093 48.694 69.151 48.719C69.2091 48.7439 69.2736 48.7499 69.3352 48.7361C70.2908 48.4834 71.7676 47.6147 72.7153 48.4044C72.7438 48.4306 72.7799 48.447 72.8184 48.4513C72.8569 48.4555 72.8957 48.4473 72.9292 48.4279C72.9627 48.4085 72.9891 48.3789 73.0046 48.3434C73.0201 48.308 73.0239 48.2685 73.0154 48.2307C72.8495 47.5436 71.9887 47.4726 71.4122 47.4568Z" fill="#18216D"/>
<path d="M79.4751 57.7627C79.4358 57.5316 79.4867 57.2942 79.6172 57.0994C79.7841 56.7695 79.9714 56.4504 80.1779 56.1438C80.4513 55.674 80.8619 55.2992 81.3546 55.0698C81.6027 54.9626 81.8807 54.9467 82.1394 55.0247C82.3981 55.1028 82.6208 55.2698 82.7683 55.4962C82.8529 55.7382 82.8749 55.9976 82.8321 56.2504C82.7893 56.5031 82.6831 56.7409 82.5234 56.9414C82.1365 57.5495 79.9173 59.2 79.4751 57.7627Z" fill="#18216D"/>
<path d="M89.2285 39.291C88.0513 39.2601 86.9026 38.9225 85.8958 38.3117C85.264 37.8537 83.6214 36.4164 83.7478 35.5556C83.7872 35.3029 83.4398 35.0975 83.2976 35.3661C82.7211 36.4559 84.1426 37.9248 84.8771 38.6434C86.0617 39.8359 87.6332 40.1676 89.2443 40.3808C89.9313 40.4677 89.9313 39.3463 89.2285 39.291Z" fill="white"/>
<path d="M76.9637 38.3275C76.2043 38.2019 75.4755 37.9339 74.8156 37.5378C74.2391 37.1508 72.7781 36.0294 73.3862 35.2634C73.5441 35.066 73.2835 34.7816 73.1019 34.9791C72.3122 35.8399 73.1888 36.9218 73.8363 37.5773C74.6261 38.367 75.8896 39.2594 76.9953 38.7461C77.0279 38.7204 77.0537 38.6872 77.0704 38.6492C77.0871 38.6112 77.0942 38.5697 77.0911 38.5284C77.088 38.487 77.0747 38.4471 77.0525 38.412C77.0303 38.377 76.9998 38.348 76.9637 38.3275Z" fill="white"/>
<path d="M68.6086 38.7777C68.0304 38.6665 67.444 38.6031 66.8554 38.5881C66.4605 38.5171 64.6363 38.0432 65.118 37.3641C65.276 37.1271 64.9048 36.8349 64.7152 37.0561C63.3648 38.6355 67.5741 40.0175 68.6639 39.212C68.7016 39.1867 68.7316 39.1514 68.7504 39.11C68.7692 39.0687 68.7761 39.0229 68.7704 38.9778C68.7647 38.9327 68.7465 38.8901 68.7179 38.8547C68.6893 38.8194 68.6515 38.7927 68.6086 38.7777Z" fill="white"/>
<path d="M149.777 16.2231H43.1633V103.883H149.777V16.2231Z" stroke="#18216D" stroke-miterlimit="10"/>
<path d="M66.026 111.464C60.2768 110.793 54.4407 109.885 48.7546 110.967C49.1969 101.964 50.4526 92.882 53.9747 84.5898C57.4969 76.2977 63.4515 68.7953 71.5462 64.8466C81.6547 59.8555 93.9271 59.8555 104.581 63.0065C115.036 66.1102 124.821 74.1101 132.268 81.8731C136.198 85.9721 139.67 90.4871 142.622 95.338C143.379 96.4986 143.984 97.7513 144.422 99.0655C144.772 100.285 144.861 101.564 144.684 102.819C144.507 104.075 144.068 105.28 143.396 106.355C138.926 113.415 128.336 111.204 121.481 111.883C115.337 112.515 109.177 112.917 103.001 113.091C90.6528 113.454 78.2946 112.91 66.026 111.464Z" fill="#18216D"/>
<path d="M67.5107 78.4931C68.3004 75.3974 69.0191 72.0095 68.3004 69.198C67.566 66.205 65.1415 63.5989 63.8464 60.8032C62.7012 58.2682 62.1011 55.2751 63.104 52.7164C63.1596 52.5472 63.2452 52.3894 63.3567 52.2505C63.4902 52.1421 63.6448 52.0627 63.8107 52.0174C63.9765 51.972 64.15 51.9616 64.32 51.9868C64.4901 52.0121 64.6531 52.0724 64.7986 52.164C64.9441 52.2556 65.0689 52.3765 65.1652 52.519C65.526 53.1122 65.7699 53.7689 65.8839 54.4538C66.4209 56.3492 67.7081 57.9207 68.9717 59.4291C71.8542 62.8881 75.5343 65.1625 76.253 69.9167C76.7189 72.9887 76.4346 76.1713 76.7347 79.275C77.0901 82.8998 77.6745 86.4931 78.0141 90.1179C78.3616 93.9007 79.4672 105.336 75.0289 107.192C72.2412 108.361 65.3942 107.421 63.2304 105.186C62.6143 104.481 62.1436 103.661 61.8455 102.773C61.5473 101.885 61.4275 100.947 61.493 100.013C61.6356 98.1488 62.0425 96.3141 62.7012 94.5641C64.0675 90.3627 65.568 86.1851 66.6499 81.889C66.8868 80.8307 67.2027 79.6856 67.5107 78.4931Z" fill="white" stroke="#18216D" stroke-miterlimit="10"/>
<path d="M117.129 94.6588C117.121 94.5929 117.099 94.5294 117.065 94.4723C117.031 94.4153 116.985 94.3659 116.931 94.3273C116.877 94.2888 116.815 94.2618 116.75 94.2482C116.685 94.2346 116.618 94.2346 116.553 94.2482C114.721 92.3607 112.778 90.2442 110.551 88.9017C110.361 88.7833 110.061 89.036 110.219 89.2334C111.116 90.2909 112.084 91.2857 113.117 92.2107C114.191 93.2847 115.266 94.3666 116.324 95.4644C116.6 95.7566 117.248 95.5591 117.192 95.109C117.169 94.9589 117.153 94.8089 117.129 94.6588Z" fill="white"/>
<path d="M123.716 93.1031C117.011 94.2719 110.196 96.6805 104.217 98.8839C102.714 99.509 101.15 99.9774 99.55 100.282C97.8223 100.442 96.0844 100.461 94.3536 100.337C89.7416 100.266 84.8295 101.372 81.5995 104.673C80.4623 105.841 80.1464 108.755 82.0102 109.506C83.8739 110.256 86.8275 108.929 88.9519 109.182C91.0977 109.46 93.2689 109.481 95.4197 109.245C102.032 108.54 108.663 108.171 115.313 108.139C123.052 108.092 130.839 108.495 138.484 107.294C139.941 107.142 141.354 106.699 142.638 105.991C145.796 104.033 146.586 99.1682 144.122 96.5147C141.35 93.5295 136.091 92.5029 132.221 92.4081C129.37 92.3619 126.521 92.5947 123.716 93.1031Z" fill="white" stroke="#18216D" stroke-miterlimit="10"/>
<path d="M149.777 16.2231H43.1633V103.883H149.777V16.2231Z" stroke="#18216D" stroke-miterlimit="10"/>
<path d="M47.5463 11.303H145.409C146.666 11.303 147.871 11.8023 148.76 12.6909C149.649 13.5795 150.148 14.7847 150.148 16.0414V21.9802H42.7842V16.0651C42.7811 15.4389 42.9021 14.8182 43.1403 14.239C43.3785 13.6599 43.7292 13.1336 44.172 12.6908C44.6148 12.248 45.141 11.8973 45.7202 11.6591C46.2994 11.4209 46.9201 11.2999 47.5463 11.303Z" fill="#18216D"/>
<path d="M49.4813 20.1164C51.0951 20.1164 52.4033 18.8082 52.4033 17.1944C52.4033 15.5806 51.0951 14.2724 49.4813 14.2724C47.8675 14.2724 46.5593 15.5806 46.5593 17.1944C46.5593 18.8082 47.8675 20.1164 49.4813 20.1164Z" fill="white"/>
<path d="M63.1674 17.0602C63.1918 17.6358 63.045 18.2057 62.7457 18.6979C62.4463 19.1902 62.0077 19.5826 61.4854 19.8257C60.9631 20.0688 60.3804 20.1516 59.8111 20.0636C59.2417 19.9757 58.7112 19.7209 58.2865 19.3316C57.8619 18.9422 57.5622 18.4357 57.4253 17.8761C57.2884 17.3165 57.3204 16.7289 57.5174 16.1875C57.7143 15.646 58.0673 15.1752 58.5318 14.8343C58.9963 14.4935 59.5514 14.2979 60.1269 14.2724C60.8994 14.2403 61.6532 14.5156 62.2231 15.0382C62.793 15.5607 63.1325 16.2878 63.1674 17.0602Z" fill="white"/>
<path d="M63.1671 17.0602C63.1915 17.6358 63.0448 18.2057 62.7454 18.6979C62.4461 19.1902 62.0075 19.5826 61.4852 19.8257C60.9628 20.0688 60.3802 20.1516 59.8108 20.0636C59.2414 19.9757 58.7109 19.7209 58.2863 19.3316C57.8616 18.9422 57.5619 18.4357 57.425 17.8761C57.2881 17.3165 57.3202 16.7289 57.5171 16.1875C57.7141 15.646 58.0671 15.1752 58.5316 14.8343C58.996 14.4935 59.5511 14.2979 60.1267 14.2724C60.8992 14.2403 61.6529 14.5156 62.2228 15.0382C62.7927 15.5607 63.1323 16.2878 63.1671 17.0602Z" fill="white"/>
<path d="M56.8572 13.6406L63.6488 20.7482" stroke="#18216D" stroke-miterlimit="10"/>
<path d="M56.6992 20.5902L63.8068 13.7907" stroke="#18216D" stroke-miterlimit="10"/>
<path d="M145.828 142.185H22.6304V229.844H145.828V142.185Z" fill="white" stroke="#18216D" stroke-miterlimit="10"/>
<path d="M105.22 187.72C110.172 189.932 116.221 189.861 122.523 185.872C137.046 176.68 132.86 145.596 108.75 151.693C86.1875 157.426 91.3445 181.529 105.22 187.72Z" fill="#005FEC"/>
<path d="M126.866 168.633C124.347 169.478 121.954 170.631 119.404 171.412C117.071 172.117 114.698 172.676 112.296 173.087C112.407 169.928 112.549 166.745 112.722 163.539C112.904 160.23 113.512 156.708 113.204 153.407C113.204 153.193 112.865 153.122 112.809 153.351C112.02 156.463 112.067 159.954 111.854 163.144C111.622 166.661 111.433 170.173 111.285 173.679C111.285 173.755 111.302 173.83 111.336 173.899C111.37 173.967 111.418 174.027 111.479 174.073C111.539 174.12 111.609 174.152 111.684 174.167C111.758 174.182 111.835 174.18 111.909 174.161C117.011 173.371 122.744 172.147 127.222 169.478C127.656 169.217 127.38 168.459 126.866 168.633Z" fill="#18216D"/>
<path d="M113.394 187.626C113.335 187.358 113.371 187.079 113.497 186.836C113.615 186.615 113.37 186.315 113.141 186.473C112.959 186.59 112.81 186.752 112.706 186.942C112.603 187.132 112.548 187.346 112.549 187.562C112.549 187.941 112.754 188.557 113.236 188.51C113.297 188.507 113.356 188.485 113.405 188.447C113.453 188.409 113.488 188.356 113.504 188.297C113.623 188.076 113.441 187.87 113.394 187.626Z" fill="#18216D"/>
<path d="M97.2832 169.817C97.0384 169.336 96.7383 169.675 96.4224 169.817C96.0318 169.909 95.6309 169.948 95.23 169.936C94.7877 169.975 94.3455 170.03 93.9032 170.109C93.6268 170.165 93.611 170.646 93.9032 170.686C94.7287 170.836 95.5695 170.884 96.4066 170.828C96.8489 170.757 97.5675 170.37 97.2832 169.817Z" fill="#18216D"/>
<path d="M113.623 151.259C113.577 151.215 113.519 151.187 113.457 151.179C113.394 151.17 113.331 151.182 113.275 151.211C113.066 151.345 112.911 151.548 112.837 151.785C112.763 152.022 112.776 152.278 112.873 152.506C112.894 152.586 112.935 152.659 112.994 152.717C113.052 152.775 113.125 152.817 113.204 152.838C113.275 152.853 113.348 152.852 113.418 152.837C113.489 152.821 113.555 152.791 113.612 152.747C113.67 152.704 113.718 152.649 113.752 152.585C113.787 152.522 113.807 152.452 113.812 152.38C113.87 152.191 113.883 151.992 113.85 151.797C113.817 151.602 113.739 151.418 113.623 151.259Z" fill="#18216D"/>
<path d="M98.1283 159.377C97.7509 159.258 97.3656 159.166 96.9753 159.101C96.691 159.045 96.4698 159.44 96.762 159.598C97.0952 159.773 97.438 159.928 97.7887 160.064C98.073 160.167 98.4284 160.348 98.7048 160.135C98.745 160.108 98.7763 160.069 98.7946 160.024C98.8128 159.979 98.8173 159.93 98.8074 159.882C98.7285 159.559 98.4126 159.48 98.1283 159.377Z" fill="#18216D"/>
<path d="M102.732 156.289C102.487 156.068 102.235 155.879 101.943 155.665C101.65 155.452 101.516 155.223 101.271 155.049C101.225 155.023 101.173 155.01 101.12 155.013C101.067 155.017 101.016 155.035 100.974 155.068C100.931 155.1 100.9 155.144 100.882 155.194C100.865 155.244 100.863 155.298 100.876 155.349C101.027 155.678 101.246 155.971 101.518 156.209C101.791 156.447 102.11 156.625 102.456 156.731C102.513 156.75 102.575 156.749 102.631 156.729C102.688 156.708 102.736 156.67 102.768 156.619C102.799 156.568 102.813 156.508 102.807 156.448C102.8 156.388 102.774 156.332 102.732 156.289Z" fill="#18216D"/>
<path d="M100.15 181.031C99.6319 181.397 99.1646 181.83 98.7602 182.319C98.5706 182.563 98.8154 182.998 99.1234 182.792C99.6419 182.424 100.109 181.989 100.513 181.497C100.711 181.268 100.442 180.818 100.15 181.031Z" fill="#18216D"/>
<path d="M104.936 184.704C104.77 184.988 104.596 185.272 104.422 185.557C104.249 185.841 104.114 186.007 104.217 186.346C104.243 186.428 104.299 186.498 104.373 186.54C104.448 186.583 104.536 186.595 104.62 186.575C104.944 186.488 105.023 186.291 105.165 185.999L105.607 185.106C105.633 185.062 105.651 185.013 105.659 184.963C105.666 184.912 105.664 184.86 105.651 184.81C105.639 184.76 105.616 184.713 105.586 184.672C105.555 184.631 105.517 184.596 105.473 184.569C105.429 184.543 105.38 184.525 105.329 184.518C105.278 184.51 105.226 184.513 105.176 184.525C105.127 184.538 105.08 184.56 105.038 184.59C104.997 184.621 104.962 184.66 104.936 184.704Z" fill="#18216D"/>
<path d="M121.591 185.43C121.433 185.375 121.173 185.312 121.149 185.098C121.144 185.023 121.114 184.951 121.062 184.896C121.01 184.841 120.941 184.806 120.866 184.796C120.791 184.787 120.715 184.804 120.651 184.845C120.587 184.886 120.54 184.947 120.517 185.019C120.459 185.179 120.444 185.35 120.473 185.517C120.502 185.684 120.575 185.84 120.684 185.97C120.793 186.1 120.934 186.198 121.093 186.256C121.253 186.314 121.424 186.329 121.591 186.299C122.073 186.212 121.962 185.572 121.591 185.43Z" fill="#18216D"/>
<path d="M102.614 237.718C104.091 239.558 106.926 239.25 109.208 238.682C111.491 238.113 114.199 237.536 115.953 239.108C116.696 231.188 114.686 223.254 110.261 216.643C105.835 210.033 99.2662 205.151 91.6606 202.82C85.3427 200.877 79.4909 201.627 73.0467 202.03C65.5443 202.512 58.2709 205.15 51.803 208.909C42.0578 214.579 29.43 223.606 26.0579 234.78" fill="#18216D"/>
<path d="M65.1099 219.649C64.3548 219.131 63.6746 218.512 63.0882 217.809C62.5707 217.047 62.2142 216.188 62.0403 215.283C61.8665 214.379 61.8791 213.449 62.0773 212.549C62.4818 210.757 63.061 209.009 63.8068 207.329C67.4948 197.671 66.792 187.073 70.3932 177.32C71.0328 175.598 71.7357 173.371 72.9045 171.942C74.1482 170.652 75.5585 169.534 77.0979 168.617C82.6971 164.826 90.6102 162.157 96.2094 167.424C99.2261 170.267 99.8658 174.808 99.7631 178.954C99.6351 184.727 98.4437 190.427 96.2488 195.768C95.7329 197.004 94.9639 198.118 93.9915 199.039C93.019 199.959 91.8645 200.666 90.6023 201.114C88.3753 201.904 87.3881 201.667 86.3614 203.823C85.2063 206.591 84.7925 209.612 85.1611 212.589C85.4491 213.886 85.6 215.209 85.6112 216.538C84.9794 223.779 76.553 223.953 71.2066 222.666C69.0163 222.018 66.9539 220.997 65.1099 219.649Z" fill="white" stroke="#18216D" stroke-miterlimit="10"/>
<path d="M119.238 193.904C119.724 192.801 120.428 191.807 121.307 190.982C123.109 189.451 125.09 188.144 127.206 187.089C127.312 187.014 127.431 186.962 127.557 186.934C127.683 186.907 127.814 186.906 127.941 186.931C128.072 186.995 128.177 187.105 128.236 187.239C128.296 187.373 128.305 187.524 128.264 187.665C128.18 187.945 128.028 188.2 127.822 188.407L126.377 190.129C124.655 192.182 128.659 190.919 129.299 190.674C131.102 190.021 132.768 189.038 134.211 187.776C134.706 187.316 135.234 186.894 135.791 186.512C136.514 186.025 137.39 185.818 138.254 185.928C138.853 186.078 139.387 186.417 139.779 186.893C140.171 187.369 140.401 187.957 140.434 188.573C140.568 191.306 138.16 194.323 136.201 195.681C134.018 197.204 131.562 198.292 128.967 198.887C128.738 198.935 128.526 199.045 128.354 199.205C128.183 199.365 128.059 199.569 127.996 199.795L121.07 224.861C120.362 227.503 119.505 230.103 118.503 232.648C117.374 235.491 115.771 238.295 112.652 239.219C111.553 239.53 110.394 239.559 109.282 239.3C108.17 239.042 107.142 238.506 106.294 237.742C100.845 232.822 106.665 222.871 108.703 217.675C110.625 212.81 112.675 208.001 114.855 203.246C115.945 200.872 117.071 198.503 118.235 196.139C118.598 195.341 118.898 194.591 119.238 193.904Z" fill="white" stroke="#18216D" stroke-miterlimit="10"/>
<path d="M67.5106 169.075C68.3325 168.178 69.2053 167.329 70.1246 166.532C68.6162 165.497 67.2026 163.752 67.7554 162.007C68.0858 161.158 68.6996 160.449 69.4928 160.001C70.4994 159.352 71.6293 158.918 72.8117 158.726C73.9941 158.534 75.2033 158.589 76.3634 158.887C78.4287 159.521 80.304 160.658 81.8204 162.196C82.0376 162.435 82.3082 162.619 82.6102 162.733C82.8477 162.777 83.0912 162.777 83.3288 162.733L90.768 162.015C92.7003 161.761 94.6543 161.716 96.5962 161.88C99.613 162.244 102.875 163.776 103.151 167.116C103.427 170.457 100.987 173.434 98.0967 174.864C95.0089 176.348 91.463 176.443 88.0435 176.483C84.624 176.522 81.086 176.562 77.9587 177.959C76.5556 178.486 75.4062 179.529 74.7445 180.873C74.4207 181.663 74.2943 182.737 73.5046 183.132C72.2963 183.748 72.1542 183.835 71.6882 185.154C71.1512 186.686 70.5352 188.202 69.8797 189.695C69.2243 191.187 67.2342 194.433 65.2203 192.79C63.7199 191.574 63.8778 186.473 63.7909 184.648C63.5698 180.431 63.7041 174.769 66.0022 171.065C66.4466 170.359 66.9513 169.693 67.5106 169.075Z" fill="#18216D"/>
<path d="M91.7395 193.067C91.5044 193.162 91.2516 193.206 90.9981 193.195C90.7447 193.184 90.4966 193.119 90.2706 193.004C89.9468 192.861 89.4808 193.177 89.7414 193.541C90.0244 193.942 90.4488 194.221 90.9294 194.323C91.41 194.424 91.9111 194.339 92.3318 194.086C93.003 193.699 92.4186 192.759 91.7395 193.067Z" fill="#18216D"/>
<path d="M86.6694 183.685C86.006 183.266 84.5371 184.348 85.8165 184.917C86.3377 185.146 87.1117 184.617 86.9221 184.024C86.884 183.883 86.7937 183.762 86.6694 183.685Z" fill="#18216D"/>
<path d="M97.6781 183.393C97.5294 183.276 97.3459 183.213 97.1569 183.213C96.968 183.213 96.7844 183.276 96.6357 183.393C96.5354 183.497 96.4742 183.632 96.4627 183.776C96.4512 183.92 96.49 184.064 96.5725 184.182C96.5963 184.277 96.6335 184.367 96.6831 184.451C96.7469 184.552 96.8467 184.626 96.9624 184.656C97.0782 184.687 97.2013 184.673 97.307 184.617C97.4489 184.548 97.5744 184.45 97.6752 184.329C97.776 184.207 97.8497 184.066 97.8914 183.914C97.915 183.816 97.9071 183.712 97.8689 183.619C97.8306 183.525 97.7639 183.446 97.6781 183.393Z" fill="#18216D"/>
<path d="M93.09 184.522C92.9952 184.238 92.4898 184.159 92.4345 184.522C92.3015 185.529 92.101 186.527 91.8343 187.507C91.6527 188.163 91.2736 189.031 91.6843 189.663C92.016 190.169 92.9636 189.853 92.7188 189.229C92.474 188.605 93.0426 187.294 93.1611 186.615C93.3117 185.922 93.2872 185.203 93.09 184.522Z" fill="#18216D"/>
<path d="M70.63 183.558C70.0439 183.621 69.4836 183.833 69.0032 184.174C68.4198 184.492 67.9276 184.955 67.5738 185.517C67.1063 186.263 66.8703 187.131 66.8956 188.01C66.9209 188.89 67.2064 189.743 67.7159 190.461C68.2201 191.103 68.9531 191.524 69.7613 191.638C70.5695 191.751 71.3903 191.547 72.0515 191.069C74.7287 189.166 75.0525 183.116 70.63 183.558Z" fill="white"/>
<path d="M71.2775 186.18C71.0141 186.203 70.7594 186.285 70.5334 186.422C70.3073 186.559 70.116 186.747 69.9744 186.97C69.8018 187.192 69.6947 187.457 69.6654 187.736C69.6361 188.015 69.6857 188.297 69.8086 188.55C69.8492 188.628 69.919 188.688 70.0031 188.716C70.0872 188.744 70.179 188.738 70.2587 188.7C70.472 188.589 70.4246 188.289 70.4404 188.084C70.4437 187.802 70.5333 187.529 70.6972 187.3C70.861 187.071 71.0911 186.898 71.3565 186.804C71.6724 186.678 71.625 186.141 71.2775 186.18Z" fill="#18216D"/>
<path d="M74.9263 198.137C73.2757 196.992 71.183 194.496 71.3567 192.198L71.1356 192.135C70.4192 191.968 69.7229 191.724 69.0586 191.408C69.1534 191.456 69.0586 194.899 69.1297 195.278C69.2818 196.648 69.5702 198 69.9905 199.314C70.4959 200.893 71.7595 205.497 74.2392 204.052C75.4396 203.357 76.6084 202.63 77.7851 201.888C78.409 201.493 79.0171 201.098 79.6409 200.696L79.8463 200.577C78.1143 199.964 76.4625 199.145 74.9263 198.137Z" fill="#18216D"/>
<path d="M125.982 190.887C125.958 190.836 125.917 190.795 125.866 190.772C125.815 190.749 125.757 190.744 125.703 190.759C125.649 190.774 125.602 190.808 125.571 190.855C125.539 190.902 125.526 190.958 125.532 191.014C125.615 191.566 125.588 192.13 125.453 192.672C125.317 193.214 125.076 193.724 124.742 194.172C124.553 194.449 124.955 194.717 125.184 194.512C125.665 194.057 125.999 193.469 126.141 192.822C126.283 192.176 126.228 191.502 125.982 190.887Z" fill="#18216D"/>
<path d="M128.067 195.823C127.04 195.582 125.961 195.69 125.003 196.131C124.192 196.433 123.518 197.02 123.108 197.782C123.089 197.829 123.088 197.881 123.104 197.929C123.121 197.977 123.154 198.018 123.198 198.043C123.242 198.069 123.293 198.078 123.343 198.069C123.393 198.06 123.439 198.034 123.471 197.995C124.037 197.247 124.868 196.745 125.793 196.589C126.579 196.548 127.358 196.415 128.114 196.194C128.288 196.107 128.217 195.886 128.067 195.823Z" fill="#18216D"/>
<path d="M145.828 142.185H22.6304V229.844H145.828V142.185Z" stroke="#18216D" stroke-miterlimit="10"/>
<path d="M27.0133 134.501H141.461C142.717 134.501 143.923 135 144.811 135.888C145.7 136.777 146.199 137.982 146.199 139.239V145.178H22.2512V139.239C22.2512 138.615 22.3746 137.997 22.6142 137.42C22.8538 136.844 23.2049 136.32 23.6474 135.88C24.0899 135.44 24.6151 135.091 25.1927 134.854C25.7703 134.618 26.389 134.497 27.0133 134.501Z" fill="#18216D"/>
<path d="M28.9484 143.314C30.5621 143.314 31.8704 142.006 31.8704 140.392C31.8704 138.778 30.5621 137.47 28.9484 137.47C27.3346 137.47 26.0264 138.778 26.0264 140.392C26.0264 142.006 27.3346 143.314 28.9484 143.314Z" fill="white"/>
<path d="M42.6344 140.258C42.6588 140.833 42.5121 141.403 42.2127 141.895C41.9133 142.388 41.4748 142.78 40.9525 143.023C40.4301 143.266 39.8475 143.349 39.2781 143.261C38.7087 143.173 38.1782 142.918 37.7536 142.529C37.3289 142.14 37.0292 141.633 36.8923 141.074C36.7554 140.514 36.7875 139.926 36.9844 139.385C37.1814 138.844 37.5344 138.373 37.9989 138.032C38.4633 137.691 39.0184 137.495 39.594 137.47C40.3665 137.438 41.1202 137.713 41.6901 138.236C42.26 138.758 42.5996 139.485 42.6344 140.258Z" fill="white"/>
<path d="M42.6344 140.258C42.6588 140.833 42.5121 141.403 42.2127 141.895C41.9133 142.388 41.4748 142.78 40.9525 143.023C40.4301 143.266 39.8475 143.349 39.2781 143.261C38.7087 143.173 38.1782 142.918 37.7536 142.529C37.3289 142.14 37.0292 141.633 36.8923 141.074C36.7554 140.514 36.7875 139.926 36.9844 139.385C37.1814 138.844 37.5344 138.373 37.9989 138.032C38.4633 137.691 39.0184 137.495 39.594 137.47C40.3665 137.438 41.1202 137.713 41.6901 138.236C42.26 138.758 42.5996 139.485 42.6344 140.258Z" fill="white"/>
<path d="M36.3245 136.838L43.1161 143.946" stroke="#18216D" stroke-miterlimit="10"/>
<path d="M36.1665 143.788L43.2741 136.988" stroke="#18216D" stroke-miterlimit="10"/>
<path d="M133.674 130.307L143.309 118.43L147.1 130.307L155.431 118.035L159.34 130.307L167.53 118.232L171.384 130.307L179.242 118.73" stroke="#18216D" stroke-miterlimit="10"/>
<path d="M1 222.705L10.6347 210.828L14.4254 222.705L22.757 210.433L26.6662 222.705L34.8635 210.63L38.7095 222.705" stroke="#00ECD0" stroke-width="2" stroke-miterlimit="10"/>
<path d="M59.3608 277.268C59.5749 276.66 59.9344 276.113 60.4081 275.677C60.8818 275.24 61.4552 274.925 62.0783 274.761C62.7015 274.596 63.3554 274.587 63.9829 274.734C64.6105 274.88 65.1927 275.178 65.6787 275.601L65.9235 275.807C66.4296 276.24 67.0373 276.539 67.6899 276.674C68.3426 276.81 69.0189 276.778 69.6559 276.582C70.2929 276.386 70.8699 276.031 71.333 275.552C71.7961 275.072 72.1303 274.484 72.3045 273.84L73.5601 269.039C73.7333 268.395 74.0668 267.805 74.5295 267.325C74.9922 266.844 75.5691 266.489 76.2062 266.292C76.8433 266.095 77.52 266.062 78.1731 266.197C78.8262 266.332 79.4345 266.631 79.9412 267.064L80.0912 267.199C80.5973 267.632 81.205 267.931 81.8576 268.066C82.5103 268.202 83.1866 268.17 83.8236 267.974C84.4606 267.778 85.0376 267.423 85.5007 266.944C85.9638 266.464 86.298 265.876 86.4722 265.232L87.6568 260.707C87.83 260.063 88.1635 259.473 88.6262 258.993C89.0889 258.513 89.6657 258.157 90.3028 257.96C90.94 257.763 91.6167 257.73 92.2698 257.866C92.9229 258.001 93.5311 258.299 94.0378 258.733C94.5439 259.166 95.1516 259.465 95.8042 259.601C96.4569 259.736 97.1332 259.704 97.7702 259.508C98.4072 259.312 98.9842 258.957 99.4473 258.478C99.9104 257.998 100.245 257.41 100.419 256.766" stroke="#18216D" stroke-miterlimit="10"/>
<path d="M126.788 1.24982C127.388 1.02553 128.034 0.950674 128.669 1.0317C129.305 1.11273 129.911 1.34722 130.436 1.71492C130.961 2.08261 131.388 2.57248 131.681 3.14224C131.974 3.71199 132.124 4.34452 132.118 4.98523V5.30902C132.113 5.9752 132.277 6.6318 132.594 7.2177C132.911 7.8036 133.371 8.29975 133.932 8.65997C134.492 9.02018 135.135 9.23275 135.799 9.27787C136.464 9.323 137.129 9.19923 137.733 8.91808L142.219 6.77791C142.823 6.49676 143.488 6.37299 144.153 6.41811C144.817 6.46324 145.46 6.67581 146.02 7.03602C146.581 7.39623 147.041 7.89238 147.358 8.47828C147.675 9.06418 147.839 9.72079 147.834 10.387V10.6002C147.829 11.2664 147.993 11.923 148.31 12.5089C148.627 13.0948 149.087 13.5909 149.647 13.9511C150.208 14.3114 150.85 14.5239 151.515 14.569C152.18 14.6142 152.845 14.4904 153.449 14.2093L157.674 12.1954C158.278 11.9125 158.944 11.7873 159.61 11.8316C160.276 11.8758 160.92 12.0881 161.481 12.4485C162.043 12.8089 162.504 13.3058 162.821 13.8926C163.139 14.4795 163.302 15.1373 163.297 15.8045V15.8045C163.292 16.4696 163.456 17.1251 163.773 17.71C164.09 18.2949 164.549 18.7904 165.108 19.1504C165.667 19.5104 166.309 19.7233 166.972 19.7693C167.636 19.8153 168.3 19.6929 168.904 19.4136" stroke="#18216D" stroke-miterlimit="10"/>
<path d="M169.694 190.011C168.478 188.594 167.553 186.952 166.972 185.177C166.39 183.403 166.164 181.532 166.306 179.67C166.448 177.809 166.955 175.994 167.799 174.328C168.642 172.662 169.805 171.179 171.222 169.963C174.083 167.508 177.803 166.289 181.562 166.575C185.322 166.862 188.813 168.63 191.269 171.491" stroke="#00ECD0" stroke-width="2" stroke-miterlimit="10"/>
<path d="M287.189 23.3306C291.333 23.3306 294.692 19.9717 294.692 15.8282C294.692 11.6847 291.333 8.32578 287.189 8.32578C283.046 8.32578 279.687 11.6847 279.687 15.8282C279.687 19.9717 283.046 23.3306 287.189 23.3306Z" fill="#005FEC"/>
<path d="M308.173 218.844C310.394 218.844 312.593 219.281 314.645 220.131C316.697 220.982 318.561 222.228 320.131 223.799C321.701 225.369 322.947 227.234 323.796 229.287C324.645 231.339 325.082 233.538 325.081 235.759" fill="white"/>
<path d="M308.173 218.844C310.394 218.844 312.593 219.281 314.645 220.131C316.697 220.982 318.561 222.228 320.131 223.799C321.701 225.369 322.947 227.234 323.796 229.287C324.645 231.339 325.082 233.538 325.081 235.759" stroke="#18216D" stroke-miterlimit="10"/>
<path d="M318.384 2.79769L294.692 26.4895" stroke="#18216D" stroke-miterlimit="10"/>
<rect x="43.3372" y="104.27" width="102.665" height="13.4254" fill="white"/>
<rect x="24.3838" y="230.231" width="97.9263" height="16.5843" fill="white"/>
<rect x="179.17" y="134.674" width="128.726" height="24.4816" fill="white"/>
<path d="M287.987 151.661L302.384 139.792L306.167 151.661L318.842 139.397L322.751 151.661L335.221 139.594L339.067 151.661L351.023 140.084" stroke="#00ECD0" stroke-width="2" stroke-miterlimit="10"/>
<path d="M222.432 147.713L198.74 171.405" stroke="#18216D" stroke-miterlimit="10"/>
<path d="M216.114 158.769L192.422 182.461" stroke="#18216D" stroke-miterlimit="10"/>
</svg>
