<?xml version="1.0" encoding="UTF-8"?>
<svg width="81px" height="72px" viewBox="0 0 81 72" version="1.1" xmlns="http://www.w3.org/2000/svg" xmlns:xlink="http://www.w3.org/1999/xlink">
    <!-- Generator: Sketch 61 (89581) - https://sketch.com -->
    <title>tax-header-logo-bordered</title>
    <desc>Created with Sketch.</desc>
    <g id="Page-1" stroke="none" stroke-width="1" fill="none" fill-rule="evenodd">
        <g id="tax-header-logo-bordered" transform="translate(1.000000, 1.000000)" fill-rule="nonzero">
            <path d="M51.3457,34.4685 C52.8648,27.9035 48.7785,21.3491 42.2186,19.8288 C35.6588,18.3085 29.1095,22.398 27.5904,28.963 C26.0713,35.528 30.1576,42.0824 36.7175,43.6027 C43.2773,45.123 49.8266,41.0334 51.3457,34.4685 Z" id="Path" fill="#FFFFFF"></path>
            <path d="M7.12495,1.00511 C7.78779,2.80853 9.98577,7.10742 17.1794,14.4015 C20.7519,18.0255 25.8279,21.4629 30.0574,24.0187 C32.2899,21.282 35.6901,19.5332 39.4979,19.5332 C43.3085,19.5332 46.7059,21.2849 48.9412,24.0245 C53.1736,21.4658 58.2525,18.0284 61.8278,14.4044 C71.7244,4.37072 72.1663,0.00289917 72.1663,0.00289917 L6.84375,0.00289917 L7.12495,1.00511 Z" id="Path" fill="#D5B9A7"></path>
            <path d="M31.7193,10.3755 C32.5782,10.3755 33.2745,9.67863 33.2745,8.81902 C33.2745,7.95942 32.5782,7.26257 31.7193,7.26257 C30.8604,7.26257 30.1641,7.95942 30.1641,8.81902 C30.1641,9.67863 30.8604,10.3755 31.7193,10.3755 Z" id="Path" fill="#FFFFFF"></path>
            <path d="M47.2812,7.26826 C48.1363,7.33431 48.7762,8.08095 48.7102,8.93671 C48.6442,9.79247 47.8981,10.4329 47.043,10.3668 C46.1879,10.3008 45.5481,9.55412 45.6141,8.69836 C45.6801,7.8426 46.4261,7.20221 47.2812,7.26826 Z" id="Path" fill="#FFFFFF"></path>
            <path d="M53.2703,7.6617 C53.9101,7.71052 54.3865,8.2705 54.3377,8.90801 C54.2889,9.54839 53.7294,10.0251 53.0923,9.97627 C52.4525,9.92746 51.9761,9.37035 52.0249,8.72997 C52.0737,8.08958 52.6304,7.61288 53.2703,7.6617 Z" id="Path" fill="#FFFFFF"></path>
            <path d="M25.948,7.6617 C26.5879,7.71052 27.0642,8.2705 27.0154,8.90801 C26.9666,9.54839 26.4071,10.0251 25.7701,9.97627 C25.1302,9.92746 24.6539,9.37035 24.7027,8.72997 C24.7514,8.08958 25.311,7.61288 25.948,7.6617 Z" id="Path" fill="#FFFFFF"></path>
            <polygon id="Path" fill="#FFFFFF" points="38.6247 7.09025 39.4224 5.95306 40.1598 7.13045 41.5286 6.8921 41.2158 8.24753 42.3521 9.04586 41.1756 9.78388 41.4138 11.1508 40.0623 10.8407 39.2617 11.9778 38.5243 10.8005 37.1584 11.0388 37.4683 9.68625 36.332 8.88505 37.5085 8.14703 37.2703 6.78011"></polygon>
            <path d="M73.1949,28.1941 C76.0672,26.1954 78.2681,23.6109 78.8505,20.0587 C79.3441,17.0635 78.512,13.4079 78.512,13.4079 C78.512,13.4079 75.2666,19.0363 65.3987,24.0733 C62.1705,25.7216 58.3886,26.8186 56.0443,27.4044 C55.9381,27.0857 55.8262,26.7755 55.7143,26.4826 C57.2696,25.9456 59.4761,25.1588 61.611,24.3059 C63.7832,23.4386 71.2953,19.2776 73.6971,14.8724 C76.0184,10.6166 75.6913,6.8949 75.1978,4.7957 C74.4861,1.7747 72.1648,0 72.1648,0 C72.1648,0 71.7229,4.36782 61.8262,14.4015 C58.2509,18.0255 53.172,21.4658 48.9396,24.0216 C50.6498,26.1208 51.677,28.8001 51.677,31.7205 C51.677,36.6885 48.7072,40.9559 44.4489,42.854 C44.1591,42.7306 43.855,42.5985 43.5652,42.4606 C41.4848,41.4814 40.6441,39.1295 40.9023,37.6707 C41.4016,34.8277 43.0687,33.6876 46.3973,34.2419 C46.3973,34.2419 46.3944,31.9704 41.2954,28.7627 C39.4619,27.6083 36.9196,25.8652 36.6068,24.7883 C36.1075,25.3426 35.6541,26.2758 35.6455,27.4705 C35.6398,28.4669 36.1391,29.7822 36.9597,30.1756 C37.7861,30.569 38.1161,30.5834 39.0056,30.8562 C35.0286,32.8836 32.3313,37.2973 33.4562,42.3084 C29.7862,40.2092 27.3156,36.2549 27.3156,31.7234 C27.3156,28.8 28.3457,26.1208 30.0587,24.0187 C25.8263,21.4629 20.7532,18.0255 17.1807,14.4015 C7.28408,4.36782 6.84219,0 6.84219,0 C6.84219,0 4.52082,1.7747 3.8092,4.7957 C3.31566,6.8949 2.98854,10.6166 5.30991,14.8724 C7.71163,19.2747 15.2267,23.4358 17.396,24.3059 C19.5308,25.1588 21.7403,25.9456 23.2926,26.4826 C23.1779,26.7784 23.0688,27.0857 22.9626,27.4044 C20.6183,26.8186 16.8364,25.7216 13.6083,24.0733 C3.74033,19.0363 0.49501,13.4079 0.49501,13.4079 C0.49501,13.4079 -0.337125,17.0635 0.156417,20.0587 C0.738912,23.6109 2.94263,26.1954 5.81206,28.1941 C9.11478,30.4943 16.2051,32.7113 19.6312,33.1765 C20.5122,33.2971 21.2353,33.3804 21.8292,33.4378 C21.812,33.7652 21.8034,34.0983 21.7977,34.4371 C19.6112,34.2447 16.8708,33.8083 14.3314,33.1363 C4.08467,30.4312 0.165025,25.5206 0.165025,25.5206 C0.165025,25.5206 0.04451,29.0872 1.0402,31.7981 C2.22241,35.0144 4.59256,36.8149 7.63415,38.1675 C11.1349,39.7239 18.3371,40.2753 21.6198,40.0944 C21.8665,40.08 22.1449,40.0685 22.3658,40.0599 C22.4318,40.3643 22.4634,40.6888 22.5408,40.9817 C21.4045,41.0104 20.0416,41.1454 18.8794,41.1253 C16.4663,41.0822 11.4189,40.5854 8.89383,40.0628 C4.91393,39.2386 2.0072,36.8034 2.0072,36.8034 C2.0072,36.8034 3.16071,40.9587 4.29414,42.7995 C5.35869,44.5282 6.6815,45.7286 8.42898,46.5326 C10.0445,47.2764 12.5122,47.4889 15.8608,47.2247 C17.9182,47.0639 22.8192,46.3201 24.6843,46.0301 C24.8708,46.346 25.0602,46.6504 25.2525,46.9376 C24.0473,47.2822 20.9368,48.1035 17.1492,48.5974 C12.2195,49.2406 8.38021,48.5888 8.38021,48.5888 C8.38021,48.5888 10.2052,50.9636 11.5595,52.1468 C13.2267,53.6056 14.5409,54.134 17.7862,54.0134 C21.6226,53.8698 26.2711,51.4116 28.1908,50.5099 C28.4289,50.7397 28.6958,50.9895 28.9856,51.2566 C27.8636,51.9745 24.9971,53.5338 23.3185,54.2201 C19.9211,55.6072 15.7546,56.0925 15.7546,56.0925 C15.7546,56.0925 18.2826,59.2743 22.1477,59.326 C26.1506,59.3805 28.3974,57.5972 29.5681,56.796 C30.2883,56.305 31.4762,55.0903 32.2854,54.223 C32.5465,54.4527 32.8077,54.6853 33.0688,54.9151 C32.3199,56.0523 30.8622,57.9562 28.8048,59.2025 C25.1291,61.4338 23.4332,61.3505 23.4332,61.3505 C23.4332,61.3505 27.0745,64.2078 30.0989,63.5588 C32.9397,62.95 35.3127,59.5011 36.3256,57.8069 C36.6097,58.0624 36.8765,58.3037 37.1262,58.5305 C36.9138,59.0359 36.6211,59.6533 36.2366,60.3023 C33.7718,64.4749 31.2754,65.9021 31.2754,65.9021 C31.2754,65.9021 32.4031,67.3265 36.7359,69.0811 C37.7718,69.5003 38.6957,69.7817 39.4561,69.977 L39.4561,70 C39.4705,69.9971 39.4848,69.9914 39.4992,69.9885 C39.5135,69.9914 39.5279,69.9971 39.5422,70 L39.5422,69.977 C40.3026,69.7817 41.2266,69.5003 42.2624,69.0811 C46.5953,67.3265 47.723,65.9021 47.723,65.9021 C47.723,65.9021 45.2266,64.4749 42.7617,60.3023 C42.3772,59.6533 42.0874,59.0359 41.8722,58.5305 C42.1218,58.3037 42.3887,58.0596 42.6728,57.8069 C43.6857,59.5011 46.0616,62.95 48.8994,63.5588 C51.9238,64.2078 55.5651,61.3505 55.5651,61.3505 C55.5651,61.3505 53.8722,61.4338 50.1935,59.2025 C48.1362,57.9533 46.6756,56.0494 45.9296,54.9151 C46.1907,54.6853 46.4518,54.4527 46.7129,54.223 C47.5221,55.0903 48.71,56.305 49.4303,56.796 C50.601,57.5944 52.8506,59.3805 56.8506,59.326 C60.7129,59.2743 63.2437,56.0925 63.2437,56.0925 C63.2437,56.0925 59.0773,55.6072 55.6799,54.2201 C54.0013,53.5338 51.1347,51.9745 50.0128,51.2566 C50.3026,50.9895 50.5694,50.7397 50.8076,50.5099 C52.7272,51.4116 57.3757,53.8698 61.2122,54.0134 C64.4546,54.134 65.7688,53.6056 67.436,52.1468 C68.7875,50.9636 70.6153,48.5888 70.6153,48.5888 C70.6153,48.5888 66.776,49.2406 61.8463,48.5974 C58.0586,48.1035 54.9482,47.2793 53.743,46.9376 C53.9353,46.6475 54.1218,46.3431 54.3112,46.0301 C56.1763,46.3173 61.0773,47.061 63.1347,47.2247 C66.4833,47.4889 68.951,47.2764 70.5665,46.5326 C72.314,45.7286 73.6368,44.5282 74.7014,42.7995 C75.8348,40.9587 76.9883,36.8034 76.9883,36.8034 C76.9883,36.8034 74.0844,39.2386 70.1016,40.0628 C67.5737,40.5854 62.5292,41.0822 60.116,41.1253 C58.9539,41.1454 57.5909,41.0104 56.4546,40.9817 C56.535,40.6888 56.5637,40.3643 56.6297,40.0599 C56.8506,40.0714 57.1261,40.0829 57.3757,40.0944 C60.6584,40.2753 67.8606,39.7239 71.3613,38.1675 C74.4029,36.8149 76.7731,35.0115 77.9553,31.7981 C78.951,29.0872 78.8305,25.5206 78.8305,25.5206 C78.8305,25.5206 74.9108,30.4312 64.6641,33.1363 C62.1246,33.8054 59.3843,34.2419 57.1978,34.4371 C57.1921,34.0983 57.1835,33.7623 57.1663,33.4378 C57.7602,33.3804 58.4833,33.2971 59.3642,33.1765 C62.7989,32.7113 69.8893,30.4943 73.1949,28.1941 Z" id="Path" stroke="#FFFFFF" stroke-width="0.2" fill="#001F60"></path>
        </g>
    </g>
</svg>