<svg width="58" height="56" viewBox="0 0 58 56" fill="none" xmlns="http://www.w3.org/2000/svg">
<path d="M28.6129 56C44.4154 56 57.2258 43.464 57.2258 28C57.2258 12.536 44.4154 0 28.6129 0C12.8104 0 0 12.536 0 28C0 43.464 12.8104 56 28.6129 56Z" fill="#10A0E8"/>
<path d="M10.9944 24.5836C11.8634 22.9321 13.0457 21.6664 14.5362 20.7764C16.0268 19.8864 17.6941 19.4414 19.5383 19.4414C21.1451 19.4414 22.5547 19.7578 23.7623 20.3957C24.9699 21.0285 25.9349 21.8295 26.6625 22.7937V19.7875H32.1496V40.8852H26.6625V37.7999C25.9602 38.7887 24.9951 39.6095 23.7623 40.2572C22.5295 40.9049 21.1097 41.2263 19.503 41.2263C17.6891 41.2263 16.0318 40.7714 14.5413 39.8567C13.0508 38.942 11.8685 37.6565 10.9994 35.9902C10.1304 34.3289 9.69584 32.4154 9.69584 30.2597C9.69079 28.1287 10.1253 26.235 10.9944 24.5836ZM25.8793 27.0014C25.3589 26.0768 24.6617 25.3648 23.7775 24.8703C22.8932 24.3759 21.9484 24.1287 20.9379 24.1287C19.9274 24.1287 18.9926 24.3709 18.1387 24.8506C17.2849 25.3351 16.5876 26.0372 16.0571 26.9667C15.5265 27.8913 15.2588 28.989 15.2588 30.2597C15.2588 31.5304 15.5265 32.6379 16.0571 33.5922C16.5876 34.5465 17.2899 35.2733 18.159 35.7826C19.028 36.2918 19.9526 36.544 20.9429 36.544C21.9535 36.544 22.9034 36.2968 23.7825 35.8024C24.6667 35.3079 25.364 34.5959 25.8844 33.6713C26.4048 32.7467 26.6625 31.6342 26.6625 30.3388C26.6575 29.0384 26.3947 27.9309 25.8793 27.0014Z" fill="#FBFBFB"/>
<path d="M43.892 12.707V40.885H38.4453V12.707H43.892V12.707Z" fill="#FBFBFB"/>
</svg>
