<svg xmlns="http://www.w3.org/2000/svg" id="Layer_1" x="0" y="0" enable-background="new 0 0 64 64" version="1.1" viewBox="0 0 64 64" xml:space="preserve"><path fill="#1d75b9" d="M42.9,30.4c-0.4-0.6-0.7-1.2-1.1-1.9c0.2,0,0.3-0.2,0.4-0.3c0.1-0.2,0.2-0.5,0.3-0.7l0-0.1   c0.2-0.5,0.3-1,0.3-1.6c0-0.4,0-0.9-0.1-1.3c0-0.1,0-0.1,0-0.2c0-0.3-0.1-0.6-0.3-0.8c-0.1-0.1-0.3-0.2-0.4-0.2c-0.2,0-0.3,0-0.5,0   c-0.3,0-0.8,0-1.1,0c0-0.1-0.1-0.3-0.1-0.4c0-0.1-0.1-0.2-0.1-0.3c-0.7-2.1-1.9-3.9-4.1-4.9c-1.6-0.8-3.3-1-5-0.8   c-3.2,0.3-5.4,2-6.6,5c-0.6,1.4-0.8,2.9-1.4,4.3c-0.6,1.4-1.4,2.7-2.1,4.1c-0.2,0.4-0.2,0.7,0,1c0.5,0.9,1.2,1.7,1.9,2.3   c0.9,0.8,1.9,1.4,3,1.8c1,0.4,2,0.7,3,0.9c-0.1-0.1-0.1-0.2-0.2-0.2c-0.3-0.3-0.6-0.7-0.8-1c-1.4-2.1-2.1-4.8-2.1-7.3   c0-0.9,0.7-1.2,1.4-1.4c1.5-0.3,3-0.6,4.5-1c1.4-0.4,2.9-0.7,4.2-1.5c0.4-0.2,1.1-0.9,1.4-0.1c0.4,0.8,0.6,1.7,0.8,2.6v0   c0.1,0.5,0.1,1.1,0.1,1.6c0,0.3,0,0.6,0,0.9c0,0.5-0.1,1-0.2,1.5c-0.5,0.1-2.5,0.4-3.1,0.5c-0.2,0-0.4,0.1-0.6,0.1h0   c-0.1,0-0.1,0-0.2,0c0,0-0.1,0-0.1-0.1c-0.3-0.3-0.6-0.5-1-0.5h-1.2c-0.7,0-1.2,0.5-1.3,1.1c-0.1,0.7,0.4,1.3,1.1,1.3   c0.2,0,0.4,0,0.7,0c0.3,0,0.6,0,0.9,0c0.4,0,0.7-0.2,0.9-0.6c0,0,0,0,0,0c0.8,0,3-0.3,3.6-0.4c-0.2,0.7-0.5,1.3-0.8,1.9   c-0.5,0.9-1.1,1.8-1.7,2.6c1.2-0.2,2.3-0.6,3.4-1.1c1.1-0.5,2.1-1.2,2.9-2.1c0.5-0.6,1-1.2,1.4-1.9C43.1,31,43.1,30.7,42.9,30.4z"/><path fill="#2d3e50" d="M61.7 53.3l-4.7-5.7c-.3-.3-.7-.5-1.2-.5H32.1h-.3H8.2c-.5 0-1 .2-1.2.5l-4.7 5.7c-.7.8 0 1.9 1.2 1.9h28.4.3 28.4C61.7 55.2 62.4 54.1 61.7 53.3zM39.5 54h-7.4-.3-7.4c-.7 0-1.1-.7-1-1.4l.3-1.3c.1-.5.5-.8 1-.8h7.1.3 7.1c.5 0 .9.3 1 .8l.3 1.3C40.7 53.3 40.2 54 39.5 54zM54.8 8.8H9.2c-1.9 0-3.5 1.6-3.5 3.5v29.9c0 1.9 1.6 3.5 3.5 3.5h45.7c1.9 0 3.5-1.6 3.5-3.5V12.3C58.3 10.4 56.8 8.8 54.8 8.8zM32.1 9.8c.4 0 .8.4.8.8 0 .4-.4.8-.8.8-.4 0-.8-.4-.8-.8C31.3 10.1 31.7 9.8 32.1 9.8zM55 15.9v22.8 3.5h-3.4H12.4 9v-3.5V15.9v-3.5h3.4 39.2H55V15.9z"/></svg>