<svg width="788" height="520" viewBox="0 0 788 520" fill="none" xmlns="http://www.w3.org/2000/svg">
<path opacity="0.15" d="M659.158 499.626H472.875C471.818 499.628 470.772 499.421 469.795 499.018C468.818 498.615 467.931 498.023 467.183 497.277C466.435 496.53 465.842 495.644 465.437 494.668C465.033 493.692 464.824 492.646 464.824 491.589C464.828 489.456 465.678 487.412 467.187 485.905C468.696 484.398 470.742 483.552 472.875 483.552H659.158C661.29 483.552 663.334 484.399 664.841 485.906C666.349 487.413 667.195 489.458 667.195 491.589C667.195 493.721 666.349 495.765 664.841 497.272C663.334 498.779 661.29 499.626 659.158 499.626Z" fill="#292929"/>
<path opacity="0.15" d="M440.7 500.977H399.164C396.202 500.977 393.802 503.378 393.802 506.339C393.802 509.301 396.202 511.702 399.164 511.702H440.7C443.662 511.702 446.062 509.301 446.062 506.339C446.062 503.378 443.662 500.977 440.7 500.977Z" fill="#292929"/>
<path d="M692.793 417.673C686.407 404.659 683.284 390.287 683.692 375.796C683.897 368.755 684.934 361.687 684.047 354.687C682.178 339.882 671.452 327.042 658.039 320.493C644.626 313.943 628.934 313.138 614.279 315.99C590.537 320.602 571.488 335.448 569.25 360.527C567.968 374.909 570.738 389.414 569.469 403.796C569.158 407.327 568.523 410.821 567.572 414.235L560.395 414.753L505.95 418.669C493.984 419.543 481.908 419.829 473.434 428.971C464.402 438.745 458.578 451.049 456.746 464.231C455.381 474.137 456.896 485.367 464.401 491.957C465.014 492.493 465.656 492.994 466.325 493.458H648.501C661.072 493.571 673.28 489.252 682.983 481.26C683.569 480.768 684.142 480.277 684.702 479.759C702.809 463.275 702.932 438.264 692.793 417.673Z" fill="white" stroke="#18216D" stroke-miterlimit="10"/>
<path d="M591.397 402.623C586.921 398.324 582.118 394.313 577.902 389.755C572.58 383.997 569.565 377.12 566.331 370.052C562.878 362.492 560.122 354.387 560.34 345.968C560.85 335.29 565.535 325.239 573.385 317.982C577.806 313.779 584.588 310.204 585.557 303.859C586.498 297.732 585.024 290.787 588.709 285.343C593.921 277.606 608.412 284.797 612.874 290.009C618.728 296.832 618.087 308.185 626.137 313.315C629.18 315.253 632.96 315.703 636.276 316.986C639.44 318.221 642.267 320.187 644.525 322.725C646.783 325.263 648.408 328.299 649.266 331.586C650.821 337.74 650.767 344.317 655.488 349.093C660.455 354.114 665.04 358.412 667.7 365.262C669.551 370.577 670.675 376.117 671.043 381.732C672.231 395.172 662.543 406.921 651.108 413.28C642.318 418.087 632.291 420.154 622.317 419.215C614.02 418.465 603.213 416.172 597.892 409.568C595.877 407.117 593.708 404.797 591.397 402.623Z" fill="#18216D"/>
<path d="M576.523 358.317C573.649 366.463 568.653 373.694 562.053 379.266C555.452 384.838 547.484 388.548 538.972 390.015C540.821 393.453 542.198 397.124 543.065 400.931C554.745 401.081 566.958 397.82 575.268 389.619C583.578 381.418 586.88 367.65 580.958 357.58C580.235 356.311 576.987 356.966 576.523 358.317Z" fill="white" stroke="#18216D" stroke-miterlimit="10"/>
<path d="M570.233 351.535C572.198 346.214 575.691 341.029 578.229 336.171L582.595 327.725C583.564 325.855 584.724 321.83 586.894 321.011C588.654 320.356 590.742 321.871 592.352 322.457C594.699 323.303 597.128 323.945 599.488 324.777C604.168 326.456 608.835 328.625 612.26 332.337C614.12 334.227 615.573 336.479 616.53 338.952C617.488 341.425 617.929 344.068 617.827 346.719C617.595 349.775 616.272 352.641 615.562 355.629C614.857 359.148 614.614 362.744 614.839 366.327C615.109 377.366 615.96 388.384 617.391 399.334C617.81 401.233 617.725 403.209 617.145 405.065C615.262 409.541 603.391 408.395 599.161 408.777C592.406 409.377 584.629 410.987 578.256 407.917C577.408 400.941 577.003 393.918 577.042 386.89C577.042 381.036 578.693 375.128 574.995 370.093C571.761 365.713 567.995 361.81 569.005 355.956C569.277 354.448 569.688 352.968 570.233 351.535Z" fill="#005FEC"/>
<path d="M584.997 318.787C585.153 316.971 585.153 315.145 584.997 313.329C584.833 311.841 583.755 311.227 582.636 310.3C577.847 306.37 576.891 300.175 578.406 294.444C578.597 293.836 578.72 293.209 578.775 292.575C578.782 291.981 578.741 291.388 578.652 290.801C578.415 288.547 579.001 286.284 580.303 284.428C583.223 280.485 590.209 280.239 594.098 282.777C599.392 286.202 600.116 293.516 600.307 299.82C600.457 304.732 600.593 309.631 600.743 314.543C600.893 319.81 601.316 326.442 595.817 329.225C593.892 330.18 591.684 330.398 589.609 329.839C588.372 329.537 587.248 328.883 586.375 327.956C584.301 325.569 584.847 321.707 584.997 318.787Z" fill="white" stroke="#18216D" stroke-miterlimit="10"/>
<path d="M598.096 307.639C595.187 310.43 591.403 312.131 587.385 312.456C590.996 313.499 594.806 313.658 598.492 312.92C598.238 311.171 598.105 309.406 598.096 307.639Z" fill="#18216D"/>
<path d="M453.376 484.985L461.113 477.016C463.994 474.226 466.616 471.18 468.945 467.915C470.842 465.06 472.287 461.931 473.23 458.636C474.062 455.716 474.444 452.427 472.984 449.78C472.068 448.336 470.758 447.183 469.208 446.457C467.659 445.732 465.934 445.465 464.238 445.687C460.848 446.202 457.692 447.723 455.177 450.053C449.419 454.911 445.844 461.106 442.46 467.683C438.612 475.16 434.614 482.561 430.466 489.883C429.661 491.248 427.737 493.977 428.01 495.642C428.283 497.306 430.739 497.92 432.595 498.084C436.866 498.48 440.959 497.743 444.016 494.605C447.072 491.466 450.252 488.26 453.376 484.985Z" fill="#005FEC"/>
<path d="M431.667 487.073C431.32 486.846 430.931 486.692 430.523 486.619C430.115 486.547 429.696 486.557 429.292 486.65C428.537 486.87 427.833 487.236 427.218 487.728C421.284 491.819 414.68 494.844 407.706 496.665C404.24 497.566 400.433 498.33 398.154 501.059C396.353 503.187 398.031 505.152 400.133 506.121C403.431 507.37 407.011 507.682 410.476 507.022C418.813 505.725 427.15 507.95 435.501 507.022C441.778 506.326 443.538 501.673 445.23 496.215C445.489 495.382 445.803 494.55 446.035 493.718C444.029 492.926 441.396 493.254 439.212 492.449C437.324 491.802 435.601 490.75 434.164 489.365C433.418 488.512 432.58 487.743 431.667 487.073Z" fill="#18216D"/>
<path d="M618.646 406.607C617.855 403.332 616.681 399.962 614.239 397.847C611.796 395.732 607.784 395.404 605.765 397.983C605.069 398.857 604.673 399.962 603.977 400.835C601.89 403.428 596.65 401.681 593.935 401.613C589.705 401.504 585.475 401.749 581.258 402.036C570.97 402.718 560.695 403.619 550.42 404.519L521.643 407.044C516.758 407.467 511.859 408.094 506.96 408.408C502.73 408.64 499.251 407.658 495.089 409.609C491.677 411.42 488.524 413.683 485.715 416.336C481.335 420.089 476.9 423.773 472.561 427.58C470.078 429.749 467.635 431.96 465.247 434.239C458.575 440.624 452.434 447.543 446.294 454.433C441.136 460.255 435.969 466.073 430.793 471.885C440.516 479.652 449.715 488.053 458.329 497.033C459.898 495.669 461.413 493.922 462.423 492.94C464.715 490.893 466.926 488.778 469.081 486.609C470.248 485.576 471.151 484.28 471.715 482.829C472.056 481.655 471.947 480.386 472.22 479.186C473.066 475.269 477.282 473.305 480.325 470.712C484.705 466.973 485.374 461.734 488.185 457.067C490.682 452.891 495.771 451.063 499.196 447.611C502.389 444.377 503.972 439.888 506.701 436.244C508.925 433.27 514.397 429.135 518.149 431.892C521.138 434.075 520.701 439.069 524.303 440.87C526.773 442.098 529.761 442.03 532.395 442.494C541.455 444.104 550.625 445.005 559.767 445.905L575.391 447.433C584.069 448.279 592.979 449.112 601.385 446.615C604.877 445.643 608.138 443.975 610.97 441.713C613.803 439.45 616.149 436.639 617.868 433.447C618.668 431.835 619.263 430.13 619.642 428.371C621.293 421.398 620.202 413.129 618.646 406.607Z" fill="white" stroke="#18216D" stroke-miterlimit="10"/>
<path d="M626.751 344.986C636.944 350.662 638.54 363.175 638.868 374.282C639.032 379.999 638.704 385.853 636.562 391.147C630.804 405.338 613.365 408.886 599.72 408.436C582.143 407.83 564.798 404.236 548.428 397.806C548.328 394.821 548.668 391.837 549.438 388.95C559.829 391.691 570.525 393.113 581.272 393.18C589.052 393.45 596.82 392.379 604.237 390.015C608.917 388.377 613.529 385.703 615.576 381.541C619.246 374.077 613.12 366.067 612.246 358.631C611.742 356.043 611.859 353.373 612.587 350.839C613.019 349.785 613.568 348.783 614.225 347.851C615.06 346.38 616.211 345.112 617.595 344.14C618.694 343.568 619.91 343.259 621.149 343.238C622.387 343.217 623.614 343.483 624.732 344.017C625.424 344.299 626.098 344.622 626.751 344.986Z" fill="white" stroke="#18216D" stroke-miterlimit="10"/>
<path d="M494.953 407.167H566.767C567.245 407.158 567.714 407.032 568.132 406.798C570.11 405.666 569.128 403.141 566.767 403.141H494.953C494.474 403.146 494.004 403.273 493.588 403.51C491.569 404.629 492.537 407.167 494.953 407.167Z" fill="#18216D"/>
<path d="M494.462 407.344H562.606C562.795 407.342 562.981 407.288 563.142 407.189C563.304 407.091 563.436 406.95 563.524 406.782C563.612 406.614 563.653 406.425 563.643 406.236C563.632 406.047 563.571 405.864 563.465 405.707L540.268 371.594C540.173 371.454 540.044 371.34 539.895 371.262C539.745 371.183 539.578 371.143 539.409 371.143H471.224C471.035 371.143 470.849 371.194 470.686 371.291C470.524 371.388 470.391 371.528 470.303 371.695C470.214 371.863 470.173 372.051 470.184 372.24C470.195 372.429 470.257 372.611 470.364 372.767L493.561 406.88C493.66 407.027 493.794 407.147 493.952 407.228C494.109 407.309 494.285 407.349 494.462 407.344Z" fill="#18216D"/>
<path d="M585.584 288.699C587.569 288.143 589.677 288.2 591.629 288.863C593.833 289.683 595.737 291.154 597.087 293.08C598.738 295.426 598.929 297.432 599.188 300.257C599.761 306.706 600.344 313.156 600.935 319.606C600.957 320.66 601.204 321.697 601.658 322.649C602.467 323.804 603.662 324.631 605.028 324.982C606.191 325.412 607.43 325.597 608.668 325.524C609.906 325.452 611.115 325.123 612.219 324.559C613.254 323.868 614.128 322.964 614.785 321.907C615.442 320.85 615.865 319.666 616.026 318.432C616.333 315.963 616.278 313.462 615.863 311.009C614.948 303.218 614.498 296.081 611.278 288.795C608.699 282.941 602.272 279.625 595.968 278.575C590.35 277.655 584.59 278.172 579.225 280.076C577.443 280.595 575.829 281.574 574.545 282.914C572.621 285.179 572.826 287.785 575.678 288.59C577.606 289.277 579.651 289.573 581.695 289.464C583.005 289.281 584.303 289.026 585.584 288.699Z" fill="#18216D"/>
<path d="M595.763 297.228C595.993 296.741 596.318 296.306 596.719 295.948C597.12 295.59 597.59 295.316 598.099 295.143C598.608 294.97 599.147 294.901 599.683 294.94C600.219 294.98 600.742 295.126 601.221 295.372C603.391 296.736 603.008 299.82 601.221 301.335C600.826 301.701 600.348 301.966 599.828 302.107C599.308 302.248 598.761 302.261 598.235 302.144C597.709 302.028 597.219 301.785 596.808 301.437C596.396 301.089 596.075 300.647 595.872 300.148C595.743 299.733 595.706 299.295 595.763 298.865C595.601 298.623 595.515 298.338 595.515 298.046C595.515 297.755 595.601 297.47 595.763 297.228Z" fill="white"/>
<path d="M616.777 365.644L619.274 364.73C619.297 364.638 619.343 364.554 619.407 364.485C619.472 364.416 619.552 364.364 619.642 364.334C625.905 362.015 632.032 359.354 638.254 356.939C636.645 352.563 634.669 348.332 632.346 344.29C630.597 340.685 628.212 337.426 625.305 334.67C621.824 331.394 617.924 328.595 613.707 326.346C612.642 325.8 600.566 320.779 600.485 320.997C599.537 324.181 598.871 327.441 598.492 330.74C598.4 332.882 598.195 335.019 597.878 337.14C596.918 340.584 597.278 344.263 598.888 347.455C601.344 351.863 603.705 356.393 606.379 360.65L610.773 367.637C612.421 366.921 614.123 366.337 615.863 365.89L616.777 365.644Z" fill="#005FEC"/>
<path d="M581.791 304.992C582.48 305.595 583.365 305.928 584.281 305.928C585.197 305.928 586.082 305.595 586.771 304.992C587.071 304.705 587.003 304.228 587.044 303.818C587.085 303.409 586.785 302.959 586.376 302.986C586.251 302.995 586.129 303.032 586.021 303.095C584.765 303.627 583.032 304.432 581.791 304.992Z" fill="#18216D"/>
<path d="M517.017 385.484C516.606 385.227 516.149 385.054 515.672 384.973C515.194 384.892 514.706 384.907 514.234 385.015C513.762 385.123 513.316 385.324 512.921 385.604C512.526 385.885 512.191 386.241 511.934 386.651C511.677 387.061 511.503 387.518 511.422 387.996C511.342 388.473 511.356 388.962 511.464 389.434C511.573 389.906 511.773 390.352 512.054 390.747C512.334 391.141 512.69 391.477 513.1 391.734" stroke="#C9CDD1" stroke-miterlimit="10"/>
<path d="M542.534 461.338C540.705 456.139 539.559 450.613 537.949 445.318C537.301 442.9 536.279 440.598 534.92 438.496C533.539 436.362 531.388 434.842 528.916 434.252C524.686 433.447 520.469 436.463 518.532 440.311C513.483 450.285 517.795 461.351 524.331 469.361C526.555 472.09 528.957 474.642 531.249 477.303C533.541 479.963 535.206 483.525 537.553 486.049C541.183 489.938 547.473 487.414 550.448 483.893C553.996 479.691 549.424 474 546.996 470.466C545.114 467.632 543.614 464.563 542.534 461.338Z" fill="#005FEC"/>
<path d="M549.233 476.17L548.564 476.634C545.038 479.022 541.355 481.17 537.539 483.061C536.618 483.486 535.813 484.128 535.192 484.93C534.21 486.404 535.274 487.468 535.479 488.928C536.063 493.422 535.667 497.988 534.319 502.314C532.954 506.408 527.878 512.152 529.161 516.723C529.993 519.739 534.237 519.289 536.598 518.634C540.036 517.528 542.933 515.171 544.716 512.03C546.545 509.014 547.868 505.698 549.479 502.56C550.971 499.653 552.72 496.886 554.705 494.291C555.709 493.115 556.571 491.823 557.27 490.443C557.858 488.959 558.021 487.341 557.742 485.77C557.462 484.199 556.751 482.736 555.687 481.546C554.568 480.264 553.75 478.735 552.672 477.453C551.212 475.624 550.734 475.201 549.233 476.17Z" fill="#18216D"/>
<path d="M500.165 439.833C500.738 441.334 501.025 442.903 501.53 444.431C502.48 447.093 503.729 449.639 505.255 452.018C508.748 457.995 512.25 463.967 515.762 469.934L521.015 478.885C521.247 479.281 521.643 480.114 522.12 481.096C531.617 475.538 540.9 469.625 549.97 463.357C547.923 460.014 545.604 456.794 545.126 452.946C544.88 451.008 545.126 449.016 544.908 447.065C544.335 442.357 540.964 438.578 538.153 434.784C533.132 427.962 529.557 420.17 525.286 412.816C524.781 411.942 524.263 411.083 523.73 410.223C520.843 405.32 517.222 400.888 512.992 397.083C510.836 395.305 508.514 393.738 506.06 392.403C503.999 391.215 502.485 389.51 500.261 388.596C490.6 384.625 482.986 392.43 482.686 402.241C482.481 409.186 485.592 415.79 489.031 421.821C491.387 425.988 493.934 430.027 496.672 433.938C498.071 435.755 499.244 437.734 500.165 439.833Z" fill="white" stroke="#18216D" stroke-miterlimit="10"/>
<path d="M606.215 353.882C606.806 361.962 605.966 370.083 603.732 377.87C604.155 376.41 608.234 373.859 609.408 372.699C610.581 371.539 613.938 368.96 614.143 366.995C614.347 365.03 611.946 362.342 611.032 360.855C609.553 358.445 607.945 356.118 606.215 353.882Z" fill="#18216D"/>
<path d="M600.784 314.53C600.935 319.797 601.358 326.428 595.859 329.212C593.933 330.167 591.725 330.385 589.65 329.826" fill="white"/>
<path d="M600.784 314.53C600.935 319.797 601.358 326.428 595.859 329.212C593.933 330.167 591.725 330.385 589.65 329.826" stroke="#18216D" stroke-miterlimit="10"/>
<path d="M594.262 448.375C606.297 446.424 617.882 453.724 630.04 454.665L594.262 448.375Z" fill="white"/>
<path d="M594.262 448.375C606.297 446.424 617.882 453.724 630.04 454.665" stroke="#18216D" stroke-miterlimit="10"/>
<path d="M622.903 444.595C629.199 446.313 635.794 446.63 642.225 445.523L622.903 444.595Z" fill="white"/>
<path d="M622.903 444.595C629.199 446.313 635.794 446.63 642.225 445.523" stroke="#18216D" stroke-miterlimit="10"/>
<path d="M647.096 402.882C648.373 413.521 645.435 424.238 638.909 432.738" stroke="#18216D" stroke-miterlimit="10"/>
<path d="M469.041 485.804C468.604 482.761 468.249 474.887 464.538 473.741C455.914 471.08 461.345 491.985 462.109 494.686C462.172 494.935 462.284 495.168 462.439 495.371C462.593 495.575 462.788 495.746 463.009 495.874C463.317 496.645 463.782 497.344 464.374 497.926C464.966 498.509 465.672 498.962 466.448 499.258C466.797 499.355 467.166 499.356 467.517 499.263C467.867 499.169 468.186 498.984 468.44 498.725C468.669 498.5 468.871 498.248 469.041 497.975C469.27 497.798 469.453 497.567 469.572 497.303C469.691 497.039 469.743 496.749 469.723 496.46C469.73 496.424 469.73 496.387 469.723 496.351C470.542 493.117 469.423 488.451 469.041 485.804Z" fill="#18216D"/>
<path d="M449.528 466.591C446.622 466.755 443.592 470.193 441.682 472.049C438.815 474.882 436.279 478.032 434.123 481.437C433.97 481.658 433.867 481.909 433.821 482.173C433.774 482.438 433.786 482.709 433.855 482.968C433.924 483.228 434.048 483.469 434.219 483.676C434.39 483.883 434.604 484.05 434.846 484.166C435.555 486.336 438.148 486.677 440.304 486.158C443.617 485.219 446.527 483.214 448.586 480.455C450.483 478.067 452.844 474.901 453.308 471.817C453.676 469.361 452.366 466.427 449.528 466.591Z" fill="#18216D"/>
<path d="M474.321 450.735C469.3 451.063 459.939 451.118 457.06 456.194C456.788 456.641 456.608 457.137 456.53 457.655C456.452 458.172 456.476 458.7 456.603 459.207C456.73 459.715 456.957 460.192 457.269 460.612C457.582 461.031 457.975 461.385 458.425 461.652C461.154 463.562 464.688 462.757 467.635 461.938C468.068 461.831 468.45 461.575 468.713 461.215C471.004 460.705 473.206 459.859 475.249 458.704C477.2 457.613 479.752 455.975 479.465 453.478C479.179 450.981 476.423 450.599 474.321 450.735Z" fill="#18216D"/>
<path d="M477.378 433.338C475.767 428.958 472.165 425.355 468.454 422.708C468.238 422.538 467.986 422.421 467.716 422.365C467.447 422.31 467.169 422.319 466.904 422.39C466.639 422.462 466.394 422.595 466.189 422.778C465.984 422.961 465.825 423.19 465.725 423.445C464.98 423.246 464.195 423.26 463.459 423.487C462.723 423.714 462.066 424.144 461.563 424.728C458.916 427.621 460.307 432.915 462.136 435.876C464.142 439.096 469.381 442.698 473.325 442.153C477.61 441.552 478.66 436.817 477.378 433.338Z" fill="#18216D"/>
<path d="M442.773 450.517C442.371 450.379 441.934 450.379 441.532 450.517C441.097 450.423 440.647 450.43 440.215 450.537C439.783 450.644 439.381 450.848 439.04 451.133C438.7 451.419 438.428 451.779 438.248 452.185C438.067 452.591 437.981 453.034 437.998 453.478C437.998 456.003 439.853 458.65 441.668 460.301C443.77 462.177 446.421 463.325 449.228 463.576C449.769 463.572 450.288 463.355 450.671 462.972C451.054 462.589 451.271 462.071 451.274 461.529C451.219 459.026 450.364 456.607 448.834 454.625C447.304 452.644 445.181 451.204 442.773 450.517Z" fill="#18216D"/>
<path d="M499.878 446.355C499.032 444.991 498.623 443.476 497.245 442.63C496.479 442.186 495.593 441.993 494.712 442.078C493.831 442.164 492.998 442.524 492.333 443.108C489.344 445.318 487.666 449.63 487.161 453.192C486.752 456.112 486.615 460.969 490.259 461.856C492.919 462.498 494.584 460.56 495.717 458.349C496.648 457.176 497.389 455.864 497.914 454.461C498.615 452.717 499.047 450.876 499.196 449.003C499.428 448.886 499.631 448.722 499.794 448.52C499.956 448.319 500.074 448.085 500.139 447.834C500.203 447.583 500.213 447.322 500.169 447.067C500.124 446.811 500.025 446.569 499.878 446.355Z" fill="#18216D"/>
<path d="M573.385 436.64C570.656 433.365 566.221 437.309 563.97 439.164C562.124 440.705 560.425 442.414 558.894 444.268C557.898 445.482 556.056 447.188 556.274 448.907C556.274 449.071 556.342 449.234 556.383 449.398C556.27 449.8 556.193 450.211 556.151 450.626C556.158 451.167 556.376 451.683 556.758 452.066C557.141 452.448 557.657 452.666 558.198 452.673C562.387 452.673 566.385 449.016 569.223 446.26C571.325 444.213 576.032 439.86 573.385 436.64Z" fill="#18216D"/>
<path d="M556.929 419.666C554.282 417.496 550.475 415.667 546.968 416.186C542.874 416.786 541.769 420.211 543.366 423.732C543.688 424.428 544.072 425.095 544.512 425.724C544.55 425.808 544.582 425.895 544.607 425.983C545.32 427.731 546.431 429.288 547.853 430.529C549.275 431.77 550.967 432.662 552.794 433.133C555.523 433.829 562.087 433.829 562.701 430.022C563.315 426.215 559.658 421.781 556.929 419.666Z" fill="#18216D"/>
<path d="M594.248 414.999C592.652 411.042 587.248 410.441 583.687 410.823C580.589 411.165 574.722 411.628 572.484 414.453C570.819 415.818 569.564 417.837 570.942 419.843C572.675 422.354 577.874 422.463 580.562 422.572C583.333 422.71 586.093 422.127 588.572 420.88C591.533 420.157 595.613 418.369 594.248 414.999Z" fill="#18216D"/>
<path d="M595.845 432.628C593.007 429.463 587.467 428.917 585.42 433.256C584.206 435.849 584.861 438.714 586.13 441.443C586.653 443.673 587.849 445.687 589.555 447.215L590.141 448.088C590.331 448.368 590.585 448.599 590.881 448.762C591.178 448.925 591.508 449.016 591.847 449.026C592.185 449.037 592.52 448.967 592.826 448.823C593.133 448.679 593.4 448.465 593.607 448.197C594.778 448.109 595.91 447.735 596.902 447.107C597.894 446.478 598.717 445.616 599.297 444.595C600.948 441.197 598.178 435.221 595.845 432.628Z" fill="#18216D"/>
<path d="M624.363 422.845C624.411 422.621 624.409 422.389 624.359 422.165C624.309 421.942 624.212 421.732 624.073 421.549C623.935 421.366 623.758 421.216 623.557 421.107C623.355 420.999 623.132 420.935 622.903 420.921C617.936 420.239 612.519 419.433 607.784 421.562C605.356 422.654 602.326 425.574 603.8 428.562C605.669 432.151 612.669 432.506 616.081 432.656C619.724 432.765 624.677 431.851 626.587 428.303C627.993 425.724 626.738 423.964 624.363 422.845Z" fill="#18216D"/>
<path d="M543.052 436.408C542.588 434.17 540.678 433.447 538.617 433.461C538.433 433.032 538.098 432.686 537.676 432.487C537.253 432.289 536.773 432.251 536.325 432.383C531.992 433.413 528.14 435.892 525.409 439.41C523.526 441.853 520.947 445.987 524.263 448.416C527.579 450.845 532.927 447.42 535.738 445.4C538.154 443.681 543.775 439.833 543.052 436.408Z" fill="#18216D"/>
<path d="M528.493 460.655C521.356 461.515 515.68 469.88 511.764 475.092C511.521 475.378 511.388 475.741 511.388 476.115C511.388 476.49 511.521 476.853 511.764 477.139C511.584 477.598 511.499 478.088 511.513 478.58C511.527 479.072 511.64 479.557 511.845 480.004C514.725 486.104 525.109 475.665 527.374 473.182C529.352 471.053 532.572 467.724 533.023 464.763C533.473 461.802 531.085 460.342 528.493 460.655Z" fill="#18216D"/>
<path d="M514.438 435.044C514.347 434.746 514.19 434.472 513.98 434.242C513.769 434.012 513.51 433.831 513.222 433.714C512.933 433.596 512.622 433.544 512.311 433.562C512 433.58 511.696 433.666 511.423 433.816C504.723 438.005 504.054 448.675 504.464 455.743C504.475 456.164 504.621 456.571 504.878 456.904C505.135 457.238 505.492 457.481 505.896 457.599C506.104 458.368 506.573 459.041 507.223 459.502C507.873 459.963 508.663 460.183 509.458 460.123C513.551 460.014 515.134 453.642 515.775 450.572C516.869 445.377 516.404 439.975 514.438 435.044Z" fill="#18216D"/>
<path d="M531.454 409.705C531.362 409.286 531.119 408.915 530.772 408.663C530.425 408.412 529.997 408.297 529.571 408.34H529.325C525.586 406.712 521.441 406.26 517.44 407.044C512.76 407.044 507.029 408.886 507.206 414.085C507.424 420.552 520.374 418.178 524.167 417.441C527.333 416.923 536.011 413.389 531.454 409.705Z" fill="#18216D"/>
<path d="M500.657 418.56C500.193 418.724 499.729 418.929 499.292 419.106C498.263 419.385 497.292 419.847 496.427 420.471C494.851 421.283 493.353 422.238 491.951 423.322C489.672 425.11 486.357 427.771 485.415 430.636C484.583 433.106 486.589 435.044 488.99 435.044C491.719 435.044 494.598 433.229 496.645 431.632C498.323 430.268 503.781 424.51 503.113 421.194C503.386 419.734 502.349 417.946 500.657 418.56Z" fill="#18216D"/>
<path d="M500.206 396.087C499.388 392.184 496.481 393.139 493.793 393.63C493.461 393.651 493.129 393.651 492.797 393.63C490.068 393.822 487.653 397.724 486.452 399.962C484.924 402.691 483.723 406.334 485.374 409.309C488.785 415.517 495.976 407.59 497.914 404.274C499.265 402.022 500.779 398.816 500.206 396.087Z" fill="#18216D"/>
<path d="M729.922 79.6011H478.851V231.062H729.922V79.6011Z" fill="white" stroke="#18216D" stroke-miterlimit="10"/>
<path d="M497.737 224.212C496.481 216.162 498.009 207.402 503.195 201.111C505.637 198.164 508.844 195.749 510.386 192.256C511.09 190.467 511.514 188.579 511.641 186.661C512.678 176.113 510.89 164.597 516.553 155.632C518.832 152.016 522.161 149.178 524.74 145.739C529.393 139.394 531.113 131.357 535.274 124.698C539.436 118.04 548.046 112.704 554.992 116.388C561.937 120.073 562.428 129.556 560.313 136.938C558.198 144.32 554.2 151.497 554.896 159.139C555.524 165.811 559.713 171.747 560.463 178.419C561.296 185.774 557.871 192.979 557.734 200.374C557.489 209.762 562.415 218.85 561.309 228.17C560.204 237.489 553.313 245.008 545.017 248.978C536.311 253.154 517.085 257.356 508.584 250.534C502.54 245.731 498.814 231.185 497.737 224.212Z" fill="#005FEC"/>
<path d="M620.543 232.4C619.288 224.349 620.816 215.589 626.001 209.298C630.286 204.113 633.983 202.285 633.779 195.408C633.533 186.702 630.613 178.924 631.978 169.973C633.792 158.074 640.656 147.486 643.126 135.71C645.104 126.158 644.49 115.474 650.562 107.928C652.333 105.516 654.959 103.871 657.903 103.33C665.231 102.334 670.402 110.849 670.757 118.244C671.112 125.64 668.874 133.254 670.975 140.322C673.227 147.936 680.145 153.626 681.81 161.39C682.778 165.961 681.81 170.751 682.437 175.376C682.969 179.334 684.661 183.018 686.012 186.77C693.763 208.289 691.266 245.935 667.81 257.165C659.104 261.341 639.878 265.544 631.377 258.721C625.346 253.918 621.621 239.372 620.543 232.4Z" fill="#005FEC"/>
<path d="M653.987 244.735V244.653C654.133 235.896 656.202 227.279 660.045 219.409C666.418 206.406 677.593 195.462 680.254 181.203C681.537 174.38 680.677 167.258 680.95 160.271C681.223 153.285 682.901 145.835 688.059 141.168C690.46 138.985 694.145 137.525 696.942 139.19C698.466 140.267 699.592 141.816 700.149 143.597C702.878 150.679 702.755 158.525 703.764 166.07C705.361 177.983 714.285 184.014 715.649 195.544C717.191 208.684 715.281 221.961 711.447 234.555C707.271 248.282 703.915 262.61 689.614 269.473C677.443 275.314 665.49 277.115 658.094 263.688C655.113 257.83 653.698 251.301 653.987 244.735Z" fill="#005FEC"/>
<path d="M537.744 228.129C537.553 224.936 539.327 221.988 541.169 219.396C548.142 209.585 556.956 201.193 563.342 190.973C566.876 185.324 570.888 179.961 572.28 173.234C572.819 169.974 573.066 166.673 573.017 163.369C572.984 156.731 573.903 150.124 575.746 143.747C578.802 134.195 585.475 125.654 594.508 121.314C609.518 114.123 632.714 114.751 640.901 131.971C644.108 138.698 644.736 146.49 644.777 153.803C644.777 162.673 643.808 171.61 644.981 180.411C646.346 190.304 651.94 196.39 659.172 202.749C664.153 207.129 667.96 211.29 668.819 217.977C669.638 224.349 666.677 230.68 662.447 235.292C656.457 241.828 648.092 245.813 639.496 247.982C630.899 250.152 621.976 250.643 613.133 251.175C603.022 251.789 592.857 252.458 582.8 251.325C572.744 250.193 562.674 247.109 554.664 240.928C551.703 238.649 548.933 235.879 545.494 234.323C542.056 232.768 538.031 233.095 537.744 228.129Z" fill="#18216D"/>
<path d="M610.596 239.509C606.484 240.047 602.339 240.294 598.192 240.245C595.763 240.245 592.106 240.396 590.128 238.758C588.149 237.121 588.054 234.351 587.999 232.195C587.795 224.472 589.364 216.844 590.155 209.162C590.756 202.981 590.81 196.54 588.914 190.564C587.181 185.105 584.561 180.316 583.701 174.476C583.496 173.111 583.701 169.864 582.787 168.731C581.873 167.599 580.317 167.844 579.43 166.698C578.566 165.475 578.16 163.987 578.284 162.495C578.404 160.826 578.975 159.221 579.936 157.851C580.898 156.481 582.213 155.398 583.742 154.718C583.8 154.702 583.85 154.665 583.882 154.615C583.915 154.565 583.928 154.504 583.919 154.445C583.005 144.893 587.044 134.809 595.518 130.156C604.223 125.394 614.239 121.847 623.422 127.973C627.877 131.066 631.081 135.649 632.455 140.895C632.919 142.492 634.42 157.378 634.516 158.102C635.25 157.996 636 158.107 636.673 158.419C637.347 158.732 637.915 159.233 638.309 159.862C639.081 161.133 639.487 162.592 639.482 164.078C639.584 165.589 639.215 167.095 638.425 168.387C637.636 169.68 636.466 170.696 635.075 171.297C631.664 172.661 632.592 176.222 631.746 179.484C630.704 183.553 628.847 187.369 626.288 190.7C625.688 191.391 625.196 192.169 624.828 193.006C624.541 194.012 624.458 195.065 624.582 196.103C625.173 207.092 625.428 218.09 625.346 229.097C625.346 232.413 624.841 235.142 621.839 236.739C618.332 238.553 614.444 238.976 610.596 239.509Z" fill="white" stroke="#18216D" stroke-miterlimit="10"/>
<path d="M594.658 128.819C590.178 130.596 586.362 133.725 583.742 137.77C581.283 142.142 580.213 147.158 580.672 152.152C580.822 153.79 581.941 155.673 583.564 155.468C584.847 155.304 585.57 153.954 586.293 152.862C590.919 145.835 601.985 144.334 609.736 143.815C611.701 143.692 613.666 143.651 615.644 143.692C620.952 143.802 626.137 145.234 631.377 145.453C635.471 145.63 640.014 142.724 642.621 139.763C645.468 136.52 647.023 132.343 646.987 128.028C647.046 126.127 646.517 124.254 645.472 122.665C643.699 120.236 640.274 119.295 637.408 119.459C634.684 119.605 631.989 120.091 629.385 120.905C626.811 121.966 624.136 122.766 621.402 123.293C618.578 123.634 615.74 124.316 612.888 124.753C606.734 125.64 600.416 126.295 594.658 128.819Z" fill="#18216D"/>
<path d="M610.691 186.975C608.303 187.698 606.42 188.339 603.95 187.384C603.282 187.111 602.804 188.244 603.459 188.544C605.847 189.663 609.231 189.909 611.305 188.026C611.405 187.928 611.469 187.799 611.487 187.661C611.506 187.522 611.477 187.382 611.407 187.261C611.336 187.141 611.228 187.047 611.098 186.995C610.968 186.943 610.825 186.936 610.691 186.975Z" fill="#18216D"/>
<path d="M610.254 171.419H609.668L605.288 172.102C600.13 172.907 603.718 179.511 607.812 178.515C608.581 178.357 609.305 178.025 609.927 177.546C610.672 176.82 611.242 175.933 611.592 174.953C611.875 174.395 612.056 173.789 612.124 173.166C612.158 172.853 612.107 172.536 611.974 172.25C611.842 171.964 611.634 171.719 611.373 171.542C611.022 171.387 610.631 171.344 610.254 171.419Z" fill="#18216D"/>
<path d="M607.334 166.862C606.311 166.862 607.334 160.831 607.416 160.039C607.604 158.221 607.554 156.386 607.266 154.581C607.266 154.295 606.816 154.377 606.802 154.581C606.625 158.347 605.779 162.018 605.561 165.743C605.479 167.107 605.943 168.472 607.498 167.994C607.606 167.933 607.692 167.842 607.747 167.73C607.801 167.619 607.821 167.495 607.803 167.372C607.786 167.25 607.731 167.136 607.648 167.045C607.564 166.953 607.455 166.89 607.334 166.862Z" fill="#18216D"/>
<path d="M595.695 159.534C595.637 159.34 595.518 159.169 595.357 159.046C595.195 158.923 594.998 158.855 594.795 158.852H594.699C594.511 158.852 594.327 158.902 594.164 158.995C594.002 159.088 593.866 159.223 593.771 159.384C593.771 159.384 593.771 159.384 593.771 159.453C593.63 159.622 593.543 159.83 593.524 160.049C593.504 160.269 593.552 160.489 593.662 160.681L593.744 160.79C594.317 161.581 595.845 161.431 595.777 160.244C595.777 160.005 595.75 159.767 595.695 159.534Z" fill="#18216D"/>
<path d="M620.202 158.279C619.287 157.433 617.909 158.811 618.837 159.644C618.865 159.787 618.916 159.925 618.987 160.053C619.067 160.189 619.18 160.302 619.317 160.38C619.453 160.458 619.608 160.5 619.765 160.5C619.922 160.5 620.077 160.458 620.213 160.38C620.35 160.302 620.463 160.189 620.543 160.053C620.688 159.761 620.734 159.429 620.672 159.108C620.611 158.788 620.445 158.496 620.202 158.279Z" fill="#18216D"/>
<path d="M613.379 199.351C616.834 201.4 620.432 203.197 624.145 204.727C624.461 204.862 624.805 204.918 625.147 204.891C625.489 204.864 625.82 204.755 626.11 204.573C626.401 204.39 626.644 204.141 626.817 203.844C626.991 203.548 627.09 203.214 627.106 202.871C627.218 199.437 627.699 196.024 628.539 192.692C629.003 190.973 630.531 189.567 630.531 187.794C630.542 187.547 630.485 187.301 630.367 187.084C630.189 186.838 629.929 186.665 629.633 186.594C629.338 186.524 629.027 186.562 628.757 186.702C628.216 186.986 627.749 187.392 627.393 187.889C623.613 192.392 619.56 194.111 613.993 195.421C613.576 195.517 613.197 195.736 612.906 196.049C612.614 196.362 612.423 196.755 612.356 197.178C612.29 197.601 612.353 198.034 612.535 198.421C612.717 198.809 613.011 199.132 613.379 199.351Z" fill="#18216D"/>
<path d="M729.922 79.6011H478.851V231.062H729.922V79.6011Z" stroke="#18216D" stroke-miterlimit="10"/>
<path d="M486.424 70.418H722.376C724.548 70.418 726.63 71.2805 728.165 72.8159C729.701 74.3513 730.563 76.4337 730.563 78.6051V88.8662H478.128V78.6051C478.128 77.5207 478.343 76.4471 478.762 75.4466C479.18 74.4461 479.793 73.5387 480.565 72.777C481.336 72.0153 482.252 71.4145 483.258 71.0096C484.264 70.6046 485.34 70.4035 486.424 70.418Z" fill="#18216D"/>
<path d="M489.768 85.6459C492.556 85.6459 494.816 83.3855 494.816 80.5972C494.816 77.8089 492.556 75.5485 489.768 75.5485C486.979 75.5485 484.719 77.8089 484.719 80.5972C484.719 83.3855 486.979 85.6459 489.768 85.6459Z" fill="white"/>
<path d="M513.415 80.3653C513.457 81.3598 513.203 82.3445 512.686 83.195C512.169 84.0455 511.411 84.7236 510.509 85.1436C509.606 85.5636 508.599 85.7067 507.616 85.5547C506.632 85.4027 505.715 84.9626 504.981 84.2899C504.248 83.6171 503.73 82.742 503.493 81.7751C503.257 80.8082 503.312 79.7928 503.652 78.8574C503.993 77.9219 504.603 77.1083 505.405 76.5194C506.208 75.9304 507.167 75.5926 508.161 75.5485C509.496 75.493 510.798 75.9688 511.783 76.8716C512.768 77.7744 513.354 79.0307 513.415 80.3653Z" fill="white"/>
<path d="M513.414 80.3652C513.457 81.3598 513.203 82.3445 512.686 83.195C512.168 84.0455 511.411 84.7236 510.508 85.1436C509.606 85.5636 508.599 85.7066 507.615 85.5547C506.631 85.4027 505.715 84.9626 504.981 84.2899C504.247 83.6171 503.73 82.742 503.493 81.7751C503.256 80.8082 503.312 79.7928 503.652 78.8573C503.992 77.9219 504.602 77.1083 505.405 76.5193C506.207 75.9304 507.167 75.5926 508.161 75.5485C509.496 75.493 510.798 75.9688 511.783 76.8716C512.767 77.7744 513.354 79.0307 513.414 80.3652Z" fill="white"/>
<path d="M502.512 74.4569L514.247 86.7375" stroke="#18216D" stroke-miterlimit="10"/>
<path d="M502.239 86.4646L514.52 74.7162" stroke="#18216D" stroke-miterlimit="10"/>
<path d="M439.28 27.0673H255.071V178.528H439.28V27.0673Z" fill="white" stroke="#18216D" stroke-miterlimit="10"/>
<path d="M274.843 82.2347C274.408 79.5445 274.584 76.791 275.359 74.1784C276.134 71.5658 277.487 69.1612 279.318 67.1431C280.683 65.7786 282.047 64.8644 282.907 63.0496C283.225 62.205 283.44 61.3254 283.548 60.4297C284.118 57.7659 285.241 55.2514 286.844 53.049C288.447 50.8465 290.495 49.0052 292.854 47.6442C297.985 44.3967 303.102 44.3284 308.969 43.346C310.702 43.0594 312.367 42.5136 314.086 42.2271C315.725 41.9702 317.392 41.938 319.04 42.1316C323.853 42.7974 328.37 44.845 332.043 48.0263C334.444 50.106 336.418 52.6315 337.856 55.4629C339.221 57.6734 339.753 60.1977 341.008 62.4219C342.455 64.9599 344.174 64.878 346.616 66.0515C348.819 67.1186 350.739 68.6885 352.223 70.6344C353.707 72.5804 354.712 74.848 355.158 77.2542C357.109 89.1255 344.938 97.7219 334.117 95.2658C325.93 93.4373 313.65 93.4919 307.4 99.8642C304.794 102.484 302.597 105.568 299.554 107.669C299.24 107.874 298.927 108.079 298.599 108.27C295.79 109.892 292.62 110.788 289.378 110.876C286.135 110.964 282.921 110.242 280.028 108.774C272.373 104.544 272.973 95.7024 275.43 88.4159C275.711 87.759 275.868 87.0559 275.894 86.3418C275.825 85.7284 275.674 85.1271 275.443 84.5543C275.183 83.7978 274.983 83.0223 274.843 82.2347Z" fill="#005FEC"/>
<path d="M311.794 128.505C314.837 134.482 321.346 137.443 328.509 136.474H328.673C330.487 136.182 332.222 135.526 333.776 134.546C335.33 133.567 336.67 132.284 337.716 130.774C338.762 129.264 339.493 127.559 339.864 125.76C340.235 123.961 340.239 122.105 339.876 120.305L337.461 107.915C337.028 106.295 336.953 104.6 337.242 102.948C337.756 101.503 338.448 100.128 339.303 98.8544C344.761 88.9617 338.566 77.7181 333.517 69.1353C331.503 65.6591 328.652 62.7419 325.222 60.6494C321.793 58.557 317.894 57.3556 313.882 57.1548C296.239 56.4317 287.547 72.4511 290.972 88.143C292.936 97.0669 298.299 103.466 305.135 109.143C311.971 114.819 312.354 120.004 311.794 128.505Z" fill="white" stroke="#18216D" stroke-miterlimit="10"/>
<path d="M295.242 72.6694C294.939 74.0125 294.883 75.3999 295.079 76.7629C295.468 80.0604 294.914 83.4007 293.482 86.3964C292.67 87.7944 291.643 89.056 290.439 90.1352C289.472 91.1417 288.299 91.9281 287.001 92.4412C286.351 92.6862 285.651 92.7695 284.962 92.684C284.272 92.5984 283.614 92.3465 283.044 91.95C282.502 91.4603 282.086 90.8479 281.829 90.1642C281.573 89.4805 281.484 88.7453 281.57 88.0202C281.74 86.5763 282.06 85.1541 282.525 83.7765C283.207 81.1976 283.48 78.5231 284.203 75.9579C284.795 73.3304 286.263 70.9823 288.365 69.299C289.168 68.7164 290.092 68.324 291.068 68.1514C292.045 67.9788 293.047 68.0307 294.001 68.3029C294.683 68.5349 296.129 69.1489 296.375 69.9131C296.716 71.0047 295.584 71.5778 295.242 72.6694Z" fill="#005FEC"/>
<path d="M300.004 71.414C301.76 70.9501 303.458 70.2911 305.067 69.4491C305.446 69.2101 305.876 69.0651 306.322 69.0261C306.708 69.0519 307.082 69.1688 307.414 69.3673C309.884 70.7603 312.59 71.6855 315.396 72.0963C318.221 72.2737 321.373 70.9501 322.328 68.2893C322.464 67.9209 322.628 67.4569 323.024 67.4024C323.164 67.4034 323.302 67.4344 323.429 67.4932C323.556 67.5521 323.669 67.6374 323.761 67.7435C326.967 70.4725 330.242 75.1528 335.113 72.9696C337.706 71.8097 339.043 68.876 339.207 65.9833C339.507 59.7065 334.868 53.9619 329.151 51.342C323.433 48.7222 316.87 48.7494 310.634 49.5545C306.22 50.0085 301.91 51.1839 297.876 53.034C293.55 55.1627 291.967 58.4921 289.607 62.5856C288.976 63.4908 288.563 64.5295 288.4 65.6206C288.236 66.7117 288.327 67.8258 288.665 68.876C290.03 71.8507 293.946 72.4784 297.166 72.0144C298.124 71.8751 299.072 71.6746 300.004 71.414Z" fill="#005FEC"/>
<path d="M326.926 107.929C326.418 108.176 325.893 108.39 325.357 108.57C324.688 108.802 321.768 108.856 321.495 109.252C320.649 110.494 323.72 110.78 324.224 110.862C325.53 111.051 326.811 111.38 328.045 111.845C328.991 112.265 329.903 112.758 330.774 113.318L334.144 115.297C333.384 111.523 332.928 107.695 332.78 103.849C332.78 104.394 329.969 106.086 329.505 106.4C328.682 106.969 327.82 107.48 326.926 107.929Z" fill="#18216D"/>
<path d="M304.18 83.4354C303.939 83.368 303.685 83.368 303.444 83.4354C303.204 83.5028 302.986 83.6349 302.816 83.8174C302.733 83.9054 302.672 84.0106 302.636 84.1254C302.6 84.2402 302.59 84.3616 302.607 84.4808C302.624 84.5999 302.667 84.7137 302.734 84.8138C302.801 84.9139 302.889 84.9977 302.993 85.0592C303.073 85.1578 303.172 85.239 303.285 85.2977C303.398 85.3564 303.521 85.3913 303.648 85.4003C303.814 85.4092 303.98 85.3819 304.134 85.3203C304.288 85.2587 304.428 85.1642 304.542 85.0435C304.656 84.9228 304.743 84.7787 304.796 84.6212C304.849 84.4637 304.867 84.2965 304.849 84.1313C304.827 83.9586 304.751 83.7975 304.63 83.672C304.51 83.5466 304.352 83.4636 304.18 83.4354Z" fill="#18216D"/>
<path d="M326.476 80.1196C326.321 79.8877 326.089 79.7184 325.821 79.642C325.789 79.5806 325.743 79.5279 325.686 79.4886C325.629 79.4493 325.563 79.4245 325.495 79.4164C325.426 79.4083 325.357 79.4172 325.292 79.4423C325.228 79.4673 325.17 79.5078 325.125 79.5602C324.62 80.065 324.511 80.2015 324.661 80.9247C324.689 81.0456 324.75 81.1564 324.837 81.2454C324.923 81.3344 325.032 81.398 325.152 81.4295C325.408 81.5101 325.683 81.4998 325.932 81.4003C326.181 81.3008 326.388 81.1183 326.517 80.8837C326.584 80.7658 326.616 80.6311 326.608 80.4957C326.601 80.3603 326.555 80.2297 326.476 80.1196Z" fill="#18216D"/>
<path d="M318.643 86.4783C318.248 84.9774 317.197 83.4354 317.006 81.9208C317.006 81.8123 316.963 81.7082 316.886 81.6314C316.809 81.5546 316.705 81.5115 316.597 81.5115C316.488 81.5115 316.384 81.5546 316.307 81.6314C316.231 81.7082 316.187 81.8123 316.187 81.9208C316.229 83.2102 316.487 84.4833 316.952 85.6869C317.334 87.1469 317.347 88.6888 317.798 90.1079C317.975 90.6674 318.944 90.7902 319.053 90.1079C319.169 88.8828 319.03 87.6468 318.643 86.4783Z" fill="#18216D"/>
<path d="M328.236 78.3867C327.269 77.7015 326.095 77.3732 324.912 77.4578C323.73 77.5424 322.614 78.0347 321.755 78.8507C321.697 78.9227 321.665 79.0121 321.665 79.1044C321.664 79.1967 321.695 79.2865 321.752 79.3591C321.809 79.4318 321.888 79.4832 321.978 79.5048C322.068 79.5264 322.162 79.5171 322.246 79.4783C323.085 78.961 324.009 78.5961 324.975 78.4004C325.972 78.3836 326.962 78.5549 327.895 78.9053C327.963 78.9367 328.041 78.9427 328.113 78.9221C328.185 78.9014 328.248 78.8555 328.289 78.7928C328.33 78.73 328.348 78.6545 328.338 78.58C328.328 78.5055 328.292 78.4369 328.236 78.3867Z" fill="#18216D"/>
<path d="M303.88 81.0338C302.389 80.9306 300.917 81.4211 299.786 82.3983C299.715 82.4808 299.671 82.5837 299.661 82.6925C299.652 82.8013 299.677 82.9103 299.733 83.0041C299.789 83.0979 299.873 83.1716 299.973 83.2147C300.073 83.2579 300.185 83.2682 300.291 83.2443C301.942 82.8077 304.494 81.3067 306.131 82.6712C306.181 82.7165 306.243 82.7449 306.31 82.7522C306.376 82.7594 306.443 82.7453 306.501 82.7118C306.559 82.6783 306.605 82.6271 306.631 82.5658C306.658 82.5045 306.665 82.4363 306.65 82.3711C306.363 81.1839 304.876 81.0611 303.88 81.0338Z" fill="#18216D"/>
<path d="M317.811 98.8408C317.744 98.4414 317.831 98.0311 318.057 97.6946C318.345 97.1246 318.669 96.5732 319.026 96.0435C319.498 95.2319 320.208 94.5843 321.059 94.1878C321.488 94.0027 321.968 93.9751 322.415 94.11C322.862 94.2448 323.247 94.5334 323.501 94.9246C323.648 95.3427 323.686 95.791 323.612 96.2277C323.538 96.6644 323.354 97.0752 323.078 97.4217C322.41 98.4724 318.576 101.324 317.811 98.8408Z" fill="#18216D"/>
<path d="M334.663 66.9248C332.629 66.8713 330.645 66.2881 328.905 65.2328C327.813 64.4414 324.975 61.9579 325.194 60.4706C325.262 60.034 324.661 59.6792 324.416 60.1431C323.42 62.0262 325.876 64.5642 327.145 65.8059C329.192 67.8663 331.907 68.4394 334.691 68.8078C335.878 68.9579 335.878 67.0203 334.663 66.9248Z" fill="white"/>
<path d="M313.472 65.2601C312.16 65.0429 310.901 64.58 309.761 63.8955C308.765 63.2269 306.24 61.2893 307.291 59.9657C307.564 59.6246 307.113 59.1334 306.8 59.4745C305.435 60.9618 306.95 62.8312 308.069 63.9638C309.433 65.3283 311.616 66.8702 313.527 65.9832C313.583 65.939 313.628 65.8815 313.656 65.8159C313.685 65.7503 313.698 65.6786 313.692 65.6071C313.687 65.5356 313.664 65.4666 313.626 65.406C313.587 65.3455 313.534 65.2954 313.472 65.2601Z" fill="white"/>
<path d="M299.036 66.0378C298.037 65.8458 297.023 65.7362 296.006 65.7104C295.324 65.5876 292.172 64.7688 293.005 63.5954C293.277 63.186 292.636 62.6811 292.309 63.0632C289.975 65.7922 297.248 68.1801 299.131 66.7883C299.196 66.7446 299.248 66.6836 299.281 66.6121C299.313 66.5406 299.325 66.4615 299.315 66.3836C299.305 66.3057 299.274 66.2321 299.225 66.171C299.175 66.1099 299.11 66.0638 299.036 66.0378Z" fill="white"/>
<path d="M439.28 27.0673H255.071V178.528H439.28V27.0673Z" stroke="#18216D" stroke-miterlimit="10"/>
<path d="M294.574 191.628C284.64 190.468 274.556 188.899 264.732 190.768C265.496 175.213 267.665 159.521 273.751 145.193C279.837 130.866 290.125 117.903 304.111 111.081C321.577 102.457 342.782 102.457 361.189 107.901C379.255 113.264 396.162 127.086 409.029 140.499C415.819 147.582 421.817 155.383 426.918 163.764C428.226 165.77 429.271 167.934 430.029 170.205C430.633 172.311 430.787 174.521 430.482 176.691C430.176 178.861 429.417 180.942 428.255 182.799C420.532 194.998 402.234 191.178 390.39 192.351C379.774 193.443 369.131 194.139 358.46 194.439C337.124 195.065 315.772 194.126 294.574 191.628Z" fill="#18216D"/>
<path d="M297.139 134.659C298.503 129.31 299.745 123.457 298.503 118.599C297.234 113.427 293.045 108.925 290.807 104.094C288.829 99.7141 287.792 94.5426 289.525 90.1216C289.621 89.8292 289.769 89.5565 289.961 89.3165C290.192 89.1293 290.459 88.9922 290.746 88.9138C291.032 88.8353 291.332 88.8174 291.626 88.861C291.92 88.9046 292.201 89.0089 292.453 89.1672C292.704 89.3255 292.92 89.5343 293.086 89.7805C293.709 90.8054 294.131 91.9401 294.328 93.1235C295.256 96.3983 297.48 99.1137 299.663 101.72C304.644 107.697 311.002 111.626 312.244 119.841C313.049 125.149 312.558 130.648 313.076 136.01C313.69 142.273 314.7 148.482 315.287 154.745C315.887 161.281 317.797 181.039 310.129 184.246C305.312 186.265 293.482 184.642 289.743 180.78C288.679 179.561 287.865 178.145 287.35 176.611C286.835 175.077 286.628 173.456 286.741 171.842C286.988 168.621 287.691 165.451 288.829 162.427C291.189 155.168 293.782 147.95 295.651 140.527C296.061 138.698 296.607 136.72 297.139 134.659Z" fill="white" stroke="#18216D" stroke-miterlimit="10"/>
<path d="M382.871 162.591C382.857 162.477 382.819 162.367 382.76 162.269C382.701 162.17 382.622 162.085 382.529 162.018C382.435 161.952 382.329 161.905 382.216 161.881C382.104 161.858 381.988 161.858 381.875 161.881C378.71 158.62 375.353 154.963 371.505 152.644C371.177 152.439 370.659 152.876 370.932 153.217C372.482 155.044 374.155 156.763 375.94 158.361C377.795 160.217 379.651 162.086 381.48 163.983C381.957 164.488 383.076 164.146 382.981 163.369C382.94 163.109 382.912 162.85 382.871 162.591Z" fill="white"/>
<path d="M394.252 159.903C382.667 161.922 370.891 166.084 360.562 169.891C357.964 170.971 355.261 171.78 352.497 172.306C349.512 172.584 346.509 172.616 343.519 172.402C335.55 172.279 327.063 174.189 321.482 179.893C319.517 181.912 318.971 186.948 322.192 188.244C325.412 189.54 330.515 187.248 334.186 187.684C337.893 188.164 341.645 188.201 345.361 187.794C356.787 186.575 368.244 185.938 379.733 185.883C393.105 185.801 406.559 186.497 419.768 184.423C422.287 184.159 424.727 183.394 426.945 182.172C432.403 178.788 433.768 170.382 429.511 165.798C424.721 160.64 415.634 158.866 408.947 158.702C404.021 158.622 399.099 159.024 394.252 159.903Z" fill="white" stroke="#18216D" stroke-miterlimit="10"/>
<path d="M439.28 27.0673H255.071V178.528H439.28V27.0673Z" stroke="#18216D" stroke-miterlimit="10"/>
<path d="M262.644 18.5664H431.735C433.906 18.5664 435.988 19.4289 437.524 20.9643C439.059 22.4997 439.922 24.5821 439.922 26.7534V37.0146H254.416V26.7944C254.41 25.7123 254.62 24.64 255.031 23.6393C255.443 22.6385 256.049 21.7293 256.814 20.9642C257.579 20.1991 258.488 19.5932 259.489 19.1816C260.489 18.7701 261.562 18.5609 262.644 18.5664Z" fill="#18216D"/>
<path d="M265.987 33.7944C268.776 33.7944 271.036 31.534 271.036 28.7457C271.036 25.9573 268.776 23.697 265.987 23.697C263.199 23.697 260.938 25.9573 260.938 28.7457C260.938 31.534 263.199 33.7944 265.987 33.7944Z" fill="white"/>
<path d="M289.634 28.5137C289.676 29.5082 289.423 30.493 288.906 31.3435C288.388 32.1939 287.631 32.872 286.728 33.292C285.826 33.712 284.819 33.8551 283.835 33.7031C282.851 33.5512 281.935 33.111 281.201 32.4383C280.467 31.7656 279.949 30.8904 279.713 29.9235C279.476 28.9566 279.532 27.9412 279.872 27.0058C280.212 26.0703 280.822 25.2567 281.625 24.6678C282.427 24.0788 283.386 23.741 284.381 23.6969C285.716 23.6414 287.018 24.1172 288.003 25.02C288.987 25.9228 289.574 27.1791 289.634 28.5137Z" fill="white"/>
<path d="M289.634 28.5137C289.676 29.5082 289.423 30.4929 288.905 31.3434C288.388 32.1939 287.63 32.872 286.728 33.292C285.825 33.712 284.819 33.8551 283.835 33.7031C282.851 33.5512 281.935 33.111 281.201 32.4383C280.467 31.7655 279.949 30.8904 279.713 29.9235C279.476 28.9566 279.532 27.9412 279.872 27.0058C280.212 26.0703 280.822 25.2567 281.625 24.6678C282.427 24.0788 283.386 23.741 284.381 23.6969C285.715 23.6414 287.018 24.1172 288.002 25.02C288.987 25.9228 289.574 27.1791 289.634 28.5137Z" fill="white"/>
<path d="M278.732 22.6053L290.467 34.8859" stroke="#18216D" stroke-miterlimit="10"/>
<path d="M278.459 34.6131L290.739 22.8646" stroke="#18216D" stroke-miterlimit="10"/>
<path d="M432.458 244.707H219.593V396.169H432.458V244.707Z" fill="white" stroke="#18216D" stroke-miterlimit="10"/>
<path d="M362.294 323.385C370.85 327.206 381.302 327.083 392.191 320.192C417.284 304.309 410.052 250.602 368.394 261.136C329.409 271.043 338.32 312.688 362.294 323.385Z" fill="#005FEC"/>
<path d="M399.696 290.405C395.343 291.865 391.208 293.857 386.801 295.208C382.771 296.426 378.67 297.392 374.52 298.101C374.711 292.643 374.957 287.144 375.257 281.604C375.571 275.887 376.622 269.801 376.089 264.097C376.089 263.729 375.503 263.606 375.407 264.002C374.043 269.378 374.125 275.409 373.756 280.922C373.356 286.998 373.028 293.066 372.774 299.124C372.774 299.256 372.804 299.386 372.862 299.504C372.92 299.622 373.004 299.725 373.108 299.806C373.212 299.886 373.333 299.941 373.462 299.968C373.591 299.994 373.724 299.99 373.852 299.957C382.666 298.592 392.573 296.477 400.31 291.865C401.06 291.415 400.583 290.105 399.696 290.405Z" fill="#18216D"/>
<path d="M376.417 323.222C376.315 322.76 376.377 322.277 376.594 321.857C376.799 321.475 376.376 320.957 375.98 321.229C375.666 321.433 375.407 321.712 375.229 322.04C375.05 322.369 374.956 322.738 374.957 323.112C374.957 323.767 375.312 324.832 376.144 324.75C376.25 324.745 376.353 324.707 376.436 324.641C376.519 324.575 376.579 324.484 376.608 324.381C376.813 323.999 376.499 323.645 376.417 323.222Z" fill="#18216D"/>
<path d="M348.581 292.452C348.158 291.619 347.639 292.206 347.093 292.452C346.419 292.61 345.726 292.678 345.033 292.656C344.269 292.725 343.505 292.82 342.741 292.957C342.263 293.052 342.236 293.885 342.741 293.953C344.167 294.212 345.62 294.294 347.066 294.198C347.83 294.076 349.072 293.407 348.581 292.452Z" fill="#18216D"/>
<path d="M376.813 260.386C376.734 260.311 376.633 260.263 376.526 260.248C376.418 260.233 376.308 260.253 376.212 260.304C375.85 260.534 375.582 260.886 375.455 261.295C375.327 261.705 375.349 262.147 375.516 262.542C375.553 262.679 375.625 262.805 375.726 262.906C375.826 263.006 375.952 263.078 376.089 263.115C376.211 263.14 376.337 263.14 376.459 263.113C376.581 263.085 376.695 263.033 376.795 262.958C376.894 262.883 376.976 262.787 377.036 262.678C377.096 262.568 377.131 262.448 377.14 262.323C377.24 261.997 377.262 261.652 377.205 261.316C377.148 260.98 377.014 260.661 376.813 260.386Z" fill="#18216D"/>
<path d="M350.041 274.413C349.389 274.207 348.723 274.048 348.049 273.935C347.557 273.84 347.175 274.522 347.68 274.795C348.256 275.097 348.848 275.365 349.454 275.6C349.945 275.777 350.559 276.091 351.037 275.723C351.106 275.676 351.16 275.609 351.192 275.532C351.224 275.454 351.231 275.368 351.214 275.286C351.078 274.727 350.532 274.59 350.041 274.413Z" fill="#18216D"/>
<path d="M357.996 269.078C357.573 268.696 357.136 268.368 356.631 268C356.127 267.631 355.895 267.236 355.472 266.935C355.392 266.889 355.301 266.868 355.21 266.873C355.118 266.879 355.03 266.911 354.957 266.967C354.884 267.022 354.829 267.098 354.8 267.185C354.77 267.272 354.766 267.365 354.789 267.454C355.05 268.022 355.428 268.528 355.899 268.94C356.369 269.351 356.921 269.659 357.518 269.842C357.617 269.874 357.724 269.873 357.821 269.837C357.919 269.802 358.002 269.735 358.057 269.647C358.112 269.559 358.136 269.455 358.125 269.352C358.114 269.249 358.068 269.152 357.996 269.078Z" fill="#18216D"/>
<path d="M353.534 311.828C352.639 312.46 351.831 313.208 351.132 314.052C350.805 314.475 351.228 315.226 351.76 314.871C352.656 314.234 353.463 313.482 354.162 312.633C354.503 312.237 354.039 311.46 353.534 311.828Z" fill="#18216D"/>
<path d="M361.803 318.173C361.517 318.664 361.216 319.155 360.916 319.647C360.616 320.138 360.384 320.424 360.561 321.011C360.606 321.153 360.702 321.273 360.831 321.346C360.961 321.42 361.113 321.441 361.257 321.407C361.817 321.257 361.953 320.916 362.199 320.411L362.963 318.869C363.009 318.793 363.039 318.708 363.052 318.62C363.065 318.533 363.061 318.443 363.039 318.357C363.018 318.271 362.979 318.19 362.926 318.118C362.874 318.047 362.807 317.987 362.731 317.941C362.655 317.895 362.57 317.865 362.483 317.852C362.395 317.839 362.305 317.843 362.219 317.865C362.133 317.886 362.052 317.925 361.98 317.977C361.909 318.03 361.849 318.097 361.803 318.173Z" fill="#18216D"/>
<path d="M390.581 319.428C390.308 319.333 389.857 319.224 389.816 318.855C389.809 318.725 389.756 318.601 389.666 318.506C389.577 318.41 389.457 318.349 389.327 318.333C389.198 318.317 389.066 318.347 388.956 318.417C388.846 318.487 388.764 318.594 388.725 318.719C388.624 318.994 388.598 319.29 388.649 319.578C388.699 319.867 388.825 320.137 389.013 320.361C389.201 320.585 389.445 320.756 389.721 320.855C389.996 320.955 390.292 320.981 390.581 320.929C391.413 320.779 391.222 319.674 390.581 319.428Z" fill="#18216D"/>
<path d="M357.791 409.773C360.343 412.952 365.242 412.42 369.185 411.438C373.129 410.455 377.809 409.459 380.838 412.174C382.123 398.49 378.649 384.781 371.003 373.36C363.357 361.938 352.007 353.502 338.866 349.475C327.95 346.118 317.838 347.414 306.704 348.11C293.741 348.943 281.174 353.5 269.999 359.995C253.16 369.793 231.342 385.389 225.515 404.697" fill="#18216D"/>
<path d="M292.991 378.553C291.686 377.658 290.511 376.588 289.497 375.373C288.603 374.057 287.987 372.572 287.687 371.01C287.387 369.447 287.408 367.84 287.751 366.286C288.45 363.189 289.451 360.168 290.739 357.266C297.111 340.578 295.897 322.266 302.119 305.415C303.224 302.44 304.439 298.592 306.458 296.122C308.607 293.894 311.044 291.962 313.704 290.378C323.378 283.828 337.051 279.216 346.725 288.317C351.938 293.23 353.043 301.076 352.866 308.239C352.644 318.214 350.586 328.062 346.793 337.29C345.902 339.425 344.573 341.35 342.893 342.941C341.213 344.532 339.218 345.754 337.037 346.528C333.189 347.892 331.484 347.483 329.71 351.208C327.714 355.99 326.999 361.211 327.636 366.354C328.133 368.595 328.394 370.881 328.413 373.177C327.322 385.689 312.762 385.989 303.525 383.765C299.74 382.645 296.177 380.882 292.991 378.553Z" fill="white" stroke="#18216D" stroke-miterlimit="10"/>
<path d="M386.514 334.07C387.355 332.164 388.571 330.447 390.089 329.021C393.204 326.376 396.626 324.117 400.282 322.294C400.465 322.165 400.671 322.074 400.889 322.027C401.107 321.98 401.332 321.978 401.551 322.021C401.779 322.133 401.96 322.321 402.062 322.553C402.165 322.786 402.182 323.046 402.111 323.29C401.965 323.773 401.702 324.214 401.347 324.573L398.85 327.547C395.875 331.095 402.793 328.912 403.898 328.489C407.014 327.361 409.892 325.663 412.386 323.481C413.241 322.687 414.153 321.958 415.115 321.298C416.365 320.457 417.877 320.098 419.372 320.288C420.405 320.548 421.328 321.133 422.006 321.955C422.683 322.777 423.08 323.795 423.138 324.859C423.37 329.58 419.208 334.793 415.824 337.14C412.052 339.771 407.808 341.652 403.325 342.68C402.929 342.762 402.562 342.952 402.266 343.229C401.97 343.506 401.756 343.859 401.647 344.249L389.68 387.559C388.457 392.123 386.977 396.615 385.245 401.013C383.294 405.925 380.524 410.769 375.134 412.365C373.237 412.904 371.234 412.953 369.313 412.507C367.392 412.06 365.615 411.134 364.15 409.814C354.735 401.313 364.791 384.12 368.312 375.141C371.632 366.736 375.175 358.426 378.941 350.212C380.824 346.109 382.771 342.016 384.782 337.931C385.409 336.553 385.928 335.257 386.514 334.07Z" fill="white" stroke="#18216D" stroke-miterlimit="10"/>
<path d="M297.138 291.169C298.559 289.619 300.067 288.152 301.655 286.775C299.049 284.988 296.606 281.972 297.561 278.957C298.132 277.49 299.193 276.265 300.563 275.491C302.303 274.369 304.255 273.619 306.298 273.288C308.341 272.957 310.43 273.052 312.435 273.567C316.003 274.661 319.243 276.626 321.863 279.284C322.239 279.697 322.706 280.015 323.228 280.212C323.638 280.287 324.059 280.287 324.47 280.212L337.323 278.97C340.662 278.532 344.038 278.454 347.394 278.738C352.606 279.366 358.241 282.013 358.719 287.785C359.197 293.557 354.98 298.701 349.986 301.171C344.651 303.736 338.524 303.9 332.616 303.968C326.707 304.037 320.594 304.105 315.191 306.52C312.767 307.431 310.781 309.231 309.637 311.555C309.078 312.92 308.86 314.775 307.495 315.458C305.407 316.522 305.162 316.672 304.357 318.951C303.429 321.598 302.365 324.218 301.232 326.797C300.099 329.376 296.661 334.984 293.181 332.146C290.589 330.044 290.862 321.229 290.712 318.077C290.33 310.791 290.561 301.007 294.532 294.608C295.3 293.388 296.172 292.238 297.138 291.169Z" fill="#18216D"/>
<path d="M339.002 332.623C338.596 332.788 338.159 332.864 337.721 332.845C337.283 332.826 336.854 332.713 336.464 332.514C335.904 332.268 335.099 332.814 335.55 333.442C336.039 334.135 336.772 334.618 337.602 334.793C338.433 334.967 339.298 334.821 340.025 334.383C341.185 333.715 340.175 332.091 339.002 332.623Z" fill="#18216D"/>
<path d="M330.242 316.413C329.095 315.689 326.557 317.559 328.768 318.541C329.669 318.937 331.006 318.023 330.678 316.999C330.612 316.756 330.456 316.546 330.242 316.413Z" fill="#18216D"/>
<path d="M349.263 315.908C349.006 315.706 348.689 315.597 348.362 315.597C348.036 315.597 347.719 315.706 347.462 315.908C347.288 316.087 347.183 316.322 347.163 316.571C347.143 316.819 347.21 317.067 347.353 317.272C347.394 317.435 347.458 317.592 347.544 317.736C347.654 317.911 347.826 318.038 348.026 318.092C348.226 318.145 348.439 318.12 348.622 318.023C348.867 317.904 349.084 317.734 349.258 317.525C349.432 317.315 349.559 317.071 349.631 316.808C349.672 316.639 349.659 316.46 349.592 316.299C349.526 316.137 349.411 316 349.263 315.908Z" fill="#18216D"/>
<path d="M341.335 317.859C341.172 317.368 340.298 317.231 340.203 317.859C339.973 319.6 339.626 321.323 339.166 323.017C338.852 324.149 338.197 325.65 338.906 326.742C339.48 327.615 341.117 327.07 340.694 325.992C340.271 324.914 341.253 322.649 341.458 321.475C341.718 320.278 341.676 319.035 341.335 317.859Z" fill="#18216D"/>
<path d="M302.529 316.194C301.516 316.302 300.548 316.669 299.718 317.259C298.71 317.808 297.859 318.607 297.248 319.578C296.44 320.867 296.032 322.366 296.076 323.887C296.12 325.407 296.613 326.88 297.494 328.12C298.365 329.229 299.631 329.958 301.028 330.154C302.424 330.35 303.842 329.997 304.985 329.171C309.61 325.882 310.17 315.43 302.529 316.194Z" fill="white"/>
<path d="M303.647 320.725C303.192 320.763 302.752 320.906 302.362 321.143C301.971 321.38 301.641 321.703 301.396 322.089C301.098 322.472 300.913 322.93 300.862 323.413C300.811 323.895 300.897 324.382 301.109 324.818C301.179 324.954 301.3 325.058 301.445 325.106C301.591 325.155 301.749 325.144 301.887 325.077C302.256 324.886 302.174 324.368 302.201 324.013C302.207 323.527 302.362 323.054 302.645 322.659C302.928 322.263 303.325 321.965 303.784 321.803C304.33 321.584 304.248 320.656 303.647 320.725Z" fill="#18216D"/>
<path d="M309.951 341.383C307.1 339.405 303.484 335.093 303.784 331.122L303.402 331.013C302.164 330.724 300.961 330.303 299.813 329.758C299.977 329.84 299.813 335.789 299.936 336.444C300.199 338.812 300.697 341.147 301.423 343.416C302.297 346.145 304.48 354.101 308.764 351.604C310.838 350.403 312.858 349.147 314.891 347.865C315.969 347.182 317.02 346.5 318.098 345.804L318.452 345.6C315.46 344.54 312.606 343.125 309.951 341.383Z" fill="#18216D"/>
<path d="M398.167 328.857C398.126 328.769 398.055 328.699 397.967 328.658C397.879 328.618 397.779 328.61 397.686 328.636C397.592 328.662 397.511 328.721 397.457 328.801C397.403 328.882 397.379 328.979 397.389 329.075C397.534 330.03 397.487 331.004 397.253 331.941C397.019 332.878 396.601 333.759 396.025 334.533C395.697 335.011 396.393 335.475 396.789 335.12C397.62 334.335 398.196 333.318 398.442 332.201C398.687 331.084 398.592 329.919 398.167 328.857Z" fill="#18216D"/>
<path d="M401.77 337.385C399.995 336.968 398.132 337.156 396.475 337.917C395.074 338.44 393.91 339.453 393.201 340.769C393.168 340.851 393.167 340.941 393.195 341.024C393.224 341.107 393.281 341.177 393.357 341.222C393.433 341.266 393.522 341.282 393.608 341.267C393.694 341.251 393.773 341.206 393.828 341.138C394.807 339.847 396.242 338.978 397.84 338.709C399.199 338.637 400.545 338.408 401.852 338.027C402.152 337.877 402.029 337.494 401.77 337.385Z" fill="#18216D"/>
<path d="M432.458 244.707H219.593V396.169H432.458V244.707Z" stroke="#18216D" stroke-miterlimit="10"/>
<path d="M227.166 231.431H424.912C427.083 231.431 429.166 232.293 430.701 233.829C432.236 235.364 433.099 237.446 433.099 239.618V249.879H218.938V239.618C218.938 238.539 219.151 237.471 219.565 236.475C219.979 235.479 220.586 234.575 221.351 233.814C222.115 233.053 223.023 232.451 224.021 232.042C225.019 231.633 226.088 231.425 227.166 231.431Z" fill="#18216D"/>
<path d="M230.51 246.659C233.298 246.659 235.559 244.398 235.559 241.61C235.559 238.822 233.298 236.561 230.51 236.561C227.722 236.561 225.461 238.822 225.461 241.61C225.461 244.398 227.722 246.659 230.51 246.659Z" fill="white"/>
<path d="M254.157 241.378C254.199 242.373 253.946 243.357 253.428 244.208C252.911 245.058 252.153 245.736 251.251 246.156C250.348 246.576 249.342 246.719 248.358 246.567C247.374 246.415 246.457 245.975 245.724 245.303C244.99 244.63 244.472 243.755 244.236 242.788C243.999 241.821 244.054 240.806 244.395 239.87C244.735 238.935 245.345 238.121 246.147 237.532C246.95 236.943 247.909 236.605 248.904 236.561C250.238 236.506 251.541 236.982 252.525 237.884C253.51 238.787 254.097 240.043 254.157 241.378Z" fill="white"/>
<path d="M254.157 241.378C254.199 242.373 253.945 243.357 253.428 244.208C252.911 245.058 252.153 245.736 251.25 246.156C250.348 246.576 249.341 246.719 248.357 246.567C247.374 246.415 246.457 245.975 245.723 245.303C244.99 244.63 244.472 243.755 244.235 242.788C243.999 241.821 244.054 240.806 244.394 239.87C244.735 238.935 245.345 238.121 246.147 237.532C246.95 236.943 247.909 236.605 248.903 236.561C250.238 236.506 251.54 236.981 252.525 237.884C253.51 238.787 254.096 240.043 254.157 241.378Z" fill="white"/>
<path d="M243.254 235.47L254.989 247.75" stroke="#18216D" stroke-miterlimit="10"/>
<path d="M242.981 247.477L255.262 235.729" stroke="#18216D" stroke-miterlimit="10"/>
<path d="M411.458 224.185L428.105 203.663L434.655 224.185L449.051 202.981L455.805 224.185L469.955 203.322L476.614 224.185L490.191 204.181" stroke="#18216D" stroke-miterlimit="10"/>
<path d="M182.22 383.833L198.867 363.311L205.416 383.833L219.812 362.629L226.566 383.833L240.73 362.97L247.375 383.833" stroke="#00ECD0" stroke-width="2" stroke-miterlimit="10"/>
<path d="M283.057 478.108C283.427 477.057 284.048 476.114 284.867 475.359C285.685 474.604 286.676 474.06 287.753 473.776C288.829 473.492 289.959 473.476 291.043 473.729C292.128 473.983 293.134 474.497 293.973 475.229L294.396 475.583C295.271 476.333 296.321 476.849 297.448 477.083C298.576 477.317 299.745 477.262 300.845 476.923C301.946 476.584 302.943 475.971 303.743 475.143C304.543 474.315 305.121 473.297 305.422 472.186L307.591 463.889C307.89 462.777 308.467 461.758 309.266 460.928C310.066 460.098 311.062 459.484 312.163 459.143C313.264 458.803 314.433 458.746 315.562 458.98C316.69 459.213 317.741 459.729 318.617 460.478L318.876 460.71C319.75 461.46 320.8 461.975 321.928 462.21C323.056 462.444 324.224 462.389 325.325 462.05C326.425 461.711 327.422 461.098 328.222 460.27C329.023 459.442 329.6 458.424 329.901 457.312L331.948 449.494C332.247 448.381 332.823 447.362 333.623 446.532C334.422 445.702 335.419 445.088 336.52 444.748C337.621 444.407 338.79 444.351 339.918 444.584C341.047 444.818 342.098 445.333 342.973 446.082C343.848 446.832 344.898 447.348 346.025 447.582C347.153 447.816 348.321 447.761 349.422 447.422C350.523 447.083 351.52 446.471 352.32 445.642C353.12 444.814 353.697 443.797 353.998 442.685" stroke="#18216D" stroke-miterlimit="10"/>
<path d="M1 434.614C1.36979 433.564 1.99102 432.62 2.80948 431.865C3.62793 431.11 4.61873 430.567 5.69539 430.283C6.77206 429.999 7.90186 429.983 8.9862 430.236C10.0705 430.489 11.0764 431.003 11.9161 431.735L12.3391 432.09C13.2136 432.839 14.2636 433.355 15.3913 433.589C16.5189 433.823 17.6875 433.768 18.7881 433.429C19.8887 433.09 20.8856 432.478 21.6858 431.649C22.486 430.821 23.0634 429.804 23.3644 428.692L25.534 420.396C25.8332 419.283 26.4094 418.264 27.2089 417.434C28.0084 416.604 29.005 415.99 30.1059 415.65C31.2067 415.309 32.3759 415.253 33.5044 415.486C34.6329 415.72 35.6839 416.235 36.5593 416.984L36.8185 417.216C37.693 417.966 38.743 418.482 39.8706 418.716C40.9983 418.95 42.1669 418.895 43.2675 418.556C44.3681 418.217 45.365 417.604 46.1652 416.776C46.9654 415.948 47.5428 414.93 47.8438 413.819L49.8906 406" stroke="#00ECD0" stroke-width="2" stroke-miterlimit="10"/>
<path d="M399.559 1.19611C400.596 0.80858 401.712 0.679238 402.81 0.819243C403.909 0.959249 404.956 1.3644 405.863 1.99972C406.769 2.63504 407.508 3.48144 408.014 4.46588C408.521 5.45033 408.78 6.54323 408.77 7.65026V8.20971C408.761 9.36076 409.044 10.4953 409.592 11.5076C410.14 12.5199 410.935 13.3772 411.903 13.9996C412.872 14.622 413.982 14.9892 415.13 15.0672C416.278 15.1452 417.428 14.9313 418.472 14.4455L426.222 10.7477C427.266 10.2619 428.415 10.0481 429.563 10.126C430.712 10.204 431.822 10.5713 432.79 11.1937C433.759 11.8161 434.554 12.6733 435.101 13.6857C435.649 14.698 435.932 15.8325 435.924 16.9835V17.352C435.915 18.503 436.198 19.6375 436.746 20.6498C437.294 21.6622 438.089 22.5194 439.057 23.1418C440.025 23.7642 441.135 24.1315 442.284 24.2095C443.432 24.2874 444.582 24.0736 445.625 23.5878L452.926 20.1083C453.97 19.6194 455.121 19.4031 456.271 19.4796C457.421 19.556 458.534 19.9227 459.504 20.5455C460.474 21.1682 461.271 22.0267 461.819 23.0407C462.368 24.0548 462.65 25.1913 462.641 26.3441V26.3441C462.633 27.4934 462.916 28.6259 463.464 29.6365C464.011 30.6472 464.804 31.5032 465.771 32.1253C466.737 32.7473 467.845 33.1151 468.991 33.1946C470.138 33.2741 471.286 33.0627 472.329 32.58" stroke="#18216D" stroke-miterlimit="10"/>
<path d="M473.694 327.342C471.593 324.895 469.994 322.057 468.99 318.992C467.986 315.926 467.595 312.693 467.84 309.476C468.085 306.26 468.962 303.123 470.419 300.246C471.876 297.368 473.886 294.805 476.334 292.704C481.278 288.461 487.704 286.355 494.2 286.851C500.696 287.346 506.729 290.401 510.972 295.345" stroke="#00ECD0" stroke-width="2" stroke-miterlimit="10"/>
<path d="M676.707 39.3479C683.866 39.3479 689.669 33.5443 689.669 26.3851C689.669 19.2258 683.866 13.4222 676.707 13.4222C669.547 13.4222 663.744 19.2258 663.744 26.3851C663.744 33.5443 669.547 39.3479 676.707 39.3479Z" fill="#005FEC"/>
<path d="M712.961 377.161C716.799 377.161 720.599 377.917 724.144 379.386C727.69 380.855 730.911 383.008 733.624 385.722C736.337 388.437 738.488 391.659 739.956 395.205C741.423 398.751 742.177 402.551 742.176 406.389" fill="white"/>
<path d="M712.961 377.161C716.799 377.161 720.599 377.917 724.144 379.386C727.69 380.855 730.911 383.008 733.624 385.722C736.337 388.437 738.488 391.659 739.956 395.205C741.423 398.751 742.177 402.551 742.176 406.389" stroke="#18216D" stroke-miterlimit="10"/>
<path d="M730.605 3.87056L689.669 44.806" stroke="#18216D" stroke-miterlimit="10"/>
<rect x="255.371" y="179.197" width="177.387" height="23.1968" fill="white"/>
<rect x="222.623" y="396.837" width="169.2" height="28.6548" fill="white"/>
<rect x="490.068" y="231.731" width="222.416" height="42.3" fill="white"/>
<path d="M678.084 261.082L702.959 240.573L709.495 261.082L731.396 239.891L738.15 261.082L759.696 240.232L766.341 261.082L787 241.078" stroke="#00ECD0" stroke-width="2" stroke-miterlimit="10"/>
<path d="M564.816 254.259L523.88 295.194" stroke="#18216D" stroke-miterlimit="10"/>
<path d="M553.899 273.362L512.964 314.298" stroke="#18216D" stroke-miterlimit="10"/>
</svg>
