<svg xmlns="http://www.w3.org/2000/svg" id="Layer_1" x="0" y="0" enable-background="new 0 0 64 64" version="1.1" viewBox="0 0 64 64" xml:space="preserve"><path fill="#1d75b9" d="M42.8,45.1c-0.4-0.4-1-0.7-1.7-0.7H21.7c-1.3,0-2.4,1.1-2.4,2.4c0,0.6,0.3,1.2,0.7,1.7c0.4,0.4,1,0.7,1.7,0.7   h2.4v13.5h14.5V49.1h2.4c1.3,0,2.4-1.1,2.4-2.4C43.5,46.1,43.2,45.5,42.8,45.1z M36.2,60.2h-9.7V48.9h9.7V60.2z"/><path fill="#2d3e50" d="M15.6,31.9c0,2.2-1.6,3.8-3.7,3.8c-2.1,0-3.8-1.6-3.8-3.7c0-2.1,1.7-3.8,3.7-3.8   C13.9,28.1,15.6,29.8,15.6,31.9z"/><path fill="#1d75b9" d="M14,61.1c0.9,0,1.9,0,2.8-0.1c0.9,0,1.7-0.1,2.5-0.1c1,0,1.7-0.8,1.7-1.7s-0.8-1.7-1.7-1.7   c-0.9,0-1.8,0-2.6,0.1c-1.9,0.1-3.9,0.2-5.5-0.2C9.8,57,8.6,56.2,7.7,55c-0.8-1.1-0.9-2.3-1.2-3.9c0-0.2-0.1-0.5-0.1-0.7l-1.2-7.6   c-0.1-0.9-1-1.6-2-1.5c-0.9,0.1-1.6,1-1.5,2L3,50.9c0,0.2,0.1,0.5,0.1,0.7c0.3,1.8,0.5,3.6,1.8,5.4c1.3,1.9,3.3,3.2,5.5,3.7   C11.6,61,12.8,61.1,14,61.1z"/><path fill="#2d3e50" d="M24.1 40h-2.2c-.6 0-1.3 0-2.1 0-.3 0-.6-.1-.9-.2-1.1-.6-2.2-1.3-3.4-2-.8-.5-1.9-1-3.9-.9 0 0-.1 0-.1 0-2 .2-3.4 2-3.3 4.1 0 .1 0 .3 0 .4.2 3.2.5 6.5.5 9.7 0 1.3.3 2.3.9 3 .8 1.1 2.2 1.6 4 1.6 1.5 0 2.9 0 4.3 0 .6 0 1.2 0 1.8 0 .4 0 1.2 0 1.8 0 .1 0 .1 0 .1 0 .2 0 .4-.2.4-.4v-4.6c0-.2-.2-.4-.4-.4-2.3-.1-5.6-.3-5.6-.3l-.3-5.6c0-.3-.1-.6-.1-.9 0-.4-.1-.8-.1-1.2.1.1.2.1.3.2.6.3 1.2.7 1.8.9.4.2.8.3 1.2.3.7 0 1.5 0 2.5 0 .6 0 1.2 0 1.8 0 .3 0 .6 0 .9 0 1.1 0 2-.8 2-1.8C26.1 40.7 25.3 40 24.1 40zM46.8 31.6c0 2.3 1.7 4 3.9 4 2.3 0 4-1.7 4-3.9 0-2.2-1.8-4-3.9-4C48.6 27.6 46.8 29.4 46.8 31.6z"/><path fill="#1d75b9" d="M49.3,61.6c-1,0-2,0-2.9-0.1c-0.9,0-1.8-0.1-2.6-0.1c-1,0-1.8-0.8-1.8-1.8s0.8-1.8,1.8-1.8    c0.9,0,1.9,0,2.8,0.1c2,0.1,4.1,0.2,5.8-0.2c1.4-0.3,2.7-1.2,3.6-2.5c0.8-1.1,1-2.5,1.2-4.1c0-0.2,0.1-0.5,0.1-0.7l1.2-8    c0.2-1,1.1-1.7,2.1-1.5c1,0.2,1.7,1.1,1.5,2.1l-1.2,8c0,0.2-0.1,0.5-0.1,0.7c-0.3,1.9-0.5,3.8-1.9,5.7c-1.4,2-3.5,3.4-5.8,3.9    C51.9,61.5,50.6,61.6,49.3,61.6z"/><path fill="#2d3e50" d="M46.9,50.5c0,0-3.5,0.2-5.9,0.3c-0.2,0-0.4,0.2-0.4,0.4v4.9c0,0.2,0.2,0.4,0.4,0.4c0.6,0,1.6,0,2,0    c2.2,0,4.2,0,6.4,0c3.3,0,5.1-1.5,5.1-4.8c0.1-3.6,0.4-7.1,0.6-10.7c0.1-2.2-1.3-4.1-3.5-4.3c0,0-0.1,0-0.1,0    c-0.7-0.1-1.4,0.1-1.9,0.4c-1.1,0.5-1.9,1.6-2.1,3c-0.2,1.1-0.3,2.3-0.4,3.5c0,0.3,0,0.7-0.1,1L46.9,50.5z"/><g><path fill="#1d75b9" d="M40.9 4.5l-.3.1c-.8.4-1.5.7-2.3 1.1-1.9-1.2-4.1-1.9-6.4-1.9-6.5 0-11.8 5.3-11.8 11.8 0 2.8 1 5.5 2.8 7.6l.4.5-1.9 1.6L21 24.9c-2.2-2.6-3.3-5.8-3.3-9.2 0-7.9 6.4-14.3 14.3-14.3C35.2 1.4 38.4 2.5 40.9 4.5zM46.3 15.7v.7h-2.5v-.7c0-1.7-.4-3.4-1.1-5l1.6-2.3C45.6 10.7 46.3 13.2 46.3 15.7z"/><circle cx="24.9" cy="26.7" r="1" fill="#1d75b9" transform="rotate(-80.462 24.918 26.721)"/><circle cx="44" cy="20.9" r="2.1" fill="#1d75b9"/><path fill="#1d75b9" d="M40.1 25.2c-.3-.2-.6-.3-.9-.3-.6 0-1.1.3-1.4.8-.5.8-.3 1.8.5 2.3.3.2.6.3.9.3.6 0 1.1-.3 1.4-.8C41.1 26.8 40.9 25.7 40.1 25.2zM32.1 27.3c-.2 0-.4 0-.6.1-.4.2-.6.5-.8.8-.1.4-.1.8 0 1.1.2.5.8.9 1.4.9.2 0 .4 0 .6-.1.4-.2.6-.5.8-.8.1-.4.1-.8 0-1.1C33.2 27.7 32.7 27.3 32.1 27.3zM43.3 6.8c.1-.2.1-.5 0-.7 0 0 0 0 0-.1l-.1-.1c-.2-.2-.5-.2-.8-.1 0 0-.1 0-.1.1l-.7.3c-1.2.6-2.5 1.2-3.7 1.8-.7.3-1.4.7-2.1 1-1.8.9-3.6 1.8-5.4 2.7-1.8.9-2.7 2.9-2.1 4.9.5 1.8 2.2 3 4 3h0c.2 0 .3 0 .5 0 1.3-.1 2.3-.8 3.1-2 1.6-2.4 3.2-4.7 4.9-7.1L43.3 6.8z"/></g></svg>