<svg xmlns="http://www.w3.org/2000/svg" id="Layer_1" x="0" y="0" enable-background="new 0 0 64 64" version="1.1" viewBox="0 0 64 64" xml:space="preserve"><path fill="#1d75b9" d="M56.9 28.8c-.1-.3-.3-.6-.5-.8-.3-.2-.6-.2-.9-.1-.3.1-.6.3-.8.5l-5 8.1H39.4c-.7 0-1.2.5-1.2 1.2 0 .7.5 1.2 1.2 1.2h11.7l5.7-9.2C56.9 29.4 57 29.1 56.9 28.8zM55.8 41.4c-.5-.5-1.2-.8-2-.8H30.7c-1.6 0-2.8 1.3-2.8 2.8 0 .8.3 1.5.8 2 .5.5 1.2.8 2 .8h2.9v16h17.3v-16h2.9c1.6 0 2.8-1.3 2.8-2.8C56.6 42.7 56.3 42 55.8 41.4zM48 59.4H36.5V46H48V59.4z"/><path fill="#2d3e50" d="M23.4,25.7c0,2.6-1.9,4.5-4.4,4.5c-2.6,0-4.5-1.9-4.5-4.4c0-2.5,2-4.5,4.4-4.5C21.4,21.2,23.4,23.2,23.4,25.7    z"/><path fill="#1d75b9" d="M21.5,60.5c1.1,0,2.2-0.1,3.3-0.1c1-0.1,2-0.1,2.9-0.1c1.1,0,2.1-0.9,2.1-2.1c0-1.1-0.9-2.1-2.1-2.1    c-1,0-2.1,0.1-3.1,0.1c-2.3,0.1-4.6,0.2-6.6-0.2c-1.6-0.4-3-1.3-4.1-2.8c-0.9-1.3-1.1-2.8-1.4-4.6c0-0.3-0.1-0.6-0.1-0.8l-1.4-9    C11,37.6,9.9,36.8,8.8,37c-1.1,0.2-1.9,1.2-1.7,2.3l1.4,9c0,0.3,0.1,0.5,0.1,0.8c0.3,2.1,0.6,4.3,2.1,6.4c1.6,2.3,3.9,3.8,6.5,4.4    C18.6,60.4,20.1,60.5,21.5,60.5z"/><path fill="#2d3e50" d="M33.6,35.3h-2.6c-0.7,0-1.6,0-2.5,0c-0.3,0-0.7-0.1-1-0.3c-1.3-0.8-2.6-1.5-4-2.4c-0.9-0.6-2.3-1.2-4.7-1    c0,0-0.1,0-0.1,0c-2.4,0.3-4.1,2.4-3.9,4.9c0,0.2,0,0.3,0,0.5c0.2,3.9,0.6,7.7,0.7,11.6c0,1.5,0.4,2.7,1,3.6    c1,1.3,2.6,1.9,4.8,1.9c1.8,0,3.4,0,5.1,0c0.7,0,1.4,0,2.2,0c0.5,0,1.5,0,2.1,0c0.1,0,0.1,0,0.2,0c0.3,0,0.5-0.2,0.5-0.5V48    c0-0.3-0.2-0.5-0.5-0.5c-2.7-0.2-6.7-0.4-6.7-0.4l-0.3-6.6c0-0.4-0.1-0.7-0.1-1.1c0-0.5-0.1-0.9-0.1-1.4c0.1,0.1,0.3,0.2,0.4,0.2    c0.7,0.4,1.4,0.8,2.1,1.1c0.5,0.2,1,0.4,1.4,0.4c0.9,0,1.8,0,2.9,0c0.7,0,1.4,0,2.1,0c0.4,0,0.7,0,1.1,0c1.3,0,2.3-0.9,2.3-2.2    C35.9,36.3,34.9,35.3,33.6,35.3z"/><g><path fill="#1d75b9" d="M47.2 4.3L47 4.4c-.6.3-1.3.6-1.9.9-1.6-1-3.4-1.5-5.3-1.5-5.4 0-9.8 4.4-9.8 9.8 0 2.3.8 4.5 2.3 6.3l.4.4L31 21.7l-.4-.4c-1.8-2.1-2.8-4.8-2.8-7.6 0-6.6 5.3-11.9 11.9-11.9C42.5 1.7 45.1 2.6 47.2 4.3zM51.7 13.6v.6h-2.1v-.6c0-1.4-.3-2.8-.9-4.1L50 7.6C51.1 9.4 51.7 11.5 51.7 13.6z"/><circle cx="33.9" cy="22.7" r=".9" fill="#1d75b9" transform="rotate(-80.462 33.905 22.742)"/><circle cx="49.8" cy="17.9" r="1.8" fill="#1d75b9"/><path fill="#1d75b9" d="M46.5 21.5c-.2-.1-.5-.2-.8-.2-.5 0-.9.2-1.2.6-.4.6-.2 1.5.4 1.9.2.1.5.2.8.2.5 0 .9-.2 1.2-.6C47.4 22.8 47.2 21.9 46.5 21.5zM39.9 23.2c-.2 0-.3 0-.5.1-.3.1-.5.4-.7.7-.1.3-.1.6 0 1 .2.5.6.7 1.1.7.2 0 .3 0 .5-.1.3-.1.5-.4.7-.7.1-.3.1-.6 0-1C40.8 23.5 40.4 23.2 39.9 23.2zM49.2 6.2c.1-.2.1-.4 0-.5 0 0 0 0 0-.1L49 5.5c-.2-.2-.4-.2-.6-.1 0 0-.1 0-.1.1l-.6.3c-1 .5-2 1-3.1 1.5C44.1 7.5 43.5 7.7 43 8c-1.5.7-3 1.5-4.5 2.2-1.5.8-2.2 2.4-1.7 4.1.5 1.5 1.8 2.5 3.3 2.5h0c.1 0 .3 0 .4 0 1-.1 1.9-.7 2.6-1.7 1.3-2 2.7-3.9 4-5.9L49.2 6.2z"/></g></svg>