<svg width="24" height="20" viewBox="0 0 24 20" fill="none" xmlns="http://www.w3.org/2000/svg">
<path fill-rule="evenodd" clip-rule="evenodd" d="M10.8 14.5846C10.8 16 10.3304 17.1231 9.3913 17.9538C8.45217 18.7846 7.26262 19.2 5.82261 19.2C4.13216 19.2 2.73914 18.6462 1.64348 17.5385C0.547821 16.4308 0 14.8 0 12.6462C0 10.6154 0.297388 8.87693 0.892174 7.43077C1.48696 5.98461 2.20695 4.75385 3.05217 3.73846C3.8974 2.72307 4.77391 1.9077 5.68174 1.29231C6.58957 0.67692 7.38782 0.246155 8.07652 0L10.4243 3.23077C9.04695 3.9077 7.93566 4.81538 7.09043 5.95385C6.24521 7.09231 5.82261 8.52307 5.82261 10.2462C6.07304 10.1846 6.41739 10.1538 6.85565 10.1538C8.10783 10.1538 9.07826 10.5846 9.76696 11.4462C10.4557 12.3077 10.8 13.3538 10.8 14.5846ZM24 14.5846C24 16 23.5304 17.1231 22.5913 17.9538C21.6522 18.7846 20.4626 19.2 19.0226 19.2C17.3322 19.2 15.9391 18.6462 14.8435 17.5385C13.7478 16.4308 13.2 14.8 13.2 12.6462C13.2 10.6154 13.4974 8.87693 14.0922 7.43077C14.687 5.98461 15.407 4.75385 16.2522 3.73846C17.0974 2.72307 17.9739 1.9077 18.8817 1.29231C19.7896 0.67692 20.5878 0.246155 21.2765 0L23.6243 3.23077C22.2469 3.9077 21.1357 4.81538 20.2904 5.95385C19.4452 7.09231 19.0226 8.52307 19.0226 10.2462C19.273 10.1846 19.6174 10.1538 20.0557 10.1538C21.3078 10.1538 22.2783 10.5846 22.967 11.4462C23.6557 12.3077 24 13.3538 24 14.5846Z" fill="#10a0e8"/>
</svg>
