<svg xmlns="http://www.w3.org/2000/svg" id="Layer_1" x="0" y="0" enable-background="new 0 0 64 64" version="1.1" viewBox="0 0 64 64" xml:space="preserve"><circle cx="32.1" cy="5.2" r="3.2" fill="#1d75b9"/><path fill="#2d3e50" d="M40,13.1c-0.3,0.5-1,0.7-1.5,0.5c-1-0.5-1.9-0.9-2.9-1.1c0,0.1,0,0.3,0,0.4v5.4c-0.2,0.1-0.3,0.2-0.5,0.3    l-0.1,0.1c-0.2,0.2-0.4,0.4-0.6,0.4c0,0-0.1,0-0.1,0c-0.9,0.3-1.8,0.5-2.5,0.4c-0.9-0.1-1.7-0.4-2.5-1.1c-0.3-0.2-0.5-0.4-0.8-0.5    v-5.1c0-0.1,0-0.2,0-0.3c-1,0.3-2,0.6-3,1.1c-0.1,0.1-0.3,0.1-0.4,0.1c-0.4,0-0.8-0.2-1-0.7c-0.3-0.6,0-1.2,0.6-1.5    c1.8-0.8,3.6-1.3,5.3-1.6c1.4-0.2,2.8-0.2,4.1-0.1c1.9,0.2,3.7,0.8,5.5,1.7C40.1,11.9,40.3,12.6,40,13.1z"/><circle cx="58.8" cy="32.1" r="3.2" fill="#1d75b9"/><path fill="#2d3e50" d="M54.1,34.1c-0.2,1.9-0.8,3.7-1.7,5.5c-0.3,0.5-0.9,0.8-1.5,0.5c-0.5-0.3-0.7-1-0.5-1.5c0.5-1,0.9-1.9,1.1-2.9    c-0.1,0-0.3,0-0.4,0h-4.8c0.2-0.3,0.4-0.5,0.5-0.7c0.2-0.4,0.2-0.7,0.3-1.2c0-1,0-2,0-3c0-0.9-0.4-1.8-1.1-2.3h5.1    c0.1,0,0.2,0,0.3,0c-0.3-1-0.6-2-1.1-3c-0.1-0.1-0.1-0.3-0.1-0.4c0-0.4,0.2-0.8,0.7-1c0.6-0.3,1.2,0,1.5,0.6    c0.8,1.8,1.3,3.6,1.6,5.3C54.2,31.3,54.2,32.7,54.1,34.1z"/><circle cx="31.9" cy="58.8" r="3.2" fill="#1d75b9"/><path fill="#2d3e50" d="M39.4,52.4c-1.8,0.8-3.6,1.3-5.3,1.6c-1.4,0.2-2.8,0.2-4.1,0.1c-1.9-0.2-3.7-0.8-5.5-1.7    c-0.5-0.3-0.8-0.9-0.5-1.5c0.3-0.5,1-0.7,1.5-0.5c1,0.5,1.9,0.9,2.9,1.1c0-0.1,0-0.3,0-0.4v-5.4c0.2-0.1,0.4-0.3,0.6-0.5    c0.1-0.1,0.3-0.2,0.4-0.3c0.7-0.4,1.8-0.6,2.8-0.5c1.2,0.1,1.9,0.5,2.2,0.9c0.3,0.3,0.6,0.6,1,0.7v5.1c0,0.1,0,0.2,0,0.3    c1-0.3,2-0.6,3-1.1c0.1-0.1,0.3-0.1,0.4-0.1c0.4,0,0.8,0.2,1,0.7C40.2,51.5,39.9,52.2,39.4,52.4z"/><circle cx="5.2" cy="31.9" r="3.2" fill="#1d75b9"/><path fill="#2d3e50" d="M13.6,38.5c0.1,0.1,0.1,0.3,0.1,0.4c0,0.4-0.2,0.8-0.7,1c-0.6,0.3-1.2,0-1.5-0.6c-0.8-1.8-1.3-3.6-1.6-5.3    c-0.2-1.4-0.2-2.8-0.1-4.1c0.2-1.9,0.8-3.7,1.7-5.5c0.3-0.5,0.9-0.8,1.5-0.5c0.5,0.3,0.7,1,0.5,1.5c-0.5,1-0.9,1.9-1.1,2.9    c0.1,0,0.3,0,0.4,0h4.8c-0.5,0.5-0.8,1.2-0.8,2c0,0.5,0,1.1,0,1.6l0,1.2c0,1,0.4,1.8,1.1,2.4h-5.1c-0.1,0-0.2,0-0.3,0    C12.8,36.5,13.2,37.4,13.6,38.5z"/><g><path fill="#1d75b9" d="M45,30.8c0-0.4-0.2-0.6-0.5-0.7c-1.6-0.6-2.7-1.6-3.5-3.1c-0.8-1.6-1.1-3-0.7-4.4c0.1-0.4,0-0.7-0.4-0.9       c-0.3-0.2-0.6-0.3-0.9-0.5L38.9,21c-0.4-0.3-0.9-0.6-1.4-0.8c-0.3-0.2-0.7-0.1-0.8,0c-0.1,0-0.1,0.1-0.2,0.2l-0.1,0.1       c-0.3,0.2-0.6,0.5-0.9,0.6c-0.1,0.1-0.3,0.1-0.4,0.2c-1.2,0.4-2.3,0.6-3.4,0.5c-1.4-0.1-2.6-0.6-3.8-1.6       c-0.4-0.3-0.7-0.3-1-0.1c-0.8,0.5-1.6,0.9-2.5,1.4c-0.4,0.2-0.5,0.5-0.4,0.9c0.4,2.6-0.5,4.7-2.9,6.6c-0.1,0.1-0.2,0.2-0.4,0.2       c-0.3,0.2-0.7,0.3-1,0.4l-0.1,0c-0.1,0-0.2,0.1-0.2,0.1C19.1,29.8,19,30,19,30.4c0,0.6,0,1.1,0,1.6l0,0.1c0,0.4,0,0.7,0,1.1       c0,0.4,0.2,0.7,0.6,0.8c1.4,0.5,2.5,1.4,3.4,3c0.9,1.5,1.1,3,0.8,4.7c-0.1,0.3,0,0.6,0.4,0.8c0.9,0.6,1.7,1.1,2.5,1.5       c0.1,0.1,0.2,0.1,0.4,0.1c0.1,0,0.2,0,0.3-0.1c0.1,0,0.1-0.1,0.2-0.2c0.3-0.3,0.6-0.5,0.9-0.7c1.1-0.6,2.6-0.9,4-0.7       c1.5,0.1,2.8,0.7,3.6,1.5c0.1,0.1,0.3,0.3,0.6,0.3l0,0c0.2,0,0.3,0,0.6-0.2c0.4-0.2,0.9-0.5,1.1-0.6c0.3-0.2,0.7-0.4,1.2-0.6       c0.6-0.3,0.5-0.7,0.5-1c-0.3-1.1-0.1-2.5,0.6-3.8c0.7-1.3,1.7-2.4,2.7-3c0.4-0.2,0.7-0.3,1.1-0.4c0.2,0,0.4-0.1,0.5-0.4       c0-0.1,0.1-0.2,0.1-0.4C45,32.7,45,31.7,45,30.8z M34.7,36.9c-0.9,0.5-2,0.7-3.1,0.7c-1.8-0.1-3.5-1.1-4.4-2.7       c-0.8-1.3-1-2.9-0.6-4.3c0.4-1.4,1.3-2.6,2.7-3.4c0.9-0.5,2-0.8,3-0.7c0.4,0,0.9,0.1,1.3,0.2c1.4,0.4,2.6,1.4,3.3,2.8       C38.3,32.1,37.3,35.4,34.7,36.9z"/></g></svg>